<svg id="Alumni_main" data-name="Alumni main" xmlns="http://www.w3.org/2000/svg" width="15.232" height="19.894" viewBox="0 0 15.232 19.894">
  <g id="Group_849" data-name="Group 849" transform="translate(0 0)">
    <g id="Group_848" data-name="Group 848">
      <path id="Path_2432" data-name="Path 2432" d="M65.728,254.868a1.469,1.469,0,0,0-.838-.715L62.608,253.1l-1.1-.925-1.762,1.752h0l.76,5.082a.067.067,0,0,1-.012.05l-.795,1.088a.067.067,0,0,1-.109,0l-.795-1.088a.067.067,0,0,1-.012-.05l.76-5.083h0l-1.762-1.752-1.1.925L54.4,254.152a1.483,1.483,0,0,0-.838.715s-2.481,5.906-1.135,5.906H66.864C68.209,260.774,65.728,254.868,65.728,254.868Z" transform="translate(-52.032 -240.879)" fill="#fff"/>
      <path id="Path_2433" data-name="Path 2433" d="M90.613,5.891a.127.127,0,0,0,.114-.141q-.038-.327-.077-.654L90.6,4.639a.127.127,0,0,0-.138-.112h-.1l0-1.532.052-.019.172-.062a.368.368,0,0,0,0-.692L84.5.022a.368.368,0,0,0-.25,0l-6.088,2.2a.368.368,0,0,0,0,.692l2.251.813a5.5,5.5,0,0,0-.225,1.715c.04,3.647,2.157,5.822,4.116,5.822,1.936,0,4.076-2.175,4.115-5.822a5.558,5.558,0,0,0-.21-1.668l1.636-.591,0,1.345h-.1a.127.127,0,0,0-.138.112l-.128,1.111a.127.127,0,0,0,.028.094.125.125,0,0,0,.087.046M84.3,10.379c-1.709,0-2.888-2-3.126-4-.22-1.851,2.457-1.937,2.612-.79.048.353-.357.73-.311.876.227.719,3.977-2.347,3.951-.087C87.41,7.97,85.93,10.379,84.3,10.379Z" transform="translate(-76.757 0)" fill="#fff"/>
    </g>
  </g>
</svg>
