<svg xmlns="http://www.w3.org/2000/svg" width="30.032" height="26.09" viewBox="0 0 30.032 26.09">
  <g id="Group_2064" data-name="Group 2064" transform="translate(-3668 353)">
    <path id="Path_2504" data-name="Path 2504" d="M0,17.534Z" transform="translate(3668 -358.894)"/>
    <g id="Group_833" data-name="Group 833" transform="translate(3672.923 -352)">
      <g id="Group_827" data-name="Group 827" transform="translate(0 1)">
        <g id="sparks-messenger2" transform="translate(0 0)">
          <path id="Path_2402" data-name="Path 2402" d="M23.429,4.994a11.5,11.5,0,0,0-4.568-3.654A14.784,14.784,0,0,0,12.555,0,15.025,15.025,0,0,0,7.679.792a13.072,13.072,0,0,0-4.007,2.14A10.325,10.325,0,0,0,.995,6.139,8.143,8.143,0,0,0,0,10.036a8.243,8.243,0,0,0,1.268,4.407,10.781,10.781,0,0,0,3.468,3.45,10.8,10.8,0,0,1-.364,1.191q-.21.564-.378.926a6.518,6.518,0,0,1-.455.8q-.287.439-.434.619l-.483.6q-.336.416-.434.541a1.062,1.062,0,0,0-.112.141l-.1.133-.084.141q-.07.118-.063.149a.463.463,0,0,1-.028.157.229.229,0,0,0,.007.189v.016a.809.809,0,0,0,.245.455.51.51,0,0,0,.427.141,9.532,9.532,0,0,0,1.6-.345,14.85,14.85,0,0,0,6.446-3.8,17.152,17.152,0,0,0,2.032.126A14.779,14.779,0,0,0,18.86,18.73a11.5,11.5,0,0,0,4.568-3.653,8.4,8.4,0,0,0,0-10.082Z"/>
        </g>
      </g>
      <g id="Group_1314" data-name="Group 1314" transform="translate(0 -1)">
        <g id="sparks-messenger2-2" data-name="sparks-messenger2" transform="translate(0 0)">
          <path id="Path_2402-2" data-name="Path 2402" d="M23.429,4.994a11.5,11.5,0,0,0-4.568-3.654A14.784,14.784,0,0,0,12.555,0,15.025,15.025,0,0,0,7.679.792a13.072,13.072,0,0,0-4.007,2.14A10.325,10.325,0,0,0,.995,6.139,8.143,8.143,0,0,0,0,10.036a8.243,8.243,0,0,0,1.268,4.407,10.781,10.781,0,0,0,3.468,3.45,10.8,10.8,0,0,1-.364,1.191q-.21.564-.378.926a6.518,6.518,0,0,1-.455.8q-.287.439-.434.619l-.483.6q-.336.416-.434.541a1.062,1.062,0,0,0-.112.141l-.1.133-.084.141q-.07.118-.063.149a.463.463,0,0,1-.028.157.229.229,0,0,0,.007.189v.016a.809.809,0,0,0,.245.455.51.51,0,0,0,.427.141,9.532,9.532,0,0,0,1.6-.345,14.85,14.85,0,0,0,6.446-3.8,17.152,17.152,0,0,0,2.032.126A14.779,14.779,0,0,0,18.86,18.73a11.5,11.5,0,0,0,4.568-3.653,8.4,8.4,0,0,0,0-10.082Z" fill="#ff502f"/>
        </g>
      </g>
      <g id="Group_828" data-name="Group 828" transform="translate(5.431 4.583)">
        <path id="Path_2409" data-name="Path 2409" d="M10.333,5.166a.469.469,0,0,0-.47-.47c-1.888,0-2.848-.225-3.425-.8s-.8-1.538-.8-3.425A.47.47,0,1,0,4.7.47c0,1.887-.225,2.848-.8,3.425S2.358,4.7.47,4.7a.47.47,0,1,0,0,.939c1.888,0,2.848.225,3.425.8s.8,1.538.8,3.425a.47.47,0,0,0,.939,0c0-1.887.225-2.848.8-3.425s1.537-.8,3.425-.8A.469.469,0,0,0,10.333,5.166Z" transform="translate(0 0)" fill="#fff"/>
        <path id="Path_2410" data-name="Path 2410" d="M.47,2.818c.654,0,1,.071,1.17.238s.239.517.239,1.171a.47.47,0,0,0,.939,0c0-.654.072-1,.239-1.171s.516-.238,1.17-.238a.47.47,0,0,0,0-.939c-.654,0-1-.071-1.17-.238S2.818,1.123,2.818.47a.47.47,0,0,0-.939,0c0,.654-.072,1-.239,1.171s-.516.238-1.17.238a.47.47,0,0,0,0,.939Z" transform="translate(9.393 0)" fill="#fff"/>
      </g>
    </g>
  </g>
</svg>
