<svg xmlns="http://www.w3.org/2000/svg" width="13.633" height="14.001" viewBox="0 0 13.633 14.001">
  <g id="event" transform="translate(-5.224)">
    <g id="Group_1049" data-name="Group 1049" transform="translate(5.224)">
      <g id="Group_1048" data-name="Group 1048" transform="translate(0)">
        <path id="Path_2495" data-name="Path 2495" d="M83.684,2.395h1.105a.092.092,0,0,0,.092-.092V.092A.092.092,0,0,0,84.789,0H83.684a.092.092,0,0,0-.092.092V2.3A.092.092,0,0,0,83.684,2.395Z" transform="translate(-80.829)" fill="#ff502f"/>
        <path id="Path_2496" data-name="Path 2496" d="M18.009,47.02H16.646v.59a.673.673,0,0,1-.608.7H14.951a.755.755,0,0,1-.7-.7v-.59H9.83v.59a.755.755,0,0,1-.7.7H8.043a.673.673,0,0,1-.608-.7v-.59H6.071a.866.866,0,0,0-.847.866v2.266H18.856V47.886A.866.866,0,0,0,18.009,47.02Z" transform="translate(-5.224 -45.362)" fill="#ff502f"/>
        <path id="Path_2497" data-name="Path 2497" d="M276.99,2.395H278.1a.092.092,0,0,0,.092-.092V.092A.092.092,0,0,0,278.1,0H276.99a.092.092,0,0,0-.092.092V2.3A.092.092,0,0,0,276.99,2.395Z" transform="translate(-267.318)" fill="#ff502f"/>
        <path id="Path_2498" data-name="Path 2498" d="M127.595,209.874l-.258,1.492,1.326-.7.129-.037.129.037,1.326.7-.258-1.492a.313.313,0,0,1,.074-.24l1.087-1.032-1.492-.221a.276.276,0,0,1-.2-.147l-.663-1.345-.663,1.345a.276.276,0,0,1-.2.147l-1.492.221,1.087,1.032A.313.313,0,0,1,127.595,209.874Z" transform="translate(-122.16 -199.595)" fill="#ff502f"/>
        <path id="Path_2499" data-name="Path 2499" d="M5.224,159.339a.847.847,0,0,0,.847.829H18.009a.848.848,0,0,0,.847-.829V151.51H5.224Zm3.427-4.44a.258.258,0,0,1,.221-.184l1.9-.295.847-1.713a.276.276,0,0,1,.479,0l.847,1.713,1.9.295a.266.266,0,0,1,.147.461L13.625,156.5l.332,1.9a.276.276,0,0,1-.111.258.3.3,0,0,1-.166.055.184.184,0,0,1-.129-.037l-1.695-.884-1.695.884a.258.258,0,0,1-.295-.018.276.276,0,0,1-.111-.258l.332-1.9-1.363-1.326A.258.258,0,0,1,8.651,154.9Z" transform="translate(-5.224 -146.167)" fill="#ff502f"/>
      </g>
    </g>
  </g>
</svg>
