<svg id="Group_909" data-name="Group 909" xmlns="http://www.w3.org/2000/svg" width="21.108" height="18.702" viewBox="0 0 21.108 18.702">
  <path id="Path_18" data-name="Path 18" d="M3.674,20.758a.438.438,0,0,0,.442.472l5.321-.006.008-4.36s-.075-.719.623-.719h2.208a.684.684,0,0,1,.774.719l-.009,4.346h5.208a.546.546,0,0,0,.559-.587V12.584l-7.34-6.529L3.674,12.584S3.674,20.758,3.674,20.758Z" transform="translate(-0.804 -2.528)" fill="#fff"/>
  <path id="Path_19" data-name="Path 19" d="M0,10.989s.662,1.219,2.1,0l8.623-7.295,8.085,7.249c1.67,1.2,2.3,0,2.3,0l-10.38-9.4Z" transform="translate(0 -1.54)" fill="#fff"/>
</svg>
