<svg id="Group_903" data-name="Group 903" xmlns="http://www.w3.org/2000/svg" width="18.507" height="18.508" viewBox="0 0 18.507 18.508">
  <path id="Path_2366" data-name="Path 2366" d="M168.834,1.983,169.825,0h-4.879l.992,1.983Zm0,0" transform="translate(-158.132)" fill="#fff"/>
  <path id="Path_2365" data-name="Path 2365" d="M10.388,292.709a.334.334,0,0,1-.182.055H7.6a.992.992,0,0,0,0,1.983h4.3v.661H6.941a.327.327,0,0,1-.148-.035l-5.149-2.578a1.106,1.106,0,0,0-1.164.1,1.168,1.168,0,0,0-.479.935v.036a1.141,1.141,0,0,0,.6,1.005l5.612,3.061a3.634,3.634,0,0,0,1.742.446h7.912v-5.458a4.587,4.587,0,0,0-1.114-.64,4.7,4.7,0,0,0-4.362.425Zm0,0" transform="translate(0 -279.874)" fill="#fff"/>
  <path id="Path_2367" data-name="Path 2367" d="M97.983,75.237a1.654,1.654,0,0,1,1.652-1.652h2.507a5.357,5.357,0,0,1,4.434-.591V67.636A3.63,3.63,0,0,0,102.94,64h-3.3A3.64,3.64,0,0,0,96,67.636V74.7l2.059,1.033a1.64,1.64,0,0,1-.076-.5Zm2.644-8.262h.33v-.661h.661v.661h1.322v.661h-2.313a.661.661,0,0,0,0,1.322h1.322a1.322,1.322,0,1,1,0,2.644h-.33v.661h-.661V71.6H99.635v-.661h2.313a.661.661,0,1,0,0-1.322h-1.322a1.322,1.322,0,1,1,0-2.644Zm-1.735-2.219.165.64a2.29,2.29,0,0,0-.578.237l-.331-.572A2.978,2.978,0,0,1,98.891,64.755Zm-1.57,4.2h-.661V67.636a2.951,2.951,0,0,1,.9-2.133l.46.474a2.3,2.3,0,0,0-.7,1.659Zm0,0" transform="translate(-92.034 -61.356)" fill="#fff"/>
  <path id="Path_2368" data-name="Path 2368" d="M400,320v5.288h1.983V320Zm1.322,4.3h-.661v-.661h.661Zm0,0" transform="translate(-383.475 -306.78)" fill="#fff"/>
</svg>
