<svg xmlns="http://www.w3.org/2000/svg" width="15.001" height="15.001" viewBox="0 0 15.001 15.001">
  <g id="image" transform="translate(0.001)">
    <path id="Path_2607" data-name="Path 2607" d="M15,4.061V10.94A4.065,4.065,0,0,1,10.939,15H4.06A4.065,4.065,0,0,1,0,10.94V4.061A4.065,4.065,0,0,1,4.06,0h6.879A4.065,4.065,0,0,1,15,4.061Zm0,0" transform="translate(0)" fill="#0bd0ee"/>
    <path id="Path_2608" data-name="Path 2608" d="M263.5,4.062v6.879A4.065,4.065,0,0,1,259.44,15H256V0h3.44A4.065,4.065,0,0,1,263.5,4.062Zm0,0" transform="translate(-248.501 -0.001)" fill="#2fbbf0"/>
    <path id="Path_2609" data-name="Path 2609" d="M15,158.479v3.3a4.065,4.065,0,0,1-4.061,4.061H4.06A4.065,4.065,0,0,1,0,161.776v-1.234H.878l1.927-1.774a1.074,1.074,0,0,1,1.445,0l1.93,1.772a.188.188,0,0,0,.28-.028l.873-1.2.167-.229,2.366-3.254a1.068,1.068,0,0,1,1.638-.107l2.617,2.757Zm0,0" transform="translate(0 -150.836)" fill="#fe7b62"/>
    <path id="Path_2610" data-name="Path 2610" d="M91.7,89.829c-.034,0-.067,0-.1,0a1.545,1.545,0,0,1,.1-3.087c.033,0,.067,0,.1,0a1.545,1.545,0,0,1-.1,3.087Zm0,0" transform="translate(-87.518 -84.197)" fill="#fdff78"/>
    <path id="Path_2611" data-name="Path 2611" d="M263.5,158.479v3.3a4.065,4.065,0,0,1-4.061,4.061H256v-6.754l2.366-3.254a1.068,1.068,0,0,1,1.638-.107l2.617,2.757Zm0,0" transform="translate(-248.501 -150.837)" fill="#ff502f"/>
  </g>
</svg>
