<svg id="Group_902" data-name="Group 902" xmlns="http://www.w3.org/2000/svg" width="20.176" height="17.728" viewBox="0 0 20.176 17.728">
  <path id="Path_2445" data-name="Path 2445" d="M4.348,213.174A2.176,2.176,0,0,0,2.174,211H.591a.591.591,0,0,0-.591.591v3.166a.591.591,0,0,0,.591.591H2.174a2.176,2.176,0,0,0,2.174-2.174Zm0,0" transform="translate(0 -202.685)" fill="#fff"/>
  <path id="Path_2446" data-name="Path 2446" d="M405.421,211h-1.583a2.174,2.174,0,0,0,0,4.348h1.583a.591.591,0,0,0,.591-.591v-3.166A.591.591,0,0,0,405.421,211Zm0,0" transform="translate(-385.836 -202.685)" fill="#fff"/>
  <path id="Path_2447" data-name="Path 2447" d="M282.556,7.048a3.524,3.524,0,1,0-3.524-3.524A3.528,3.528,0,0,0,282.556,7.048Zm0,0" transform="translate(-268.036 0)" fill="#fff"/>
  <path id="Path_2448" data-name="Path 2448" d="M77.216,3.524a3.524,3.524,0,1,0-3.524,3.524A3.528,3.528,0,0,0,77.216,3.524Zm0,0" transform="translate(-67.403 0)" fill="#fff"/>
  <path id="Path_2449" data-name="Path 2449" d="M23.748,183.89a6.2,6.2,0,0,1,2.566-5.023H21.09a5.005,5.005,0,0,0-2.017.422,3.356,3.356,0,0,1-1.466,6.375H16.067v3.292a.591.591,0,0,0,.591.591H18.6v-2.575a.591.591,0,0,1,1.182,0v2.575H23.85a1.766,1.766,0,0,1-.1-.591Zm0,0" transform="translate(-15.433 -171.818)" fill="#fff"/>
  <path id="Path_2450" data-name="Path 2450" d="M246.149,182.307a3.36,3.36,0,0,1,1.89-3.019,5.025,5.025,0,0,0-7.04,4.6v5.065a.591.591,0,0,0,.591.591h5.74v-2.575a.591.591,0,1,1,1.182,0v2.575h1.941a.591.591,0,0,0,.591-.591v-3.292H249.5A3.36,3.36,0,0,1,246.149,182.307Zm0,0" transform="translate(-231.503 -171.819)" fill="#fff"/>
</svg>
