<svg id="work" xmlns="http://www.w3.org/2000/svg" width="20.606" height="18.11" viewBox="0 0 20.606 18.11">
  <path id="Path_2656" data-name="Path 2656" d="M211,240h3.622v1.207H211Zm0,0" transform="translate(-202.508 -230.341)" fill="#fff"/>
  <path id="Path_2657" data-name="Path 2657" d="M16.717,85.161h-3.4v.6a.6.6,0,0,1-.6.6H7.888a.6.6,0,0,1-.6-.6v-.6h-3.4a1.809,1.809,0,0,1-1.718-1.238L0,77.41V90.594a1.813,1.813,0,0,0,1.811,1.811H18.795a1.813,1.813,0,0,0,1.811-1.811V77.411l-2.171,6.512A1.809,1.809,0,0,1,16.717,85.161Zm0,0" transform="translate(0 -74.295)" fill="#fff"/>
  <path id="Path_2658" data-name="Path 2658" d="M37.487,0H32.658a1.813,1.813,0,0,0-1.811,1.811v.6H25.809l2.277,6.831a.6.6,0,0,0,.573.413h3.4v-.6a.6.6,0,0,1,.6-.6h4.829a.6.6,0,0,1,.6.6v.6h3.4a.6.6,0,0,0,.573-.413l2.277-6.831H39.3v-.6A1.813,1.813,0,0,0,37.487,0ZM32.054,2.415v-.6a.6.6,0,0,1,.6-.6h4.829a.6.6,0,0,1,.6.6v.6Zm0,0" transform="translate(-24.77 0)" fill="#fff"/>
</svg>
