<svg xmlns="http://www.w3.org/2000/svg" width="24.32" height="14.778" viewBox="0 0 24.32 14.778">
  <g id="envelope" transform="translate(0 -100.445)">
    <g id="Group_300" data-name="Group 300" transform="translate(0 100.445)">
      <path id="Path_106" data-name="Path 106" d="M24.3,101.689a1.247,1.247,0,0,0-1.246-1.244h0l-21.812.03A1.246,1.246,0,0,0,0,101.722l.017,12.256a1.246,1.246,0,0,0,1.246,1.244h0l21.812-.03a1.247,1.247,0,0,0,1.244-1.247Zm-2.614,0-9.528,6.624-9.546-6.6Zm-5.5,7.874,5.651,4.383-19.379.027,5.686-4.409a.623.623,0,0,0-.763-.984L1.262,113.33l-.015-11.042,10.561,7.3a.623.623,0,0,0,.71,0l10.541-7.327.016,11.071-6.121-4.747a.623.623,0,0,0-.763.984Z" transform="translate(0 -100.445)" fill="#fbf5f5"/>
    </g>
  </g>
</svg>
