<svg id="Group_299" data-name="Group 299" xmlns="http://www.w3.org/2000/svg" width="24.227" height="20" viewBox="0 0 24.227 20">
  <g id="Group_298" data-name="Group 298" transform="translate(0 0)">
    <ellipse id="Ellipse_10" data-name="Ellipse 10" cx="1" cy="0.5" rx="1" ry="0.5" transform="translate(14.894 13)" fill="#fcf9f9"/>
    <path id="Path_104" data-name="Path 104" d="M11.262,18.438H3.785a1.754,1.754,0,0,1-1.893-1.562V10.47A1.754,1.754,0,0,1,3.785,8.907H17.413a1.754,1.754,0,0,1,1.893,1.562v1.562a.964.964,0,0,0,1.893,0V10.47c0-1.723-1.7-3.125-3.785-3.125H16.276V4.59C16.276,2.059,13.729,0,10.6,0S4.919,2.059,4.919,4.59V7.345H3.785C1.7,7.345,0,8.747,0,10.47v6.406C0,18.6,1.7,20,3.785,20h7.476a.8.8,0,1,0,0-1.562ZM6.812,4.59c0-1.669,1.7-3.026,3.785-3.026s3.785,1.357,3.785,3.026V7.345H6.812V4.59Z" transform="translate(0 -0.001)" fill="#fcf9f9"/>
    <path id="Path_105" data-name="Path 105" d="M274.425,322.145a1.08,1.08,0,0,0-1.32.18L268.44,327.7a.588.588,0,0,1-.373.153.612.612,0,0,1-.405-.12l-3.015-2.429a1.093,1.093,0,0,0-1.338.013.689.689,0,0,0,.016,1.1l3.02,2.433.009.007a2.737,2.737,0,0,0,1.679.554q.08,0,.161,0a2.633,2.633,0,0,0,1.735-.746l.032-.035,4.684-5.4A.7.7,0,0,0,274.425,322.145Z" transform="translate(-250.593 -309.421)" fill="#fcf9f9"/>
    <ellipse id="Ellipse_11" data-name="Ellipse 11" cx="1" cy="0.5" rx="1" ry="0.5" transform="translate(10.894 13)" fill="#fcf9f9"/>
    <circle id="Ellipse_12" data-name="Ellipse 12" cx="0.5" cy="0.5" r="0.5" transform="translate(4.894 13)" fill="#fcf9f9"/>
    <circle id="Ellipse_13" data-name="Ellipse 13" cx="0.5" cy="0.5" r="0.5" transform="translate(8.894 13)" fill="#fcf9f9"/>
  </g>
</svg>
