<svg id="smartphone-call" xmlns="http://www.w3.org/2000/svg" width="15.833" height="22.5" viewBox="0 0 15.833 22.5">
  <path id="Path_103" data-name="Path 103" d="M21.326,0H9.175A1.708,1.708,0,0,0,7.334,1.52V20.98A1.709,1.709,0,0,0,9.175,22.5H21.326a1.708,1.708,0,0,0,1.841-1.52V1.52A1.708,1.708,0,0,0,21.326,0ZM13.307,1.1h3.887a.206.206,0,0,1,.223.184.206.206,0,0,1-.223.184H13.307a.206.206,0,0,1-.223-.184A.206.206,0,0,1,13.307,1.1ZM15.251,21.74a.774.774,0,1,1,.92-.76A.852.852,0,0,1,15.251,21.74Zm6.636-2.053H8.615V2.41H21.886Z" transform="translate(-7.334)" fill="#f9f4f4"/>
</svg>
