<svg xmlns="http://www.w3.org/2000/svg" width="18.912" height="22.233" viewBox="0 0 18.912 22.233">
  <g id="avatar" transform="translate(-36.073)">
    <g id="Group_301" data-name="Group 301" transform="translate(36.073)">
      <path id="Path_107" data-name="Path 107" d="M141.806,11.98h.147a4.248,4.248,0,0,0,3.246-1.4c1.773-2,1.478-5.424,1.446-5.751A4.7,4.7,0,0,0,144.412.649,5.119,5.119,0,0,0,141.935,0h-.078a5.127,5.127,0,0,0-2.477.631,4.7,4.7,0,0,0-2.261,4.194c-.032.327-.327,3.752,1.446,5.751A4.231,4.231,0,0,0,141.806,11.98Zm-3.458-7.04c0-.014,0-.028,0-.037.152-3.3,2.5-3.656,3.5-3.656h.055c1.243.028,3.356.534,3.5,3.656a.09.09,0,0,0,0,.037c0,.032.327,3.163-1.137,4.811a3.018,3.018,0,0,1-2.371.985h-.046a3.008,3.008,0,0,1-2.367-.985C138.031,8.112,138.344,4.968,138.349,4.94Z" transform="translate(-132.431)" fill="#fbf4f4"/>
      <path id="Path_108" data-name="Path 108" d="M54.983,264.97v-.014c0-.037,0-.074,0-.115-.028-.912-.087-3.043-2.086-3.725l-.046-.014a13.285,13.285,0,0,1-3.821-1.74.621.621,0,0,0-.714,1.018,14.34,14.34,0,0,0,4.2,1.92c1.073.382,1.192,1.529,1.225,2.578a.924.924,0,0,0,0,.115,8.358,8.358,0,0,1-.1,1.423,16.944,16.944,0,0,1-8.117,1.888,17.042,17.042,0,0,1-8.122-1.892,7.912,7.912,0,0,1-.1-1.423c0-.037,0-.074,0-.115.032-1.05.152-2.2,1.225-2.578a14.473,14.473,0,0,0,4.2-1.92.621.621,0,0,0-.714-1.018,13.138,13.138,0,0,1-3.821,1.74l-.046.014c-2,.686-2.058,2.818-2.086,3.725a.925.925,0,0,1,0,.115v.014a7.06,7.06,0,0,0,.235,2.086.591.591,0,0,0,.239.29,17.415,17.415,0,0,0,8.987,2.2,17.468,17.468,0,0,0,8.987-2.2.616.616,0,0,0,.239-.29A7.407,7.407,0,0,0,54.983,264.97Z" transform="translate(-36.073 -247.308)" fill="#fbf4f4"/>
    </g>
  </g>
</svg>
