<svg xmlns="http://www.w3.org/2000/svg" width="18.968" height="24.773" viewBox="0 0 18.968 24.773">
  <g id="Alumni_main" data-name="Alumni main" transform="translate(-52.031 0)">
    <g id="Group_849" data-name="Group 849" transform="translate(52.032 0)">
      <g id="Group_848" data-name="Group 848">
        <path id="Path_2432" data-name="Path 2432" d="M69.087,255.527a1.83,1.83,0,0,0-1.044-.891L65.2,253.328l-1.365-1.151-2.194,2.182h0l.947,6.329a.083.083,0,0,1-.015.062l-.99,1.355a.084.084,0,0,1-.135,0l-.99-1.355a.083.083,0,0,1-.015-.062l.947-6.329h0l-2.194-2.182-1.365,1.151-2.842,1.308a1.846,1.846,0,0,0-1.044.891s-3.089,7.354-1.414,7.354H70.5C72.177,262.882,69.087,255.527,69.087,255.527Z" transform="translate(-52.032 -238.109)" fill="#ff2c17"/>
        <path id="Path_2433" data-name="Path 2433" d="M93.726,7.336a.159.159,0,0,0,.142-.176q-.048-.407-.1-.814l-.066-.568a.158.158,0,0,0-.171-.139h-.123l0-1.908.064-.023.215-.077a.458.458,0,0,0,0-.862L86.112.028a.458.458,0,0,0-.312,0l-7.581,2.74a.458.458,0,0,0,0,.862l2.8,1.013a6.855,6.855,0,0,0-.28,2.136c.049,4.541,2.686,7.249,5.125,7.249,2.411,0,5.076-2.708,5.125-7.249A6.922,6.922,0,0,0,90.73,4.7l2.038-.736,0,1.675h-.123a.158.158,0,0,0-.171.14l-.159,1.383a.159.159,0,0,0,.034.117.156.156,0,0,0,.108.058m-6.593,5.588c-2.128,0-3.6-2.493-3.893-4.985-.274-2.3,3.059-2.412,3.253-.984.06.439-.445.91-.387,1.091.282.9,4.952-2.922,4.92-.109C89.738,9.925,87.9,12.924,85.867,12.924Z" transform="translate(-76.473 0)" fill="#ff2c17"/>
      </g>
    </g>
  </g>
</svg>
