<svg id="classmates" xmlns="http://www.w3.org/2000/svg" width="25.345" height="26.295" viewBox="0 0 25.345 26.295">
  <g id="Group_484" data-name="Group 484" transform="translate(4.554 0.24)">
    <g id="Group_483" data-name="Group 483">
      <circle id="Ellipse_16" data-name="Ellipse 16" cx="2.144" cy="2.144" r="2.144" fill="#ff2c17"/>
    </g>
  </g>
  <g id="Group_486" data-name="Group 486" transform="translate(8.324 5.213)">
    <g id="Group_485" data-name="Group 485">
      <path id="Path_2129" data-name="Path 2129" d="M176.36,110.439c-.017-.046-1.706-4.669-2.451-6.834-.48-1.4-1.285-2.105-2.392-2.105h-.167a2.339,2.339,0,0,1,.6.98,1.377,1.377,0,0,1,.927,1.3v3.129c.738,2.06,1.524,4.21,1.535,4.241a1.035,1.035,0,0,0,1.944-.711Z" transform="translate(-171.35 -101.5)" fill="#ff2c17"/>
    </g>
  </g>
  <g id="Group_488" data-name="Group 488" transform="translate(0 5.213)">
    <g id="Group_487" data-name="Group 487">
      <path id="Path_2130" data-name="Path 2130" d="M14.17,101.5c-1.107,0-1.912.708-2.392,2.105-.744,2.165-2.434,6.787-2.451,6.834a1.035,1.035,0,1,0,1.944.711c.012-.032.8-2.181,1.535-4.241v-3.129a1.377,1.377,0,0,1,.926-1.3,2.339,2.339,0,0,1,.6-.98Z" transform="translate(-9.263 -101.5)" fill="#ff2c17"/>
    </g>
  </g>
  <g id="Group_490" data-name="Group 490" transform="translate(2.583 11.971)">
    <g id="Group_489" data-name="Group 489">
      <path id="Path_2131" data-name="Path 2131" d="M67.777,237.983c-.435-2.243-.737-3.8-.949-4.892v.242a1.377,1.377,0,0,1-1.375,1.375H61.89a1.377,1.377,0,0,1-1.375-1.375v-.243c-.212,1.09-.514,2.649-.949,4.892a.576.576,0,0,0,.564.685h.79v7.506a1.242,1.242,0,0,0,2.483,0v-7.506h.536v7.506a1.242,1.242,0,1,0,2.483,0v-7.506h.79A.575.575,0,0,0,67.777,237.983Z" transform="translate(-59.555 -233.091)" fill="#ff2c17"/>
    </g>
  </g>
  <g id="Group_492" data-name="Group 492" transform="translate(4.313 5.323)">
    <g id="Group_491" data-name="Group 491">
      <path id="Path_2132" data-name="Path 2132" d="M97.411,105.212h-.217a1.565,1.565,0,0,0-3.13,0h-.217a.6.6,0,0,0-.6.6v4.722a.6.6,0,0,0,.6.6h3.563a.6.6,0,0,0,.6-.6v-4.722A.6.6,0,0,0,97.411,105.212Zm-1.967-.771h.37a.8.8,0,0,1,.609.771H94.836A.8.8,0,0,1,95.444,104.441Zm1.025,5.227H94.79a.514.514,0,1,1,0-1.028h1.679a.514.514,0,1,1,0,1.028Z" transform="translate(-93.244 -103.647)" fill="#ff2c17"/>
    </g>
  </g>
  <g id="Group_494" data-name="Group 494" transform="translate(17.866 0)">
    <g id="Group_493" data-name="Group 493">
      <circle id="Ellipse_17" data-name="Ellipse 17" cx="2.164" cy="2.164" r="2.164" fill="#ff2c17"/>
    </g>
  </g>
  <g id="Group_496" data-name="Group 496" transform="translate(21.474 5.018)">
    <g id="Group_495" data-name="Group 495">
      <path id="Path_2133" data-name="Path 2133" d="M431.263,100.173a2.5,2.5,0,0,0-2.51-2.459h-1.36a2.343,2.343,0,0,1,.787,1.139l.014.006a1.445,1.445,0,0,1,.98,1.4v7.588a1.044,1.044,0,0,0,2.089,0v-7.677Z" transform="translate(-427.394 -97.714)" fill="#ff2c17"/>
    </g>
  </g>
  <g id="Group_498" data-name="Group 498" transform="translate(17.26 13.138)">
    <g id="Group_497" data-name="Group 497">
      <path id="Path_2134" data-name="Path 2134" d="M349.883,256.224H346.32a1.384,1.384,0,0,1-.99-.416v11.9a1.25,1.25,0,1,0,2.5,0V257.7h.541v10.016a1.25,1.25,0,1,0,2.5,0v-11.9A1.384,1.384,0,0,1,349.883,256.224Z" transform="translate(-345.33 -255.808)" fill="#ff2c17"/>
    </g>
  </g>
  <g id="Group_500" data-name="Group 500" transform="translate(14.718 5.018)">
    <g id="Group_499" data-name="Group 499">
      <path id="Path_2135" data-name="Path 2135" d="M298.351,97.713a2.5,2.5,0,0,0-2.51,2.459v7.677a1.044,1.044,0,1,0,2.089,0v-7.464a1.441,1.441,0,0,1,1-1.536,2.344,2.344,0,0,1,.786-1.136h-1.36Z" transform="translate(-295.841 -97.713)" fill="#ff2c17"/>
    </g>
  </g>
  <g id="Group_502" data-name="Group 502" transform="translate(17.645 5.288)">
    <g id="Group_501" data-name="Group 501">
      <path id="Path_2136" data-name="Path 2136" d="M357,104.53h-.217a1.565,1.565,0,0,0-3.13,0h-.217a.6.6,0,0,0-.6.6v4.722a.6.6,0,0,0,.6.6H357a.6.6,0,0,0,.6-.6v-4.722A.6.6,0,0,0,357,104.53Zm-1.967-.771h.37a.8.8,0,0,1,.609.771h-1.588A.794.794,0,0,1,355.038,103.759Zm1.025,5.227h-1.679a.514.514,0,1,1,0-1.028h1.679a.514.514,0,1,1,0,1.028Z" transform="translate(-352.837 -102.965)" fill="#ff2c17"/>
    </g>
  </g>
</svg>
