<svg xmlns="http://www.w3.org/2000/svg" xmlns:xlink="http://www.w3.org/1999/xlink" width="138" height="54" viewBox="0 0 138 54">
  <defs>
    <filter id="Rectangle_1586" x="0" y="0" width="138" height="54" filterUnits="userSpaceOnUse">
      <feOffset dy="3" input="SourceAlpha"/>
      <feGaussianBlur stdDeviation="3" result="blur"/>
      <feFlood flood-opacity="0.741"/>
      <feComposite operator="in" in2="blur"/>
      <feComposite in="SourceGraphic"/>
    </filter>
  </defs>
  <g id="Group_1042" data-name="Group 1042" transform="translate(-202 -355)">
    <g transform="matrix(1, 0, 0, 1, 202, 355)" filter="url(#Rectangle_1586)">
      <rect id="Rectangle_1586-2" data-name="Rectangle 1586" width="120" height="36" rx="5" transform="translate(9 6)" fill="#fee7e2"/>
    </g>
    <text id="Classroom" transform="translate(254 383)" font-size="14" font-family="Rajdhani-Medium, Rajdhani" font-weight="500" letter-spacing="0.018em"><tspan x="0" y="0">Classroom</tspan></text>
    <g id="Group_959" data-name="Group 959" transform="translate(-4726.766 1031.768)">
      <g id="video_call" data-name="video call" transform="translate(4952.392 -660)">
        <g id="Group_944" data-name="Group 944" transform="translate(0 0)">
          <g id="Group_942" data-name="Group 942" transform="translate(14.179 1.172)">
            <path id="Path_2478" data-name="Path 2478" d="M238.912,100.865h0a2.014,2.014,0,0,1-1.318-.5l-3.813-3.314a2.566,2.566,0,0,1,0-3.761l3.813-3.315a2.013,2.013,0,0,1,2.347-.212,2.435,2.435,0,0,1,1.111,2.092v6.63a2.432,2.432,0,0,1-1.112,2.092A1.979,1.979,0,0,1,238.912,100.865Z" transform="translate(-232.961 -89.477)" fill="#ff502f"/>
          </g>
          <g id="Group_943" data-name="Group 943">
            <path id="Path_2479" data-name="Path 2479" d="M12.016,83.95H1.705A1.707,1.707,0,0,1,0,82.245V71.934a1.707,1.707,0,0,1,1.705-1.705H12.016a1.707,1.707,0,0,1,1.7,1.705V82.245A1.707,1.707,0,0,1,12.016,83.95Z" transform="translate(0 -70.229)" fill="#ff502f"/>
          </g>
        </g>
      </g>
      <g id="play-button-arrowhead" transform="translate(4956.049 -657.278)">
        <path id="Path_2482" data-name="Path 2482" d="M9.462.183C8.714-.246,8.107.105,8.107.968V7.331c0,.863.607,1.214,1.355.786l5.562-3.19a.819.819,0,0,0,0-1.554Z" transform="translate(-8.107 0)" fill="#fff"/>
      </g>
    </g>
  </g>
</svg>
