<svg xmlns="http://www.w3.org/2000/svg" width="24" height="18.643" viewBox="0 0 24 18.643">
  <g id="friends" transform="translate(0 -57.142)">
    <g id="Group_643" data-name="Group 643" transform="translate(2.9 57.142)">
      <g id="Group_642" data-name="Group 642" transform="translate(0 0)">
        <path id="Path_2310" data-name="Path 2310" d="M66.254,57.142a4.653,4.653,0,1,0,4.381,4.645A4.524,4.524,0,0,0,66.254,57.142Z" transform="translate(-61.873 -57.142)" fill="#ff2c17"/>
      </g>
    </g>
    <g id="Group_645" data-name="Group 645" transform="translate(13.483 57.807)">
      <g id="Group_644" data-name="Group 644" transform="translate(0 0)">
        <path id="Path_2311" data-name="Path 2311" d="M291.394,71.321h-.03a3.634,3.634,0,0,0-2.666,1.205,4.149,4.149,0,0,0,.046,5.593,3.635,3.635,0,0,0,2.656,1.161h.03a3.634,3.634,0,0,0,2.666-1.205,4.078,4.078,0,0,0,1.061-2.806A3.881,3.881,0,0,0,291.394,71.321Z" transform="translate(-287.637 -71.321)" fill="#ff2c17"/>
      </g>
    </g>
    <g id="Group_647" data-name="Group 647" transform="translate(12.654 66.527)">
      <g id="Group_646" data-name="Group 646" transform="translate(0 0)">
        <path id="Path_2312" data-name="Path 2312" d="M274.731,257.358h-.364a6.551,6.551,0,0,0-4.407,1.7,8.458,8.458,0,0,1,3.3,6.275h8.043v-1.4A6.582,6.582,0,0,0,274.731,257.358Z" transform="translate(-269.96 -257.358)" fill="#ff2c17"/>
      </g>
    </g>
    <g id="Group_649" data-name="Group 649" transform="translate(0 67.885)">
      <g id="Group_648" data-name="Group 648" transform="translate(0 0)">
        <path id="Path_2313" data-name="Path 2313" d="M14.548,292.935A7.061,7.061,0,0,0,7.5,286.318H7.062A7.062,7.062,0,0,0,0,293.38v.838H14.562v-.838Q14.562,293.156,14.548,292.935Z" transform="translate(0 -286.318)" fill="#ff2c17"/>
      </g>
    </g>
  </g>
</svg>
