<svg xmlns="http://www.w3.org/2000/svg" width="16.797" height="16.707" viewBox="0 0 16.797 16.707">
  <g id="edit_1_" data-name="edit (1)" transform="translate(0 -0.269)">
    <path id="Path_2662" data-name="Path 2662" d="M16.315,28.492a.44.44,0,0,0-.44.44v3.909a1.322,1.322,0,0,1-1.321,1.321H2.2A1.322,1.322,0,0,1,.881,32.842V21.369A1.322,1.322,0,0,1,2.2,20.048H6.11a.44.44,0,0,0,0-.881H2.2a2.2,2.2,0,0,0-2.2,2.2V32.842a2.2,2.2,0,0,0,2.2,2.2H14.554a2.2,2.2,0,0,0,2.2-2.2V28.933A.44.44,0,0,0,16.315,28.492Zm0,0" transform="translate(0 -18.067)"/>
    <path id="Path_2663" data-name="Path 2663" d="M156.367,38.756l6.428-6.428,2.073,2.073L158.44,40.83Zm0,0" transform="translate(-149.483 -30.648)"/>
    <path id="Path_2664" data-name="Path 2664" d="M132.543,199.51l2.291-.635-1.656-1.656Zm0,0" transform="translate(-126.708 -188.279)"/>
    <path id="Path_2665" data-name="Path 2665" d="M318.551.59a1.1,1.1,0,0,0-1.557,0l-.467.467L318.6,3.13l.467-.467a1.1,1.1,0,0,0,0-1.557Zm0,0" transform="translate(-302.592 0)"/>
  </g>
</svg>
