<svg xmlns="http://www.w3.org/2000/svg" width="14.032" height="14.412" viewBox="0 0 14.032 14.412">
  <g id="event" transform="translate(-5.224)">
    <g id="Group_1049" data-name="Group 1049" transform="translate(5.224)">
      <g id="Group_1048" data-name="Group 1048" transform="translate(0)">
        <path id="Path_2495" data-name="Path 2495" d="M83.687,2.465h1.138a.1.1,0,0,0,.095-.095V.095A.1.1,0,0,0,84.825,0H83.687a.1.1,0,0,0-.095.095V2.37A.1.1,0,0,0,83.687,2.465Z" transform="translate(-80.748)" fill="#ff502f"/>
        <path id="Path_2496" data-name="Path 2496" d="M18.384,47.02h-1.4v.607a.692.692,0,0,1-.626.721H15.236a.777.777,0,0,1-.721-.721V47.02H9.965v.607a.777.777,0,0,1-.721.721H8.125a.692.692,0,0,1-.626-.721V47.02H6.1a.891.891,0,0,0-.872.891v2.332H19.256V47.911A.891.891,0,0,0,18.384,47.02Z" transform="translate(-5.224 -45.313)" fill="#ff502f"/>
        <path id="Path_2497" data-name="Path 2497" d="M276.993,2.465h1.138a.1.1,0,0,0,.095-.095V.095A.1.1,0,0,0,278.131,0h-1.138a.1.1,0,0,0-.095.095V2.37A.1.1,0,0,0,276.993,2.465Z" transform="translate(-267.037)" fill="#ff502f"/>
        <path id="Path_2498" data-name="Path 2498" d="M127.629,209.962l-.265,1.536,1.365-.721.133-.038.133.038,1.365.721-.265-1.536a.322.322,0,0,1,.076-.247l1.119-1.062-1.536-.228a.285.285,0,0,1-.209-.152l-.683-1.384-.683,1.384a.285.285,0,0,1-.209.152l-1.536.228,1.119,1.062A.323.323,0,0,1,127.629,209.962Z" transform="translate(-122.035 -199.381)" fill="#ff502f"/>
        <path id="Path_2499" data-name="Path 2499" d="M5.224,159.569a.872.872,0,0,0,.872.853H18.384a.872.872,0,0,0,.872-.853V151.51H5.224ZM8.751,155a.265.265,0,0,1,.228-.19l1.953-.3.872-1.764a.284.284,0,0,1,.493,0l.872,1.764,1.953.3a.274.274,0,0,1,.152.474l-1.4,1.365.341,1.953a.284.284,0,0,1-.114.265.3.3,0,0,1-.171.057.189.189,0,0,1-.133-.038l-1.745-.91-1.745.91a.265.265,0,0,1-.3-.019.284.284,0,0,1-.114-.265l.341-1.953-1.4-1.365A.265.265,0,0,1,8.751,155Z" transform="translate(-5.224 -146.011)" fill="#ff502f"/>
      </g>
    </g>
  </g>
</svg>
