<svg xmlns="http://www.w3.org/2000/svg" width="17.777" height="14.175" viewBox="0 0 17.777 14.175">
  <g id="expertclass" transform="translate(0 -50.35)">
    <path id="Path_2550" data-name="Path 2550" d="M0,61.649V50.715a.365.365,0,0,1,.365-.365H17.412a.365.365,0,0,1,.365.365V61.649l-8.6.761Z" transform="translate(0 0)" fill="#ff502f"/>
    <path id="Path_2551" data-name="Path 2551" d="M464,50.35v11.4l1.18-.1V50.715a.365.365,0,0,0-.365-.365Z" transform="translate(-447.403 0)" fill="#a60f00"/>
    <path id="Path_2552" data-name="Path 2552" d="M184.453,133.587l-4.2-2.425a.335.335,0,0,0-.5.29V136.3a.335.335,0,0,0,.5.29l4.2-2.425A.335.335,0,0,0,184.453,133.587Z" transform="translate(-173.32 -77.877)" fill="#d63be7"/>
    <path id="Path_2553" data-name="Path 2553" d="M184.453,133.587l-4.2-2.425a.335.335,0,0,0-.5.29V136.3a.335.335,0,0,0,.5.29l4.2-2.425A.335.335,0,0,0,184.453,133.587Z" transform="translate(-173.32 -77.877)" fill="#fff"/>
    <path id="Path_2554" data-name="Path 2554" d="M17.41,369.287H.367A.367.367,0,0,1,0,368.92v-2.5H17.777v2.5a.367.367,0,0,1-.367.367Z" transform="translate(0 -304.761)" fill="#fee7e2"/>
    <path id="Path_2555" data-name="Path 2555" d="M464,366.417v2.87h.813a.367.367,0,0,0,.367-.367v-2.5H464Z" transform="translate(-447.403 -304.761)" fill="#fee7e2"/>
    <path id="Path_2556" data-name="Path 2556" d="M58.361,399.57H44.268a.268.268,0,1,1,0-.537H58.361a.268.268,0,1,1,0,.537Z" transform="translate(-42.426 -336.211)" fill="#700000"/>
    <circle id="Ellipse_106" data-name="Ellipse 106" cx="0.501" cy="0.501" r="0.501" transform="translate(2.754 62.59)" fill="#fe7b62"/>
  </g>
</svg>
