<svg xmlns="http://www.w3.org/2000/svg" width="10.623" height="14.164" viewBox="0 0 10.623 14.164">
  <g id="lock" transform="translate(-64)">
    <g id="Group_1386" data-name="Group 1386" transform="translate(64)">
      <path id="Path_2614" data-name="Path 2614" d="M74.328,5.312h-.885V4.131a4.131,4.131,0,1,0-8.262,0v1.18H64.3a.3.3,0,0,0-.3.3v7.377a1.182,1.182,0,0,0,1.18,1.18h8.263a1.182,1.182,0,0,0,1.18-1.18V5.607A.3.3,0,0,0,74.328,5.312ZM70.2,11.476a.3.3,0,0,1-.293.328h-1.18a.3.3,0,0,1-.293-.328L68.614,9.8a1.167,1.167,0,0,1-.483-.949,1.18,1.18,0,1,1,2.361,0,1.167,1.167,0,0,1-.483.949Zm1.477-6.164H66.951V4.131a2.361,2.361,0,1,1,4.721,0Z" transform="translate(-64 0)"/>
    </g>
  </g>
</svg>
