<svg id="Group_1136" data-name="Group 1136" xmlns="http://www.w3.org/2000/svg" width="22.401" height="17.879" viewBox="0 0 22.401 17.879">
  <g id="Group_415" data-name="Group 415" transform="translate(0 0)">
    <g id="Group_414" data-name="Group 414">
      <g id="Group_413" data-name="Group 413">
        <g id="Group_412" data-name="Group 412">
          <g id="Group_411" data-name="Group 411">
            <g id="Group_410" data-name="Group 410">
              <g id="Group_409" data-name="Group 409">
                <g id="Group_408" data-name="Group 408">
                  <g id="Group_407" data-name="Group 407">
                    <g id="Group_406" data-name="Group 406">
                      <g id="Group_405" data-name="Group 405">
                        <g id="Group_404" data-name="Group 404">
                          <g id="Group_403" data-name="Group 403">
                            <g id="Group_402" data-name="Group 402">
                              <path id="Path_2041" data-name="Path 2041" d="M11.541,53.941a3.6,3.6,0,0,0,2.008-2.48.491.491,0,0,0,.155.027c.365,0,.651-.379.651-.863a1.022,1.022,0,0,0-.185-.608V48.13a3.485,3.485,0,0,0-3.485-3.485H9.405A3.485,3.485,0,0,0,5.92,48.13v1.888a1.023,1.023,0,0,0-.185.608c0,.484.286.863.651.863a.486.486,0,0,0,.155-.027,3.6,3.6,0,0,0,2.008,2.48,4.568,4.568,0,0,0-2.756,1.391.141.141,0,0,0-.022.023,4.591,4.591,0,0,0-.986,1.626H15.3a4.59,4.59,0,0,0-3.764-3.041Z" transform="translate(-4.784 -39.103)" fill="#ff2c17"/>
                              <path id="Path_2042" data-name="Path 2042" d="M72.232,53.941a3.6,3.6,0,0,0,2.008-2.48.491.491,0,0,0,.155.027c.365,0,.651-.379.651-.863a1.022,1.022,0,0,0-.185-.608V48.13a3.485,3.485,0,0,0-3.485-3.485H70.1a3.485,3.485,0,0,0-3.485,3.485v1.888a1.022,1.022,0,0,0-.185.608c0,.484.286.863.651.863a.486.486,0,0,0,.155-.027,3.6,3.6,0,0,0,2.008,2.48,4.568,4.568,0,0,0-2.756,1.391.141.141,0,0,0-.022.023,4.591,4.591,0,0,0-.986,1.626H76A4.59,4.59,0,0,0,72.232,53.941Z" transform="translate(-53.594 -39.103)" fill="#ff2c17"/>
                              <path id="Path_2043" data-name="Path 2043" d="M74.763,45.232h1.279a3.485,3.485,0,0,1,3.485,3.485V48.13a3.485,3.485,0,0,0-3.485-3.485H74.763a3.485,3.485,0,0,0-3.485,3.485v.587A3.485,3.485,0,0,1,74.763,45.232Z" transform="translate(-58.261 -39.103)" fill="#ff2c17"/>
                              <path id="Path_2044" data-name="Path 2044" d="M42.745,24.153h-.73v-4.2a3.622,3.622,0,0,0-3.622-3.622H32.776a3.622,3.622,0,0,0-3.622,3.622v3.256a.246.246,0,0,1,.058.084l.154.373a1.891,1.891,0,0,1,.552,0l.155-.373a.244.244,0,0,1,.06-.085V19.957a2.643,2.643,0,0,1,2.643-2.643h5.618a2.643,2.643,0,0,1,2.643,2.643v4.2H40.3a.2.2,0,0,0-.154.317l1.218,1.539a.2.2,0,0,0,.307,0L42.9,24.471A.2.2,0,0,0,42.745,24.153Z" transform="translate(-24.383 -16.335)" fill="#ff2c17"/>
                              <path id="Path_2045" data-name="Path 2045" d="M23.958,53.953l-.39-.162a1.9,1.9,0,0,0,0-.541l.384-.159a.251.251,0,0,0,.136-.327l-.169-.408a.251.251,0,0,0-.327-.136l-.379.156a1.889,1.889,0,0,0-.387-.391l.155-.373a.251.251,0,0,0-.135-.327l-.408-.17a.251.251,0,0,0-.327.135l-.155.373a1.891,1.891,0,0,0-.552,0l-.154-.373a.251.251,0,0,0-.327-.136l-.408.169a.251.251,0,0,0-.136.327l.157.379a1.9,1.9,0,0,0-.384.389l-.38-.158a.251.251,0,0,0-.327.135l-.17.408a.251.251,0,0,0,.135.327l.39.162a1.889,1.889,0,0,0,.005.537l-.393.162a.251.251,0,0,0-.136.327l.169.408a.251.251,0,0,0,.327.136l.4-.166a1.887,1.887,0,0,0,.375.372l-.167.4a.251.251,0,0,0,.135.327l.408.17a.251.251,0,0,0,.327-.135l.169-.406a1.892,1.892,0,0,0,.526,0l.167.4a.251.251,0,0,0,.327.136l.408-.169a.251.251,0,0,0,.136-.327l-.166-.4a1.89,1.89,0,0,0,.378-.373l.4.164a.251.251,0,0,0,.327-.135l.17-.408a.252.252,0,0,0-.135-.328Zm-2.722.652a1.171,1.171,0,1,1,1.53-.632A1.171,1.171,0,0,1,21.236,54.6Z" transform="translate(-16.425 -44.291)" fill="#ff2c17"/>
                            </g>
                          </g>
                        </g>
                      </g>
                    </g>
                  </g>
                </g>
              </g>
            </g>
          </g>
        </g>
      </g>
    </g>
  </g>
</svg>
