<svg xmlns="http://www.w3.org/2000/svg" width="22.68" height="23.138" viewBox="0 0 22.68 23.138">
  <g id="Group_2074" data-name="Group 2074" transform="translate(-191.216 -37.862)">
    <g id="Group_2072" data-name="Group 2072">
      <g id="Group_2070" data-name="Group 2070" transform="translate(191.216 38.862)">
        <g id="Group_15" data-name="Group 15">
          <path id="Path_3" data-name="Path 3" d="M11.34,0C5.056,0,0,4.456,0,9.94a9.6,9.6,0,0,0,4.205,7.769l.177,3.716c.033.693.51.919,1.064.506L8.5,19.652a11.471,11.471,0,0,0,2.835.286c6.284,0,11.34-4.456,11.34-9.94S17.624,0,11.34,0Z"/>
        </g>
      </g>
      <g id="Group_2071" data-name="Group 2071">
        <g id="Group_2067" data-name="Group 2067" transform="translate(191.216 37.862)">
          <g id="Group_15-2" data-name="Group 15">
            <path id="Path_3-2" data-name="Path 3" d="M11.34,0C5.056,0,0,4.456,0,9.94a9.6,9.6,0,0,0,4.205,7.769l.177,3.716c.033.693.51.919,1.064.506L8.5,19.652a11.471,11.471,0,0,0,2.835.286c6.284,0,11.34-4.456,11.34-9.94S17.624,0,11.34,0Z" fill="#ff502f"/>
          </g>
        </g>
      </g>
    </g>
    <g id="Group_2073" data-name="Group 2073" transform="translate(196.331 43.293)">
      <path id="Path_2409" data-name="Path 2409" d="M10.333,5.166a.469.469,0,0,0-.47-.47c-1.888,0-2.848-.225-3.425-.8s-.8-1.538-.8-3.425A.47.47,0,1,0,4.7.47c0,1.887-.225,2.848-.8,3.425S2.358,4.7.47,4.7a.47.47,0,1,0,0,.939c1.888,0,2.848.225,3.425.8s.8,1.538.8,3.425a.47.47,0,0,0,.939,0c0-1.887.225-2.848.8-3.425s1.537-.8,3.425-.8A.469.469,0,0,0,10.333,5.166Z" transform="translate(0 0)" fill="#fff"/>
      <path id="Path_2410" data-name="Path 2410" d="M.47,2.818c.654,0,1,.071,1.17.238s.239.517.239,1.171a.47.47,0,0,0,.939,0c0-.654.072-1,.239-1.171s.516-.238,1.17-.238a.47.47,0,0,0,0-.939c-.654,0-1-.071-1.17-.238S2.818,1.123,2.818.47a.47.47,0,0,0-.939,0c0,.654-.072,1-.239,1.171s-.516.238-1.17.238a.47.47,0,0,0,0,.939Z" transform="translate(9.393 0)" fill="#fff"/>
    </g>
  </g>
</svg>
