<svg xmlns="http://www.w3.org/2000/svg" width="23" height="24" viewBox="0 0 23 24">
  <g id="telegram" transform="translate(-1.263 -0.588)">
    <ellipse id="Ellipse_110" data-name="Ellipse 110" cx="11.5" cy="12" rx="11.5" ry="12" transform="translate(1.263 0.588)" fill="#039be5"/>
    <path id="Path_2587" data-name="Path 2587" d="M5.488,11.714l11.5-4.436c.534-.193,1,.13.827.938h0l-1.959,9.228c-.145.654-.534.813-1.078.505L11.8,15.75l-1.439,1.386a.752.752,0,0,1-.6.293l.212-3.036L15.5,9.4c.241-.212-.054-.331-.371-.12L8.3,13.581l-2.945-.919c-.639-.2-.653-.639.135-.948Z" transform="translate(0.444 0.474)" fill="#fff"/>
  </g>
</svg>
