<svg xmlns="http://www.w3.org/2000/svg" xmlns:xlink="http://www.w3.org/1999/xlink" width="37" height="37" viewBox="0 0 37 37">
  <defs>
    <clipPath id="clip-path">
      <rect id="Rectangle_1583" data-name="Rectangle 1583" width="33" height="33" transform="translate(-0.116 0.351)" fill="#fee7e2"/>
    </clipPath>
    <filter id="iconfinder_add_134224" x="12.785" y="13.003" width="14.181" height="14.181" filterUnits="userSpaceOnUse">
      <feOffset dx="1" dy="1" input="SourceAlpha"/>
      <feGaussianBlur stdDeviation="0.5" result="blur"/>
      <feFlood flood-opacity="0.6"/>
      <feComposite operator="in" in2="blur"/>
      <feComposite in="SourceGraphic"/>
    </filter>
  </defs>
  <g id="Group_2193" data-name="Group 2193" transform="translate(5.208 0.477)">
    <g id="Mask_Group_334" data-name="Mask Group 334" transform="translate(-3.092 1.172)" opacity="0.5" clip-path="url(#clip-path)">
      <g id="Course_thumbnail" data-name="Course thumbnail" transform="translate(-0.408 0.393)">
        <g id="Group_1018" data-name="Group 1018">
          <g id="Group_1017" data-name="Group 1017">
            <circle id="Ellipse_94" data-name="Ellipse 94" cx="3.339" cy="3.339" r="3.339" transform="translate(10.015 3.372)"/>
            <path id="Path_2491" data-name="Path 2491" d="M30.046,0H3.339A3.342,3.342,0,0,0,0,3.339V21.7a3.342,3.342,0,0,0,3.339,3.338H15.858v3.338h-.835a.834.834,0,0,0-.835.835v.835H2.5a.835.835,0,0,0,0,1.669H14.188v.835a.834.834,0,0,0,.835.835h3.339a.834.834,0,0,0,.835-.835v-.835H30.881a.835.835,0,1,0,0-1.669H19.2v-.835a.834.834,0,0,0-.835-.835h-.835V25.039H30.046A3.342,3.342,0,0,0,33.385,21.7V3.339A3.342,3.342,0,0,0,30.046,0Zm1.669,18.047L21.456,7.786a.834.834,0,0,0-.59-.245.66.66,0,0,0-.593.248l-5.541,5.6a.834.834,0,0,0,0,1.177l2.029,2.029a.834.834,0,0,1,0,1.18.856.856,0,0,1-1.18,0l-4.978-4.978a.834.834,0,0,0-1.18,0L1.669,20.55V3.339A1.671,1.671,0,0,1,3.338,1.669H30.046a1.671,1.671,0,0,1,1.669,1.669Z"/>
          </g>
        </g>
      </g>
    </g>
    <g id="Group_1083" data-name="Group 1083" transform="translate(-27 -0.477)">
      <g id="Group_2191" data-name="Group 2191">
        <rect id="Rectangle_1584" data-name="Rectangle 1584" width="37" height="37" rx="5" transform="translate(21.792 0)" opacity="0.6"/>
        <g transform="matrix(1, 0, 0, 1, 21.79, 0)" filter="url(#iconfinder_add_134224)">
          <path id="iconfinder_add_134224-2" data-name="iconfinder_add_134224" d="M12.011,6.62H8.161V2.77a.77.77,0,1,0-1.54,0V6.62H2.77a.77.77,0,1,0,0,1.54H6.62v3.85a.77.77,0,0,0,1.54,0V8.161h3.85a.77.77,0,0,0,0-1.54Z" transform="translate(11.48 11.7)" fill="#fff" stroke="#fff" stroke-width="0.4"/>
        </g>
      </g>
    </g>
  </g>
</svg>
