<svg id="Group_1137" data-name="Group 1137" xmlns="http://www.w3.org/2000/svg" width="27.107" height="19.226" viewBox="0 0 27.107 19.226">
  <ellipse id="Ellipse_25" data-name="Ellipse 25" cx="3.451" cy="3.451" rx="3.451" ry="3.451" transform="translate(3.418)" fill="#ff2c17"/>
  <path id="Path_2171" data-name="Path 2171" d="M11.616,95.835a3.8,3.8,0,0,1,.466-2.377v2.377h3.509l-.817-1.118.833-5.564h.016l.832,5.564-.817,1.118h3.509V93.465a3.8,3.8,0,0,1,.462,2.371h2.7c.31-4.141-3.085-6.228-4.4-7.035a1.453,1.453,0,0,0-.18-.087,4.01,4.01,0,0,0-1.256-.553l-.86.865-.833-.875-.008,0a3.979,3.979,0,0,0-1.28.562,1.245,1.245,0,0,0-.177.086c-1.315.807-4.711,2.894-4.4,7.035h2.7Z" transform="translate(-8.745 -81.058)" fill="#ff2c17"/>
  <ellipse id="Ellipse_26" data-name="Ellipse 26" cx="3.451" cy="3.451" rx="3.451" ry="3.451" transform="translate(16.853)" fill="#ff2c17"/>
  <path id="Path_2172" data-name="Path 2172" d="M46.425,95.835a3.8,3.8,0,0,1,.466-2.377v2.377H50.4l-.817-1.118.832-5.564h.016l.833,5.564-.817,1.118h3.509V93.465a3.8,3.8,0,0,1,.462,2.371h2.7c.31-4.141-3.085-6.228-4.4-7.035a1.457,1.457,0,0,0-.18-.087,4,4,0,0,0-1.256-.553l-.86.865-.833-.875-.008,0a3.979,3.979,0,0,0-1.281.562,1.262,1.262,0,0,0-.177.086c-1.315.807-4.71,2.894-4.4,7.035h2.7Z" transform="translate(-30.119 -81.058)" fill="#ff2c17"/>
  <rect id="Rectangle_1486" data-name="Rectangle 1486" width="27.108" height="3.374" transform="translate(0 15.851)" fill="#ff2c17"/>
</svg>
