<svg xmlns="http://www.w3.org/2000/svg" width="21.756" height="14.712" viewBox="0 0 21.756 14.712">
  <g id="video" transform="translate(0 -82.888)">
    <path id="Path_2688" data-name="Path 2688" d="M14.5,93.931A3.622,3.622,0,0,1,18.105,90.3a3.584,3.584,0,0,1,2.416.935V83.15a.263.263,0,0,0-.261-.262h-20A.263.263,0,0,0,0,83.15V96.321a.263.263,0,0,0,.261.262H15.648A3.625,3.625,0,0,1,14.5,93.931Z" transform="translate(0)" fill="#700000"/>
    <path id="Path_2689" data-name="Path 2689" d="M1.379,96.321V83.15a.263.263,0,0,1,.261-.262H.261A.263.263,0,0,0,0,83.15V96.321a.263.263,0,0,0,.261.262H1.64A.262.262,0,0,1,1.379,96.321Z" transform="translate(0 0)" fill="#700000"/>
    <path id="Path_2690" data-name="Path 2690" d="M113.465,93.932A3.63,3.63,0,0,1,115.1,90.9V82.889H103.36v13.7h11.256A3.625,3.625,0,0,1,113.465,93.932Z" transform="translate(-98.968 -0.001)" fill="#ff502f"/>
    <path id="Path_2691" data-name="Path 2691" d="M103.36,82.889h1.359v13.7H103.36Z" transform="translate(-98.968 -0.001)" fill="#ff502f"/>
    <path id="Path_2692" data-name="Path 2692" d="M186.925,176.451c0-.12.084-.168.188-.106l4.924,2.956a.121.121,0,0,1,0,.225l-4.924,2.955c-.1.062-.188.014-.188-.106Z" transform="translate(-178.982 -89.46)" fill="#fff"/>
    <path id="Path_2693" data-name="Path 2693" d="M188.284,177.048l-1.172-.7c-.1-.062-.188-.014-.188.106v5.924c0,.12.084.168.188.106l1.172-.7Z" transform="translate(-178.982 -89.46)" fill="#fff"/>
    <g id="Group_2059" data-name="Group 2059" transform="translate(1.51 84.539)">
      <path id="Path_2694" data-name="Path 2694" d="M36.986,123.045a.132.132,0,0,1-.131.131H35.672a.132.132,0,0,1-.131-.131v-1.183a.132.132,0,0,1,.131-.131h1.182a.132.132,0,0,1,.131.131Z" transform="translate(-35.541 -121.731)" fill="#fff"/>
      <path id="Path_2695" data-name="Path 2695" d="M36.986,193.143a.132.132,0,0,1-.131.131H35.672a.132.132,0,0,1-.131-.131V191.96a.132.132,0,0,1,.131-.131h1.182a.132.132,0,0,1,.131.131Z" transform="translate(-35.541 -188.85)" fill="#fff"/>
      <path id="Path_2696" data-name="Path 2696" d="M36.986,263.242a.132.132,0,0,1-.131.131H35.672a.132.132,0,0,1-.131-.131v-1.183a.132.132,0,0,1,.131-.131h1.182a.132.132,0,0,1,.131.131Z" transform="translate(-35.541 -255.971)" fill="#fff"/>
      <path id="Path_2697" data-name="Path 2697" d="M36.986,333.339a.132.132,0,0,1-.131.131H35.672a.132.132,0,0,1-.131-.131v-1.183a.132.132,0,0,1,.131-.131h1.182a.132.132,0,0,1,.131.131Z" transform="translate(-35.541 -323.089)" fill="#fff"/>
      <path id="Path_2698" data-name="Path 2698" d="M416.094,123.045a.132.132,0,0,1-.131.131H414.78a.132.132,0,0,1-.131-.131v-1.183a.132.132,0,0,1,.131-.131h1.182a.132.132,0,0,1,.131.131Z" transform="translate(-398.54 -121.731)" fill="#fff"/>
      <path id="Path_2699" data-name="Path 2699" d="M416.094,193.143a.132.132,0,0,1-.131.131H414.78a.132.132,0,0,1-.131-.131V191.96a.132.132,0,0,1,.131-.131h1.182a.132.132,0,0,1,.131.131Z" transform="translate(-398.54 -188.85)" fill="#fff"/>
    </g>
    <ellipse id="Ellipse_124" data-name="Ellipse 124" cx="3.651" cy="3.669" rx="3.651" ry="3.669" transform="translate(14.454 90.262)" fill="#00a86a"/>
    <path id="Path_2700" data-name="Path 2700" d="M341.529,260.092a3.665,3.665,0,0,1,2.966-3.6,3.669,3.669,0,1,0,0,7.207A3.665,3.665,0,0,1,341.529,260.092Z" transform="translate(-325.705 -166.161)" fill="#00a86a"/>
    <path id="Path_2701" data-name="Path 2701" d="M389.84,295.7a.175.175,0,0,1-.175-.175v-2.357h-.824a.175.175,0,0,1-.131-.292l1.415-1.585a.175.175,0,0,1,.261,0l1.415,1.585a.175.175,0,0,1-.131.292h-.824v2.357a.175.175,0,0,1-.175.175Z" transform="translate(-372.151 -199.488)" fill="#fff"/>
  </g>
</svg>
