<svg id="views" xmlns="http://www.w3.org/2000/svg" width="23.625" height="14.083" viewBox="0 0 23.625 14.083">
  <path id="Path_2492" data-name="Path 2492" d="M11.813,98.725c-4.514,0-8.607,2.47-11.628,6.481a.935.935,0,0,0,0,1.116c3.021,4.016,7.114,6.486,11.628,6.486s8.607-2.47,11.628-6.481a.935.935,0,0,0,0-1.116C20.42,101.195,16.327,98.725,11.813,98.725Zm.324,12a4.969,4.969,0,1,1,4.635-4.635A4.972,4.972,0,0,1,12.136,110.725Zm-.15-2.291a2.676,2.676,0,1,1,2.5-2.5A2.671,2.671,0,0,1,11.987,108.434Z" transform="translate(0 -98.725)" fill="#ff7b62"/>
</svg>
