<svg id="views" xmlns="http://www.w3.org/2000/svg" width="14.402" height="8.585" viewBox="0 0 14.402 8.585">
  <path id="Path_2492" data-name="Path 2492" d="M7.2,98.725a8.985,8.985,0,0,0-7.088,3.951.57.57,0,0,0,0,.681A8.98,8.98,0,0,0,7.2,107.31a8.985,8.985,0,0,0,7.089-3.951.57.57,0,0,0,0-.681A8.98,8.98,0,0,0,7.2,98.725Zm.2,7.315a3.029,3.029,0,1,1,2.825-2.825A3.031,3.031,0,0,1,7.4,106.04Zm-.091-1.4a1.631,1.631,0,1,1,1.523-1.523A1.628,1.628,0,0,1,7.307,104.644Z" transform="translate(0 -98.725)" fill="#00cd96"/>
</svg>
