<svg xmlns="http://www.w3.org/2000/svg" width="23.398" height="23.5" viewBox="0 0 23.398 23.5">
  <g id="whatsapp" transform="translate(0)">
    <path id="Path_2563" data-name="Path 2563" d="M.5,23.5a.5.5,0,0,1-.482-.632l1.528-5.579a11.653,11.653,0,1,1,10.2,6.018h-.005a11.676,11.676,0,0,1-5.392-1.324l-5.722,1.5A.5.5,0,0,1,.5,23.5Zm0,0" transform="translate(0)" fill="#e5e5e5"/>
    <path id="Path_2564" data-name="Path 2564" d="M10.895,33.394l1.582-5.777A11.153,11.153,0,1,1,22.14,33.2h0a11.143,11.143,0,0,1-5.329-1.357Zm6.186-3.569.339.2a9.257,9.257,0,0,0,4.718,1.292h0a9.268,9.268,0,1,0-7.852-4.343l.221.351-.937,3.419Zm0,0" transform="translate(-10.394 -10.394)" fill="#fff"/>
    <path id="Path_2565" data-name="Path 2565" d="M19.344,41.1l1.527-5.578A10.766,10.766,0,1,1,30.2,40.917h0a10.764,10.764,0,0,1-5.145-1.31Zm0,0" transform="translate(-18.456 -18.493)" fill="#64b161"/>
    <g id="Group_1289" data-name="Group 1289" transform="translate(0.5 0.5)">
      <path id="Path_2566" data-name="Path 2566" d="M10.895,33.394l1.582-5.777A11.153,11.153,0,1,1,22.14,33.2h0a11.143,11.143,0,0,1-5.329-1.357Zm6.186-3.569.339.2a9.257,9.257,0,0,0,4.718,1.292h0a9.268,9.268,0,1,0-7.852-4.343l.221.351-.937,3.419Zm0,0" transform="translate(-10.895 -10.895)" fill="#fff"/>
      <path id="Path_2567" data-name="Path 2567" d="M135.325,142.1c-.209-.464-.429-.473-.627-.481-.162-.007-.348-.007-.534-.007a1.024,1.024,0,0,0-.743.349,3.124,3.124,0,0,0-.976,2.324,5.42,5.42,0,0,0,1.138,2.882,11.438,11.438,0,0,0,4.76,4.206c2.354.928,2.833.744,3.344.7a2.814,2.814,0,0,0,1.881-1.325,2.327,2.327,0,0,0,.163-1.325c-.07-.116-.255-.186-.534-.325s-1.649-.814-1.9-.906-.441-.139-.627.14-.719.906-.882,1.092-.325.21-.6.07a7.62,7.62,0,0,1-2.241-1.383,8.4,8.4,0,0,1-1.55-1.93c-.162-.279,0-.416.122-.569a8.406,8.406,0,0,0,.7-.953.513.513,0,0,0-.023-.488C136.114,144.03,135.573,142.652,135.325,142.1Zm0,0" transform="translate(-126.866 -135.613)" fill="#fff" fill-rule="evenodd"/>
    </g>
  </g>
</svg>
