<svg xmlns="http://www.w3.org/2000/svg" width="14.162" height="14.164" viewBox="0 0 14.162 14.164">
  <g id="world" transform="translate(-0.004)">
    <g id="Group_1213" data-name="Group 1213" transform="translate(0.004)">
      <path id="Path_2517" data-name="Path 2517" d="M20.722,4.881l-.212.067-1.129.1-.319.509-.231-.073-.9-.81-.13-.421L17.629,3.8,17.064,3.3l-.666-.13-.015.3.652.637.319.376L17,4.673,16.7,4.587,16.266,4.4l.015-.353-.574-.236-.191.83-.579.131.057.463.754.145.13-.74.623.092.289.17h.464l.318.637.843.855-.062.332-.679-.087L16.5,7.236,15.655,8.25l-.11.449h-.3l-.565-.261-.549.261.137.579L14.5,9l.42-.013-.029.52.348.1.348.39.568-.16.648.1.753.2.376.044.638.724,1.23.724-.8,1.52-.84.39-.319.869-1.216.812L16.5,15.7a7.073,7.073,0,0,0,4.22-10.817Z" transform="translate(-7.759 -1.74)"/>
      <path id="Path_2518" data-name="Path 2518" d="M7.9,14.919l-.516-.956.473-.986-.473-.142L6.852,12.3l-1.178-.264-.391-.818V11.7H5.111L4.1,10.329V9.2l-.744-1.21L2.171,8.2h-.8l-.4-.262.511-.4L.976,7.65A7.072,7.072,0,0,0,7.085,18.3a7.414,7.414,0,0,0,.889-.062L7.9,17.381s.325-1.274.325-1.317S7.9,14.919,7.9,14.919Z" transform="translate(-0.004 -4.136)"/>
      <path id="Path_2519" data-name="Path 2519" d="M4.608,2.284l1.258-.175.58-.318.652.188L8.14,1.921,8.5,1.359l.521.086,1.265-.119.349-.384.491-.328.7.1L12.071.68A7.059,7.059,0,0,0,3.6,2.575h0ZM9.356.7l.723-.4.464.268-.672.512-.642.064L8.941.963ZM7.214.762,7.533.9,7.951.762l.228.395-.965.253L6.75,1.139S7.2.847,7.214.762Z" transform="translate(-1.977 0)"/>
    </g>
  </g>
</svg>
