<svg xmlns="http://www.w3.org/2000/svg" width="23.233" height="20.419" viewBox="0 0 23.233 20.419">
  <g id="portfolio" transform="translate(0 -31)">
    <path id="Path_2648" data-name="Path 2648" d="M160.529,33.042V34.4a.674.674,0,0,1-.681.681h-.681V33.042a.674.674,0,0,0-.681-.681h-5.445a.674.674,0,0,0-.681.681v2.042h-.681A.674.674,0,0,1,151,34.4V33.042A2.039,2.039,0,0,1,153.042,31h5.445A2.039,2.039,0,0,1,160.529,33.042Z" transform="translate(-144.148)" fill="#5a5a5a"/>
    <path id="Path_2649" data-name="Path 2649" d="M258.723,32.361H256V31h2.723a2.039,2.039,0,0,1,2.042,2.042V34.4a.674.674,0,0,1-.681.681H259.4V33.042A.674.674,0,0,0,258.723,32.361Z" transform="translate(-244.384)" fill="#444"/>
    <path id="Path_2650" data-name="Path 2650" d="M23.233,95.975v14.974a2.039,2.039,0,0,1-2.042,2.042H2.042A2.039,2.039,0,0,1,0,110.949V95.975A.668.668,0,0,1,.2,95.5l3.471,7.814H19.557L23.029,95.5A.669.669,0,0,1,23.233,95.975Z" transform="translate(0 -61.571)" fill="#5a5a5a"/>
    <path id="Path_2651" data-name="Path 2651" d="M267.616,95.975v14.974a2.039,2.039,0,0,1-2.042,2.042H256v-9.679h7.941l3.471-7.814A.669.669,0,0,1,267.616,95.975Z" transform="translate(-244.384 -61.571)" fill="#444"/>
    <path id="Path_2652" data-name="Path 2652" d="M27.325,91.2l-2.11,7.814a2.039,2.039,0,0,1-1.974,1.511H8.585a2.039,2.039,0,0,1-1.974-1.511L4.5,91.2a.668.668,0,0,1,.476-.2H26.849A.668.668,0,0,1,27.325,91.2Z" transform="translate(-4.297 -57.277)" fill="#6e6e6e"/>
    <path id="Path_2653" data-name="Path 2653" d="M267.412,91.2l-2.11,7.814a2.039,2.039,0,0,1-1.974,1.511H256V91h10.936A.668.668,0,0,1,267.412,91.2Z" transform="translate(-244.384 -57.277)" fill="#5a5a5a"/>
    <path id="Path_2654" data-name="Path 2654" d="M187.126,256h-5.445a.674.674,0,0,0-.681.681V259.4a.674.674,0,0,0,.681.681h5.445a.674.674,0,0,0,.681-.681v-2.723A.674.674,0,0,0,187.126,256Z" transform="translate(-172.787 -214.79)" fill="#ffd400"/>
    <path id="Path_2655" data-name="Path 2655" d="M259.4,256.681V259.4a.674.674,0,0,1-.681.681H256V256h2.723A.674.674,0,0,1,259.4,256.681Z" transform="translate(-244.384 -214.79)" fill="#fdbf00"/>
  </g>
</svg>
