<svg xmlns="http://www.w3.org/2000/svg" width="37.201" height="42.05" viewBox="0 0 37.201 42.05">
  <g id="contract" transform="translate(-29.524)">
    <g id="Group_1783" data-name="Group 1783" transform="translate(29.524 0)">
      <g id="Group_1779" data-name="Group 1779" transform="translate(0 0)">
        <g id="Group_1769" data-name="Group 1769">
          <g id="Group_1768" data-name="Group 1768">
            <g id="Group_1767" data-name="Group 1767">
              <g id="Group_1766" data-name="Group 1766">
                <g id="Group_1765" data-name="Group 1765">
                  <g id="Group_1764" data-name="Group 1764">
                    <g id="Group_1763" data-name="Group 1763">
                      <g id="Group_1762" data-name="Group 1762">
                        <g id="Group_1761" data-name="Group 1761">
                          <g id="Group_1760" data-name="Group 1760">
                            <path id="Path_2669" data-name="Path 2669" d="M54.358,36.594V7.015a2.657,2.657,0,0,1-2.074-2.592V.47A.315.315,0,0,0,52.1.183,1.98,1.98,0,0,0,51.274,0H32.139a2.615,2.615,0,0,0-2.615,2.615V36.3a2.615,2.615,0,0,0,2.615,2.615H53A2.656,2.656,0,0,0,54.358,36.594Z" transform="translate(-29.524 0)" fill="#515c6f"/>
                            <path id="Path_2670" data-name="Path 2670" d="M300.552,87.47a2.623,2.623,0,0,1-.573-.064v29.117a2.615,2.615,0,0,1-2.615,2.615h5.2a2.615,2.615,0,0,0,2.615-2.615V88.29a1.979,1.979,0,0,0-.178-.82Z" transform="translate(-275.366 -80.227)" fill="#64728b"/>
                            <path id="Path_2671" data-name="Path 2671" d="M311,8.657,304.92,2.575a1.982,1.982,0,0,0-.58-.4V6.622a2.615,2.615,0,0,0,2.615,2.615H311.4A1.979,1.979,0,0,0,311,8.657Z" transform="translate(-281.77 -1.995)" fill="#fc8086"/>
                          </g>
                        </g>
                      </g>
                    </g>
                  </g>
                </g>
              </g>
            </g>
          </g>
        </g>
        <g id="Group_1778" data-name="Group 1778" transform="translate(4.958 21.408)">
          <g id="Group_1776" data-name="Group 1776" transform="translate(1.45 1.702)">
            <g id="Group_1775" data-name="Group 1775">
              <g id="Group_1771" data-name="Group 1771">
                <g id="Group_1770" data-name="Group 1770">
                  <path id="Path_2672" data-name="Path 2672" d="M123.343,285.377l.478-.806-1.889-1.118c-1.246-.715-1.829-.848-2.954-.413l-1.226.474a2.609,2.609,0,0,1-2.271-.189l-3.28-1.934-4.659,7.864,4.2,2.479a2.609,2.609,0,0,1,.736.652l1.415,1.836a16.287,16.287,0,0,0,3.43,2.714l1.47.871a1.74,1.74,0,0,0,.966-1.927.345.345,0,0,1,.515-.364l.591.35a1.778,1.778,0,0,0,2.417-.562,1.746,1.746,0,0,0-.1-1.973.069.069,0,0,1,.09-.1l.719.429a1.747,1.747,0,0,0,2.32-2.509.081.081,0,0,1,.107-.117l.915.542a1.788,1.788,0,0,0,2.2-.27,2.119,2.119,0,0,0,.457-.818l-6.3-3.728a1.008,1.008,0,0,1-.353-1.381Z" transform="translate(-107.542 -281.391)" fill="#ff9680"/>
                </g>
                <path id="Path_2673" data-name="Path 2673" d="M256.488,392.782l-3.218-1.906a1.721,1.721,0,0,1-.43.773,1.78,1.78,0,0,1-2.011.365l-1.274-.755a.635.635,0,0,0-.647,1.092l.98.58a1.749,1.749,0,0,1-2.376,1.175l-1.04-.616a.635.635,0,1,0-.647,1.092l.972.576a1.744,1.744,0,0,1-.207.488,1.778,1.778,0,0,1-2.417.562l-.591-.35a.345.345,0,0,0-.515.364,1.741,1.741,0,0,1-1.024,1.953l4.1,2.431a1.533,1.533,0,0,0,2.1-.531,1.5,1.5,0,0,0-.541-2.031l1.654.98a1.533,1.533,0,0,0,2.1-.531,1.5,1.5,0,0,0-.541-2.031l1.091.647a1.533,1.533,0,0,0,2.1-.531,1.5,1.5,0,0,0-.541-2.031l1.343.8a1.533,1.533,0,0,0,2.1-.531,1.5,1.5,0,0,0-.541-2.031Z" transform="translate(-230.995 -381.884)" fill="#ff9680"/>
              </g>
              <path id="Path_2674" data-name="Path 2674" d="M283.7,290.747l-2.154-3.637-2.519,1.464a2.609,2.609,0,0,1-2.271.189l-1.382-.543a2.221,2.221,0,0,0-1.357-.086l-2.118.536a2.221,2.221,0,0,0-1.676,2.153v2.827a.725.725,0,0,0,.724.725,2.181,2.181,0,0,0,2.183-2.181v-.12l4.131,2.446Z" transform="translate(-256.865 -286.64)" fill="#ffe0c7"/>
              <g id="Group_1772" data-name="Group 1772" transform="translate(20.117 3.861)">
                <path id="Path_2675" data-name="Path 2675" d="M359.061,328.4l-6.576,3.854,5.215,3.088a2.61,2.61,0,0,1,.572-.459l3.439-2.01Z" transform="translate(-352.485 -328.398)" fill="#ffe0c7"/>
              </g>
              <g id="Group_1774" data-name="Group 1774" transform="translate(2.472 9.633)">
                <g id="Group_1773" data-name="Group 1773">
                  <path id="Path_2676" data-name="Path 2676" d="M141.215,401.062l-.85,1.184a1.5,1.5,0,0,1-2.437-1.75l.85-1.184a1.5,1.5,0,1,1,2.437,1.75Z" transform="translate(-137.646 -398.687)" fill="#ffe0c7"/>
                  <path id="Path_2677" data-name="Path 2677" d="M171.83,406.461l-1.788,2.49a1.5,1.5,0,0,1-2.437-1.75l1.788-2.49a1.5,1.5,0,0,1,2.437,1.75Z" transform="translate(-164.886 -403.643)" fill="#ffe0c7"/>
                  <path id="Path_2678" data-name="Path 2678" d="M201.508,427.767l-1.788,2.49a1.5,1.5,0,1,1-2.437-1.75l1.788-2.49a1.5,1.5,0,1,1,2.437,1.75Z" transform="translate(-192.126 -423.199)" fill="#ffe0c7"/>
                </g>
                <path id="Path_2679" data-name="Path 2679" d="M234.847,462.544l-.594.828a1.5,1.5,0,0,1-2.437-1.75l.595-.828a1.5,1.5,0,0,1,2.437,1.75Z" transform="translate(-223.823 -455.119)" fill="#ffe0c7"/>
              </g>
            </g>
          </g>
          <g id="Group_1777" data-name="Group 1777">
            <path id="Path_2680" data-name="Path 2680" d="M97.754,261.548l-1.314-.778a.761.761,0,0,0-1.042.267L90,270.155a.761.761,0,0,0,.267,1.042l1.314.778a1.855,1.855,0,0,0,2.541-.65l4.287-7.236A1.855,1.855,0,0,0,97.754,261.548Z" transform="translate(-89.889 -260.663)" fill="#082233"/>
            <path id="Path_2681" data-name="Path 2681" d="M377.863,260.77l-1.314.778a1.855,1.855,0,0,0-.65,2.541l4.287,7.236a1.855,1.855,0,0,0,2.541.65l1.314-.778a.761.761,0,0,0,.267-1.042l-5.4-9.119A.761.761,0,0,0,377.863,260.77Z" transform="translate(-352.171 -260.663)" fill="#082233"/>
          </g>
        </g>
      </g>
      <g id="Group_1780" data-name="Group 1780" transform="translate(3.894 11.03)">
        <path id="Path_2682" data-name="Path 2682" d="M98.328,135.571H77.573a.635.635,0,1,1,0-1.27H98.328a.635.635,0,0,1,0,1.27Z" transform="translate(-76.938 -134.301)" fill="#ddeafb"/>
      </g>
      <g id="Group_1781" data-name="Group 1781" transform="translate(3.894 6.608)">
        <path id="Path_2683" data-name="Path 2683" d="M87.95,81.723H77.573a.635.635,0,1,1,0-1.27H87.95a.635.635,0,0,1,0,1.27Z" transform="translate(-76.938 -80.453)" fill="#ddeafb"/>
      </g>
      <g id="Group_1782" data-name="Group 1782" transform="translate(3.894 14.949)">
        <path id="Path_2684" data-name="Path 2684" d="M98.328,183.284H77.573a.635.635,0,1,1,0-1.27H98.328a.635.635,0,0,1,0,1.27Z" transform="translate(-76.938 -182.014)" fill="#ddeafb"/>
      </g>
    </g>
  </g>
</svg>
