<svg xmlns="http://www.w3.org/2000/svg" width="19" height="16" viewBox="0 0 19 16">
  <g id="Group_1543" data-name="Group 1543" transform="translate(-173.016 -46)">
    <rect id="Rectangle_1805" data-name="Rectangle 1805" width="19" height="16" rx="3" transform="translate(173.016 46)" fill="#ff502f"/>
    <path id="back" d="M6.985,6.11v0a.87.87,0,0,0-.267-.628h0L1.479.241l0,0A.873.873,0,1,0,.3,1.535L4.879,6.11.244,10.745h0A.873.873,0,0,0,1.479,11.98h0L6.718,6.741h0a.87.87,0,0,0,.267-.628Z" transform="matrix(-0.017, 1, -1, -0.017, 188.777, 50.764)" fill="#fff"/>
  </g>
</svg>
