<svg xmlns="http://www.w3.org/2000/svg" width="30" height="25" viewBox="0 0 30 25">
  <g id="Group_1978" data-name="Group 1978" transform="translate(-15 -76)">
    <g id="Group_1855" data-name="Group 1855" transform="translate(1 -3)">
      <g id="Group_1976" data-name="Group 1976">
        <rect id="Rectangle_1807" data-name="Rectangle 1807" width="30" height="25" rx="4" transform="translate(14 79)" fill="#fff"/>
      </g>
      <g id="filter" transform="translate(20 75.907)">
        <g id="Group_138" data-name="Group 138" transform="translate(0.001 7.093)">
          <path id="Path_77" data-name="Path 77" d="M17.924,7.451a.683.683,0,0,0-.593-.358H.674a.667.667,0,0,0-.581.346.7.7,0,0,0,0,.692L5.761,18.239V24.4a.684.684,0,0,0,.671.692H10.9a.684.684,0,0,0,.671-.692V18.274L17.891,8.155A.717.717,0,0,0,17.924,7.451ZM10.345,17.7a.754.754,0,0,0-.112.381v5.631H7.1V18.055a.722.722,0,0,0-.089-.346L1.837,8.478H16.1Z" transform="translate(-0.001 -7.093)" stroke="#000" stroke-width="0.5"/>
        </g>
      </g>
    </g>
  </g>
</svg>
