<svg xmlns="http://www.w3.org/2000/svg" width="25.581" height="18.58" viewBox="0 0 25.581 18.58">
  <g id="miscellaneous_1_" data-name="miscellaneous (1)" transform="translate(0 -70.061)">
    <g id="Group_2128" data-name="Group 2128" transform="translate(7.847 70.082)">
      <g id="Group_2127" data-name="Group 2127" transform="translate(0 0)">
        <path id="Path_2718" data-name="Path 2718" d="M170.87,72.931a.529.529,0,0,1-.266.123,9.8,9.8,0,0,1-4.925-.592,6.838,6.838,0,0,0-2.083-.468,5.118,5.118,0,0,0-2.827,1.121c-.2.128-.385.253-.572.367l-2.778,2.778a1.248,1.248,0,0,0,.882,2.13h.426a1.235,1.235,0,0,0,.786-.277c.2-.166.438-.361.689-.571a15.1,15.1,0,0,1,3.207-2.315.521.521,0,0,1,.188-.034.532.532,0,0,1,.349.13l7.7,6.676,3.14-1.245V70.488Z" transform="translate(-157.053 -70.488)" fill="#fff"/>
      </g>
    </g>
    <g id="Group_2130" data-name="Group 2130" transform="translate(3.198 81.181)">
      <g id="Group_2129" data-name="Group 2129" transform="translate(0 0)">
        <path id="Path_2719" data-name="Path 2719" d="M65.623,292.632a1.04,1.04,0,0,0-.867.464l-.582.873a1.04,1.04,0,0,0-.175.578v.242a1.041,1.041,0,0,0,1.908.578l.582-.873a1.04,1.04,0,0,0,.175-.578v-.242A1.041,1.041,0,0,0,65.623,292.632Z" transform="translate(-64 -292.632)" fill="#fff"/>
      </g>
    </g>
    <g id="Group_2132" data-name="Group 2132" transform="translate(4.796 82.247)">
      <g id="Group_2131" data-name="Group 2131">
        <path id="Path_2720" data-name="Path 2720" d="M98.156,313.965H98.12a1.042,1.042,0,0,0-.834.417l-1.078,1.438a1.039,1.039,0,0,0-.209.625v.21a1.041,1.041,0,0,0,1.041,1.041h.036a1.042,1.042,0,0,0,.834-.417l1.078-1.438a1.038,1.038,0,0,0,.209-.625v-.21A1.041,1.041,0,0,0,98.156,313.965Z" transform="translate(-96 -313.965)" fill="#fff"/>
      </g>
    </g>
    <g id="Group_2134" data-name="Group 2134" transform="translate(6.928 83.313)">
      <g id="Group_2133" data-name="Group 2133">
        <path id="Path_2721" data-name="Path 2721" d="M140.823,335.3h-.036a1.042,1.042,0,0,0-.834.417l-1.078,1.438a1.039,1.039,0,0,0-.209.625v.21a1.041,1.041,0,0,0,1.041,1.041h.036a1.042,1.042,0,0,0,.834-.417l1.078-1.438a1.039,1.039,0,0,0,.209-.625v-.21A1.041,1.041,0,0,0,140.823,335.3Z" transform="translate(-138.667 -335.299)" fill="#fff"/>
      </g>
    </g>
    <g id="Group_2136" data-name="Group 2136" transform="translate(9.06 84.379)">
      <g id="Group_2135" data-name="Group 2135">
        <path id="Path_2722" data-name="Path 2722" d="M183.49,356.632h-.036a1.042,1.042,0,0,0-.834.417l-1.078,1.438a1.039,1.039,0,0,0-.209.625v.21a1.041,1.041,0,0,0,1.041,1.041h.036a1.042,1.042,0,0,0,.834-.417l1.078-1.438a1.04,1.04,0,0,0,.208-.625v-.21h0A1.041,1.041,0,0,0,183.49,356.632Z" transform="translate(-181.334 -356.632)" fill="#fff"/>
      </g>
    </g>
    <g id="Group_2138" data-name="Group 2138" transform="translate(12.216 86.738)">
      <g id="Group_2137" data-name="Group 2137" transform="translate(0 0)">
        <path id="Path_2723" data-name="Path 2723" d="M246.233,404.665l-.965-.822c-.032.05-.047.11-.082.158l-.685.914.717.665a.537.537,0,0,0,.766.013C246.25,405.327,246.356,404.818,246.233,404.665Z" transform="translate(-244.501 -403.843)" fill="#fff"/>
      </g>
    </g>
    <g id="Group_2140" data-name="Group 2140" transform="translate(0 70.061)">
      <g id="Group_2139" data-name="Group 2139">
        <path id="Path_2724" data-name="Path 2724" d="M22.063,82.745l-7.762-6.8a22.636,22.636,0,0,0-2.622,2c-.254.213-.491.411-.7.58a2.281,2.281,0,0,1-1.459.518H9.1A2.314,2.314,0,0,1,7.459,75.1l2.976-2.934c.152-.093.307-.194.464-.3a16.026,16.026,0,0,0-5.693-.031,3.732,3.732,0,0,1-2.986-.815L0,70.061V80.346L2.771,81.5l.3-.444a2.1,2.1,0,0,1,3.591.159,1.875,1.875,0,0,1,.257-.031,2.128,2.128,0,0,1,1.873,1.1,1.946,1.946,0,0,1,.259-.031,2.128,2.128,0,0,1,1.873,1.1,2.1,2.1,0,0,1,.259-.031h.037a2.11,2.11,0,0,1,2.107,2.107v.208l1.338,1.137s0,0,.005.005l.509.433a1.747,1.747,0,0,0,1.08.373.8.8,0,0,0,.511-1.411l-4.851-4.042a.533.533,0,1,1,.683-.818L18.591,86.3a.92.92,0,0,0,.586.211h.157A.919.919,0,0,0,19.94,84.9l-5.893-4.911a.534.534,0,0,1,.683-.82L20.6,84.068l.028.023.087.072a.924.924,0,0,0,.594.215h.143a.931.931,0,0,0,.606-1.634Z" transform="translate(0 -70.061)" fill="#fff"/>
      </g>
    </g>
  </g>
</svg>
