<svg xmlns="http://www.w3.org/2000/svg" width="35.342" height="25.402" viewBox="0 0 35.342 25.402">
  <g id="interview_1_" data-name="interview (1)" transform="translate(0 -72)">
    <path id="Path_2606" data-name="Path 2606" d="M305.843,202.1l-2.263-.647a.552.552,0,0,1-.4-.531V200h-3.313v.923a.552.552,0,0,1-.4.531l-2.263.647a1.657,1.657,0,0,0-1.2,1.593v6.8h8.836a2.209,2.209,0,0,0,2.209-2.209v-4.59A1.657,1.657,0,0,0,305.843,202.1Z" transform="translate(-275.568 -119.164)" fill="#e6af78"/>
    <path id="Path_2607" data-name="Path 2607" d="M305.843,224.774l-1.469-.42a3.307,3.307,0,0,1-5.7,0l-1.469.42a1.657,1.657,0,0,0-1.2,1.593v6.8h8.836a2.209,2.209,0,0,0,2.209-2.209v-4.59A1.657,1.657,0,0,0,305.843,224.774Z" transform="translate(-275.568 -141.837)" fill="#707487"/>
    <path id="Path_2608" data-name="Path 2608" d="M351.869,201.657a4.4,4.4,0,0,0,1.789-.381.547.547,0,0,1-.132-.353V200h-3.313v.923a.547.547,0,0,1-.133.353A4.4,4.4,0,0,0,351.869,201.657Z" transform="translate(-325.915 -119.164)" fill="#d29b6e"/>
    <path id="Path_2609" data-name="Path 2609" d="M320,89.657v.388a4.419,4.419,0,0,0,.227,1.4l.878,2.633h1.657V88h-1.1A1.657,1.657,0,0,0,320,89.657Z" transform="translate(-297.911 -14.896)" fill="#5a4146"/>
    <path id="Path_2610" data-name="Path 2610" d="M342.457,83.356l-.935,3.271L337.1,82.761a1.1,1.1,0,0,1-1.1-1.1h0A1.657,1.657,0,0,1,337.657,80h3.866a1.1,1.1,0,0,1,1.1,1.1v1.038A4.421,4.421,0,0,1,342.457,83.356Z" transform="translate(-312.807 -7.448)" fill="#694b4b"/>
    <path id="Path_2611" data-name="Path 2611" d="M331.313,126.165h0A3.313,3.313,0,0,1,328,122.852V122.2a1.1,1.1,0,0,1,.323-.781l1-1a1.091,1.091,0,0,1,.8-.325,6.422,6.422,0,0,1,4.182,1.268,1.09,1.09,0,0,1,.318.782v.7A3.313,3.313,0,0,1,331.313,126.165Z" transform="translate(-305.359 -44.778)" fill="#f0c087"/>
    <path id="Path_2612" data-name="Path 2612" d="M329.657,122.342a1.1,1.1,0,0,1,1.171-1.1,11.649,11.649,0,0,1,3.784.746,1.068,1.068,0,0,0-.3-.619,6.423,6.423,0,0,0-4.182-1.268h0a1.091,1.091,0,0,0-.8.325l-1,1a1.1,1.1,0,0,0-.324.781v.647a3.313,3.313,0,0,0,2.4,3.182,3.286,3.286,0,0,1-.739-2.077Z" transform="translate(-305.359 -44.778)" fill="#e6af78"/>
    <g id="Group_1329" data-name="Group 1329" transform="translate(20.432 83.582)">
      <path id="Path_2613" data-name="Path 2613" d="M298.21,242.377a1.657,1.657,0,0,0-.485-1.171l-1.422-1.421a1.65,1.65,0,0,0-.3.947v6.8h2.209v-5.153Z" transform="translate(-296.001 -239.784)" fill="#5b5d6e"/>
      <path id="Path_2614" data-name="Path 2614" d="M388.669,239.785l-1.422,1.421a1.657,1.657,0,0,0-.485,1.171v2.392a.552.552,0,0,1-.552.552H384v2.209h2.761a2.209,2.209,0,0,0,2.209-2.209v-4.59A1.65,1.65,0,0,0,388.669,239.785Z" transform="translate(-377.927 -239.785)" fill="#5b5d6e"/>
    </g>
    <g id="Group_1330" data-name="Group 1330" transform="translate(1.104 91.88)">
      <rect id="Rectangle_1664" data-name="Rectangle 1664" width="32" height="2" transform="translate(0.238 0.12)" fill="#e6af78"/>
      <path id="Path_2615" data-name="Path 2615" d="M16,360v4.97a.552.552,0,0,0,1.1,0V360Z" transform="translate(-16 -360)" fill="#e6af78"/>
      <path id="Path_2616" data-name="Path 2616" d="M480,360v4.97a.552.552,0,0,0,1.1,0V360Z" transform="translate(-447.971 -360)" fill="#e6af78"/>
    </g>
    <g id="Group_1331" data-name="Group 1331" transform="translate(0.853 92.189)">
      <rect id="Rectangle_1665" data-name="Rectangle 1665" width="1" height="2" transform="translate(0.489 -0.189)" fill="#d29b6e"/>
      <rect id="Rectangle_1666" data-name="Rectangle 1666" width="2" height="2" transform="translate(31.489 -0.189)" fill="#d29b6e"/>
    </g>
    <path id="Path_2617" data-name="Path 2617" d="M34.79,353.1H.552a.552.552,0,1,1,0-1.1H34.79a.552.552,0,1,1,0,1.1Z" transform="translate(0 -260.672)" fill="#f0c087"/>
    <path id="Path_2618" data-name="Path 2618" d="M376,336h2.761a.552.552,0,0,1,.552.552h0a.552.552,0,0,1-.552.552H376Z" transform="translate(-350.046 -245.777)" fill="#afb9d2"/>
    <path id="Path_2619" data-name="Path 2619" d="M280.552,272h6.627a.552.552,0,0,1,.552.552v4.418a.552.552,0,0,1-.552.552h-6.627a.552.552,0,0,1-.552-.552v-4.418A.552.552,0,0,1,280.552,272Z" transform="translate(-260.672 -186.194)" fill="#c7cfe2"/>
    <path id="Path_2620" data-name="Path 2620" d="M328.552,305.1h0a.552.552,0,0,1,0-1.1h0a.552.552,0,0,1,0,1.1Z" transform="translate(-305.359 -215.986)" fill="#fff"/>
    <path id="Path_2621" data-name="Path 2621" d="M81.843,209.866l-1.853-.529a1.1,1.1,0,0,1-.8-1.075l0-.261H75.866v.271a1.1,1.1,0,0,1-.8,1.062l-1.863.532a1.657,1.657,0,0,0-1.2,1.593v4.825a1.657,1.657,0,0,0,1.657,1.657h7.731a1.657,1.657,0,0,0,1.657-1.657v-4.825A1.657,1.657,0,0,0,81.843,209.866Z" transform="translate(-67.03 -126.612)" fill="#00c3ff"/>
    <g id="Group_1332" data-name="Group 1332" transform="translate(4.97 81.388)">
      <path id="Path_2622" data-name="Path 2622" d="M72.3,244.377a1.65,1.65,0,0,0-.3.947v4.825a1.657,1.657,0,0,0,1.657,1.657h.552v-5.522Z" transform="translate(-72 -241.866)" fill="#00aaf0"/>
      <path id="Path_2623" data-name="Path 2623" d="M201.907,244.377a1.65,1.65,0,0,1,.3.947v4.825a1.657,1.657,0,0,1-1.657,1.657H200v-5.522Z" transform="translate(-191.164 -241.866)" fill="#00aaf0"/>
      <path id="Path_2624" data-name="Path 2624" d="M116.223,209.657a13.872,13.872,0,0,0,2.653-.268l-.185-.053a1.1,1.1,0,0,1-.8-1.075l0-.261h-3.326v.271a1.1,1.1,0,0,1-.8,1.062l-.2.056A13.866,13.866,0,0,0,116.223,209.657Z" transform="translate(-110.701 -208)" fill="#00aaf0"/>
    </g>
    <path id="Path_2625" data-name="Path 2625" d="M87.281,81.94a13.61,13.61,0,0,0,4.434-.787.546.546,0,0,0,.333-.7,20.8,20.8,0,0,1-.9-4.544,3.866,3.866,0,1,0-7.731,0,20.8,20.8,0,0,1-.9,4.544.546.546,0,0,0,.333.7A13.611,13.611,0,0,0,87.281,81.94Z" transform="translate(-76.788)" fill="#694b4b"/>
    <path id="Path_2626" data-name="Path 2626" d="M96.552,395.313h0a.552.552,0,0,1-.552-.552V392h1.1v2.761A.552.552,0,0,1,96.552,395.313Z" transform="translate(-89.373 -297.911)" fill="#7f8499"/>
    <rect id="Rectangle_1667" data-name="Rectangle 1667" width="1" height="2" transform="translate(6.342 94)" fill="#707487"/>
    <path id="Path_2627" data-name="Path 2627" d="M192.552,395.313h0a.552.552,0,0,1-.552-.552V392h1.1v2.761A.552.552,0,0,1,192.552,395.313Z" transform="translate(-178.747 -297.911)" fill="#7f8499"/>
    <rect id="Rectangle_1668" data-name="Rectangle 1668" width="1" height="2" transform="translate(13.342 94)" fill="#707487"/>
    <path id="Path_2628" data-name="Path 2628" d="M102.074,264H97.657A1.657,1.657,0,0,0,96,265.657v7.179a.552.552,0,0,0,.552.552h6.627a.552.552,0,0,0,.552-.552v-7.179A1.657,1.657,0,0,0,102.074,264Z" transform="translate(-89.373 -178.747)" fill="#959cb5"/>
    <path id="Path_2629" data-name="Path 2629" d="M85.1,81.4a29.061,29.061,0,0,0,.778-5.049c.109-2,1.079-3.687,2.468-4.19A3.694,3.694,0,0,0,87.282,72a3.994,3.994,0,0,0-3.866,3.913,20.8,20.8,0,0,1-.9,4.544.546.546,0,0,0,.333.7,14.049,14.049,0,0,0,2.248.588A.74.74,0,0,1,85.1,81.4Z" transform="translate(-76.789 0)" fill="#5a4146"/>
  </g>
</svg>
