<svg xmlns="http://www.w3.org/2000/svg" width="39.148" height="31.597" viewBox="0 0 39.148 31.597">
  <g id="Group_1977" data-name="Group 1977" transform="translate(615.342 -956.403)">
    <g id="Page-1" transform="translate(-615.341 959)">
      <g id="_008---Live-Chat" data-name="008---Live-Chat" transform="translate(-0.002 0)">
        <path id="Shape" d="M27.307,12.095V25.157a1.062,1.062,0,0,1-1.012,1.1H2.011A1.062,1.062,0,0,1,1,25.157V5.1A1.062,1.062,0,0,1,2.011,4H16.177Z" transform="translate(-0.998 -1.976)" fill="#3abfe0"/>
        <path id="Shape-2" data-name="Shape" d="M27.307,16.047V29.11a1.062,1.062,0,0,1-1.012,1.1H2.011A1.062,1.062,0,0,1,1,29.11V28.027C13.6,24.835,19.227,17.727,21.742,12Z" transform="translate(-0.998 -5.929)" fill="#3abfe0"/>
        <path id="Shape-3" data-name="Shape" d="M25.612,47.012l1.518,3.035-5.565,1.012L16,50.047l1.518-3.035L21.672,46Z" transform="translate(-8.41 -22.728)" fill="#092c43"/>
        <rect id="Rectangle-path" width="17" height="2" rx="1" transform="translate(4.342 27)" fill="#294a60"/>
        <path id="Shape-4" data-name="Shape" d="M55.982,1.279V11.52c0,.706-.8,1.277-1.784,1.279H43.491l-7.37,3.7a1.325,1.325,0,0,1-1.022.047.72.72,0,0,1-.53-.629V12.8H32.784C31.8,12.8,31,12.225,31,11.52V1.279C31,.574,31.8,0,32.784,0H54.2c.984,0,1.781.574,1.784,1.279Z" transform="translate(-16.834 -2.597)" fill="#082233"/>
        <path id="Shape-5" data-name="Shape" d="M16.3,12.174c-.5-1.027-2.479-1.25-3.966-.293a3.6,3.6,0,0,1-4.4,0c-1.457-1.229-1-3.88-1-3.88,1.209,2.413,6.233-.1,8.246,1.1A2.957,2.957,0,0,1,16.3,12.174Z" transform="translate(-3.898 -3.953)" fill="#cb8252"/>
        <path id="Shape-6" data-name="Shape" d="M17.055,17.933a1.2,1.2,0,0,1-1.2,1.2,1.122,1.122,0,0,1-.228-.02,4.933,4.933,0,0,1-2.54,2.939,3.093,3.093,0,0,1-2.519,0,4.933,4.933,0,0,1-2.54-2.939,1.072,1.072,0,0,1-.223.02,1.207,1.207,0,0,1,0-2.413V15.075a3.6,3.6,0,0,0,4.4,0c1.492-.956,3.466-.734,3.966.293a6.34,6.34,0,0,1-.314,1.356,1.2,1.2,0,0,1,1.2,1.209Z" transform="translate(-3.764 -7.147)" fill="#fdd7ad"/>
        <path id="Shape-7" data-name="Shape" d="M17.023,31.762a2.024,2.024,0,1,1-4.047,0H12.95A2.063,2.063,0,0,0,13.7,29.47a3.093,3.093,0,0,0,2.519,0A2.1,2.1,0,0,0,17.023,31.762Z" transform="translate(-6.903 -14.561)" fill="#f9c795"/>
        <path id="Shape-8" data-name="Shape" d="M17.142,36.818v1.229H5V36.818A2.815,2.815,0,0,1,7.818,34H9.047a2.024,2.024,0,1,0,4.047,0h1.229a2.815,2.815,0,0,1,2.818,2.818Z" transform="translate(-2.976 -16.799)" fill="#ff5364"/>
        <path id="Shape-9" data-name="Shape" d="M9.506,41.024A.506.506,0,0,1,9,40.518V39.506a.506.506,0,0,1,1.012,0v1.012A.506.506,0,0,1,9.506,41.024Z" transform="translate(-4.952 -19.269)" fill="#df4d60"/>
        <path id="Shape-10" data-name="Shape" d="M23.506,41.024A.506.506,0,0,1,23,40.518V39.506a.506.506,0,0,1,1.012,0v1.012A.506.506,0,0,1,23.506,41.024Z" transform="translate(-11.869 -19.269)" fill="#df4d60"/>
        <path id="Shape-11" data-name="Shape" d="M27.307,42v1.933a1.062,1.062,0,0,1-1.012,1.1H2.011A1.062,1.062,0,0,1,1,43.933V42Z" transform="translate(-0.998 -20.752)" fill="#294a60"/>
      </g>
    </g>
    <text id="LIVE" transform="translate(-597 966)" fill="#ff502f" font-size="10" font-family="Rajdhani-Bold, Rajdhani" font-weight="700" letter-spacing="0.018em"><tspan x="0" y="0">LIVE</tspan></text>
  </g>
</svg>
