<svg xmlns="http://www.w3.org/2000/svg" width="19.319" height="17.5" viewBox="0 0 19.319 17.5"><g transform="translate(40.682 -0.001)"><path d="M293.407,241.5a4.2,4.2,0,1,0,4.2,4.2A4.208,4.208,0,0,0,293.407,241.5Zm1.212,4.769h-.646v.646a.566.566,0,1,1-1.132,0v-.646h-.646a.566.566,0,0,1,0-1.132h.646v-.646a.566.566,0,0,1,1.132,0v.646h.646a.566.566,0,1,1,0,1.132Zm0,0" transform="translate(-318.973 -232.406)" fill="#ff502f"/><path d="M52.4,8.908a4.2,4.2,0,1,0-4.2-4.2A4.208,4.208,0,0,0,52.4,8.908Zm0,0" transform="translate(-87.063 -0.5)" fill="#ff502f"/><path d="M11,222.623a6.073,6.073,0,0,0-1.586-1.587,5.325,5.325,0,0,1-6.777,0A6.021,6.021,0,0,0,0,226.011v2.122a2.084,2.084,0,0,0,2.081,2.082H9.962a2.072,2.072,0,0,0,1.332-.484,5.325,5.325,0,0,1-.3-7.108Zm0,0" transform="translate(-40.681 -212.713)" fill="#ff502f"/></g></svg>