<svg id="Alumni_main" data-name="Alumni main" xmlns="http://www.w3.org/2000/svg" width="18.444" height="24.089" viewBox="0 0 18.444 24.089">
  <g id="Group_849" data-name="Group 849" transform="translate(0 0)">
    <g id="Group_848" data-name="Group 848">
      <path id="Path_2432" data-name="Path 2432" d="M68.617,255.435a1.779,1.779,0,0,0-1.015-.866L64.838,253.3l-1.328-1.12L61.378,254.3h0l.921,6.154a.081.081,0,0,1-.015.06l-.963,1.317a.081.081,0,0,1-.131,0l-.962-1.317a.081.081,0,0,1-.015-.06l.921-6.154h0L59,252.177l-1.328,1.12-2.763,1.272a1.8,1.8,0,0,0-1.015.866s-3,7.151-1.375,7.151H69.992C71.621,262.586,68.617,255.435,68.617,255.435Z" transform="translate(-52.032 -238.497)" fill="#fdff78"/>
      <path id="Path_2433" data-name="Path 2433" d="M93.29,7.133a.154.154,0,0,0,.138-.171q-.046-.4-.093-.792l-.064-.553a.154.154,0,0,0-.167-.135h-.12l0-1.855L93.05,3.6l.209-.075a.446.446,0,0,0,0-.838L85.886.027a.445.445,0,0,0-.3,0L78.211,2.691a.446.446,0,0,0,0,.838l2.725.985a6.666,6.666,0,0,0-.272,2.077c.048,4.416,2.611,7.049,4.983,7.049,2.344,0,4.935-2.633,4.983-7.049a6.731,6.731,0,0,0-.255-2.02l1.982-.716,0,1.629h-.12a.154.154,0,0,0-.167.136l-.155,1.345a.154.154,0,0,0,.033.114.152.152,0,0,0,.1.056m-6.411,5.434c-2.069,0-3.5-2.424-3.786-4.848-.266-2.241,2.975-2.346,3.163-.956.058.427-.432.885-.377,1.061.274.871,4.816-2.842,4.785-.106C89.412,9.651,87.62,12.568,85.648,12.568Z" transform="translate(-76.513 0)" fill="#fdff78"/>
    </g>
  </g>
</svg>
