<svg id="download-on-the-app-store-apple-2" xmlns="http://www.w3.org/2000/svg" xmlns:xlink="http://www.w3.org/1999/xlink" width="93.764" height="27.781" viewBox="0 0 93.764 27.781">
  <defs>
    <linearGradient id="linear-gradient" x1="-0.474" y1="0.887" x2="-0.474" y2="1.082" gradientUnits="objectBoundingBox">
      <stop offset="0" stop-color="#1a1a1a" stop-opacity="0.102"/>
      <stop offset="0.123" stop-color="#212121" stop-opacity="0.153"/>
      <stop offset="0.308" stop-color="#353535" stop-opacity="0.227"/>
      <stop offset="0.532" stop-color="#575757" stop-opacity="0.318"/>
      <stop offset="0.783" stop-color="#858585" stop-opacity="0.42"/>
      <stop offset="1" stop-color="#b3b3b3" stop-opacity="0.51"/>
    </linearGradient>
  </defs>
  <path id="Path_2711" data-name="Path 2711" d="M90.478,27.781H3.287A3.285,3.285,0,0,1,0,24.5V3.285A3.285,3.285,0,0,1,3.287,0H90.478a3.285,3.285,0,0,1,3.287,3.285V24.5a3.285,3.285,0,0,1-3.287,3.285Z" transform="translate(0 0)" fill="#a6a6a6"/>
  <path id="Path_2712" data-name="Path 2712" d="M109.328,40.286a2.651,2.651,0,0,1-2.656,2.655H19.48a2.664,2.664,0,0,1-2.671-2.655V19.075A2.677,2.677,0,0,1,19.48,16.4h87.191a2.667,2.667,0,0,1,2.671,2.67Z" transform="translate(-16.179 -15.789)"/>
  <path id="Path_2713" data-name="Path 2713" d="M248.621,124.652a4.013,4.013,0,0,1,1.921-3.375,4.115,4.115,0,0,0-3.257-1.755c-1.366-.15-2.686.825-3.392.825s-1.786-.81-2.941-.78a4.358,4.358,0,0,0-3.647,2.22c-1.576,2.73-.405,6.735,1.111,8.925.75,1.08,1.636,2.28,2.791,2.235,1.126-.045,1.546-.72,2.911-.72s1.741.72,2.926.69c1.216-.015,1.981-1.08,2.7-2.175a8.841,8.841,0,0,0,1.231-2.52A3.9,3.9,0,0,1,248.621,124.652Zm-2.221-6.585a3.961,3.961,0,0,0,.9-2.835,4.08,4.08,0,0,0-2.611,1.35,3.767,3.767,0,0,0-.93,2.73A3.327,3.327,0,0,0,246.4,118.067Z" transform="translate(-227.686 -110.911)" fill="#fff"/>
  <path id="Path_2714" data-name="Path 2714" d="M1214.132,0h-46.7l18.293,27.781h28.408a3.285,3.285,0,0,0,3.287-3.285V3.285A3.285,3.285,0,0,0,1214.132,0Z" transform="translate(-1123.655 0)" fill="url(#linear-gradient)"/>
  <path id="Path_2715" data-name="Path 2715" d="M794.228,138.574h-1.576l-.871-2.715h-3l-.825,2.715h-1.531l2.971-9.24h1.846Zm-2.7-3.855-.78-2.415c-.09-.24-.24-.825-.465-1.74h-.03c-.09.39-.24.975-.435,1.74l-.765,2.415Zm10.34.435a3.769,3.769,0,0,1-.93,2.685,2.713,2.713,0,0,1-2.056.885,2.065,2.065,0,0,1-1.906-.945v3.5H795.5v-7.185c0-.705-.015-1.44-.06-2.19h1.306l.09,1.05h.03a2.633,2.633,0,0,1,4.217-.27A3.79,3.79,0,0,1,801.867,135.154Zm-1.5.06a2.812,2.812,0,0,0-.435-1.605,1.522,1.522,0,0,0-1.291-.66,1.55,1.55,0,0,0-.99.36,1.639,1.639,0,0,0-.585.96,2.348,2.348,0,0,0-.075.45v1.11a1.778,1.778,0,0,0,.45,1.23,1.5,1.5,0,0,0,1.156.5,1.517,1.517,0,0,0,1.306-.645A2.77,2.77,0,0,0,800.366,135.214Zm9.184-.06a3.768,3.768,0,0,1-.93,2.685,2.714,2.714,0,0,1-2.056.885,2.064,2.064,0,0,1-1.906-.945v3.5h-1.486v-7.185c0-.705-.015-1.44-.06-2.19h1.306l.09,1.05h.03a2.632,2.632,0,0,1,4.217-.27A3.8,3.8,0,0,1,809.55,135.154Zm-1.516.06a2.809,2.809,0,0,0-.435-1.605,1.521,1.521,0,0,0-1.291-.66,1.55,1.55,0,0,0-.99.36,1.637,1.637,0,0,0-.585.96,1.99,1.99,0,0,0-.075.45v1.11a1.777,1.777,0,0,0,.45,1.23,1.5,1.5,0,0,0,1.156.5,1.517,1.517,0,0,0,1.306-.645A2.768,2.768,0,0,0,808.035,135.214Zm10.085.765a2.454,2.454,0,0,1-.826,1.92,3.637,3.637,0,0,1-2.521.81,4.549,4.549,0,0,1-2.4-.57l.345-1.23a4.068,4.068,0,0,0,2.146.57,2.019,2.019,0,0,0,1.306-.375,1.217,1.217,0,0,0,.465-1.005,1.29,1.29,0,0,0-.39-.945,3.611,3.611,0,0,0-1.276-.72q-2.431-.9-2.431-2.655a2.312,2.312,0,0,1,.855-1.86,3.42,3.42,0,0,1,2.266-.72,4.591,4.591,0,0,1,2.1.435l-.375,1.2a3.635,3.635,0,0,0-1.771-.42,1.833,1.833,0,0,0-1.231.39,1.125,1.125,0,0,0-.375.84,1.1,1.1,0,0,0,.42.9,4.789,4.789,0,0,0,1.351.72,4.439,4.439,0,0,1,1.756,1.125A2.173,2.173,0,0,1,818.119,135.979Zm4.907-2.955h-1.636v3.24c0,.825.285,1.23.87,1.23a2.105,2.105,0,0,0,.66-.075l.045,1.125a3.433,3.433,0,0,1-1.155.165,1.753,1.753,0,0,1-1.366-.54,2.635,2.635,0,0,1-.5-1.8v-3.36h-.975V131.9h.975v-1.215l1.456-.435v1.665h1.636Zm7.353,2.16a3.662,3.662,0,0,1-.885,2.52,3.148,3.148,0,0,1-2.446,1.02,3.013,3.013,0,0,1-2.341-.975,3.525,3.525,0,0,1-.87-2.46,3.614,3.614,0,0,1,.9-2.535,3.113,3.113,0,0,1,2.416-.99,3.045,3.045,0,0,1,2.356.975A3.461,3.461,0,0,1,830.38,135.184Zm-1.531.03a3.064,3.064,0,0,0-.39-1.575,1.477,1.477,0,0,0-1.336-.8,1.505,1.505,0,0,0-1.366.8,3,3,0,0,0-.39,1.605,3.063,3.063,0,0,0,.39,1.575,1.525,1.525,0,0,0,2.686-.015A3.021,3.021,0,0,0,828.849,135.214Zm6.348-2.01a2.442,2.442,0,0,0-.465-.045,1.371,1.371,0,0,0-1.2.585,2.252,2.252,0,0,0-.375,1.32v3.5h-1.486V134c0-.705-.015-1.4-.045-2.1h1.291l.06,1.275h.045a2.231,2.231,0,0,1,.735-1.05,1.857,1.857,0,0,1,1.065-.36,2.924,2.924,0,0,1,.375.03Zm6.633,1.725a3.42,3.42,0,0,1-.06.675h-4.442a1.908,1.908,0,0,0,.645,1.515,2.174,2.174,0,0,0,1.456.465,4.934,4.934,0,0,0,1.8-.315l.225,1.02a5.669,5.669,0,0,1-2.236.4,3.191,3.191,0,0,1-2.431-.915,3.4,3.4,0,0,1-.885-2.445,3.763,3.763,0,0,1,.825-2.505,2.8,2.8,0,0,1,2.326-1.065,2.473,2.473,0,0,1,2.176,1.065,3.507,3.507,0,0,1,.6,2.1Zm-1.411-.39a2.016,2.016,0,0,0-.285-1.14,1.273,1.273,0,0,0-1.186-.615,1.412,1.412,0,0,0-1.185.6,2.245,2.245,0,0,0-.435,1.155Zm-52.06-8.475a7.435,7.435,0,0,1-1.065-.06v-4.47a8.911,8.911,0,0,1,1.261-.09c1.7,0,2.476.84,2.476,2.205C791.032,125.208,790.1,126.064,788.36,126.064Zm.24-4.05a3.315,3.315,0,0,0-.585.045v3.39a3.969,3.969,0,0,0,.5.015,1.6,1.6,0,0,0,1.741-1.815A1.477,1.477,0,0,0,788.6,122.013Zm4.862,4.08a1.557,1.557,0,0,1-1.576-1.68,1.592,1.592,0,0,1,1.636-1.725,1.542,1.542,0,0,1,1.576,1.68A1.608,1.608,0,0,1,793.463,126.094Zm.03-2.88c-.525,0-.87.5-.87,1.185s.345,1.17.855,1.17.855-.525.855-1.185C794.348,123.708,794,123.213,793.493,123.213Zm7.068-.465-1.02,3.27h-.675l-.42-1.425c-.1-.345-.2-.705-.27-1.065h-.015a6.519,6.519,0,0,1-.27,1.065l-.45,1.425h-.675l-.96-3.27h.75l.375,1.56c.09.375.165.72.225,1.05h.015c.06-.27.135-.615.27-1.05l.465-1.56h.6l.45,1.53q.158.563.27,1.08h.015a8.7,8.7,0,0,1,.225-1.08l.405-1.53Zm3.767,3.27h-.72v-1.875c0-.585-.225-.87-.66-.87a.76.76,0,0,0-.735.8v1.95h-.735v-2.34c0-.285,0-.6-.03-.93h.645l.03.51h.015a1.191,1.191,0,0,1,1.035-.57c.69,0,1.141.525,1.141,1.38Zm2.011,0H805.6v-4.785h.735Zm2.656.075a1.557,1.557,0,0,1-1.576-1.68,1.592,1.592,0,0,1,1.636-1.725,1.542,1.542,0,0,1,1.576,1.68A1.608,1.608,0,0,1,808.995,126.094Zm.03-2.88c-.525,0-.87.5-.87,1.185s.345,1.17.855,1.17.855-.525.855-1.185S809.535,123.213,809.025,123.213Zm4.472,2.805-.06-.375h-.015a1.123,1.123,0,0,1-.961.45.95.95,0,0,1-1.005-.96c0-.81.705-1.23,1.921-1.23v-.06c0-.435-.225-.645-.675-.645a1.5,1.5,0,0,0-.855.24l-.15-.48a2.024,2.024,0,0,1,1.125-.285c.855,0,1.291.45,1.291,1.35v1.2a5.338,5.338,0,0,0,.045.78Zm-.105-1.635c-.81,0-1.216.2-1.216.66a.461.461,0,0,0,.5.51.7.7,0,0,0,.72-.66Zm4.247,1.635-.03-.525h-.015a1.105,1.105,0,0,1-1.05.6,1.488,1.488,0,0,1-1.381-1.665,1.548,1.548,0,0,1,1.441-1.74,1,1,0,0,1,.93.45h.015v-1.905h.735v3.9c0,.315.015.615.03.885Zm-.1-1.92a.791.791,0,0,0-.765-.855c-.54,0-.87.48-.87,1.155s.345,1.11.855,1.11a.816.816,0,0,0,.78-.87Zm5.357,2a1.557,1.557,0,0,1-1.576-1.68,1.592,1.592,0,0,1,1.636-1.725,1.542,1.542,0,0,1,1.576,1.68A1.608,1.608,0,0,1,822.891,126.094Zm.03-2.88c-.525,0-.855.5-.855,1.185s.345,1.17.855,1.17.855-.525.855-1.185C823.762,123.708,823.432,123.213,822.921,123.213Zm5.523,2.805h-.735v-1.875c0-.585-.225-.87-.66-.87a.748.748,0,0,0-.72.8v1.95h-.735v-2.34c0-.285,0-.6-.03-.93h.645l.03.51h.015a1.192,1.192,0,0,1,1.035-.57c.69,0,1.141.525,1.141,1.38v1.95Zm4.892-2.73h-.8v1.59c0,.4.135.6.42.6a1.91,1.91,0,0,0,.33-.03l.015.555a1.5,1.5,0,0,1-.57.075c-.57,0-.915-.315-.915-1.14v-1.65h-.48v-.54h.48v-.6l.72-.21v.81h.8Zm3.857,2.73h-.72v-1.86c0-.585-.225-.885-.66-.885a.721.721,0,0,0-.735.78v1.98h-.72v-4.8h.72V123.2h.015a1.1,1.1,0,0,1,.99-.54c.69,0,1.11.54,1.11,1.4Zm3.947-1.455h-2.191a.946.946,0,0,0,1.035.975,2.736,2.736,0,0,0,.885-.15l.12.51a2.748,2.748,0,0,1-1.1.2,1.525,1.525,0,0,1-1.636-1.65,1.592,1.592,0,0,1,1.546-1.755,1.375,1.375,0,0,1,1.365,1.56A1.237,1.237,0,0,1,841.14,124.563Zm-.66-.525c0-.51-.255-.87-.72-.87a.859.859,0,0,0-.8.87Z" transform="translate(-756.936 -116.688)" fill="#fff"/>
</svg>
