<svg xmlns="http://www.w3.org/2000/svg" width="50.001" height="50.001" viewBox="0 0 50.001 50.001">
  <g id="Group_1414" data-name="Group 1414" transform="translate(-155 -112)">
    <g id="image" transform="translate(155.001 112)">
      <path id="Path_2607" data-name="Path 2607" d="M50,13.535V36.466A13.551,13.551,0,0,1,36.465,50H13.534A13.551,13.551,0,0,1,0,36.466V13.535A13.551,13.551,0,0,1,13.534,0H36.465A13.551,13.551,0,0,1,50,13.535Zm0,0" transform="translate(0)" fill="#0bd0ee"/>
      <path id="Path_2608" data-name="Path 2608" d="M281,13.536V36.467A13.551,13.551,0,0,1,267.465,50H256V0h11.465A13.551,13.551,0,0,1,281,13.536Zm0,0" transform="translate(-231.001 -0.001)" fill="#2fbbf0"/>
      <path id="Path_2609" data-name="Path 2609" d="M50,165.688V176.68a13.551,13.551,0,0,1-13.535,13.535H13.534A13.551,13.551,0,0,1,0,176.68v-4.112H2.93l6.422-5.912a3.58,3.58,0,0,1,4.817,0l6.434,5.906a.628.628,0,0,0,.932-.093l2.909-4L25,167.7l7.887-10.847a3.559,3.559,0,0,1,5.46-.356l8.722,9.19Zm0,0" transform="translate(0 -140.214)" fill="#fe7b62"/>
      <path id="Path_2610" data-name="Path 2610" d="M95.31,97.041c-.112,0-.224,0-.337-.011a5.151,5.151,0,0,1,.337-10.291c.111,0,.224,0,.337.011a5.151,5.151,0,0,1-.337,10.291Zm0,0" transform="translate(-81.355 -78.268)" fill="#fdff78"/>
      <path id="Path_2611" data-name="Path 2611" d="M281,165.689V176.68a13.551,13.551,0,0,1-13.535,13.535H256V167.7l7.887-10.847a3.559,3.559,0,0,1,5.46-.356l8.722,9.19Zm0,0" transform="translate(-231.001 -140.215)" fill="#ff502f"/>
    </g>
    <g id="image-2" data-name="image" transform="translate(155.001 112)" opacity="0.52">
      <path id="Path_2607-2" data-name="Path 2607" d="M50,13.535V36.466A13.551,13.551,0,0,1,36.465,50H13.534A13.551,13.551,0,0,1,0,36.466V13.535A13.551,13.551,0,0,1,13.534,0H36.465A13.551,13.551,0,0,1,50,13.535Zm0,0" transform="translate(0)"/>
      <path id="Path_2608-2" data-name="Path 2608" d="M281,13.536V36.467A13.551,13.551,0,0,1,267.465,50H256V0h11.465A13.551,13.551,0,0,1,281,13.536Zm0,0" transform="translate(-231.001 -0.001)"/>
      <path id="Path_2609-2" data-name="Path 2609" d="M50,165.688V176.68a13.551,13.551,0,0,1-13.535,13.535H13.534A13.551,13.551,0,0,1,0,176.68v-4.112H2.93l6.422-5.912a3.58,3.58,0,0,1,4.817,0l6.434,5.906a.628.628,0,0,0,.932-.093l2.909-4L25,167.7l7.887-10.847a3.559,3.559,0,0,1,5.46-.356l8.722,9.19Zm0,0" transform="translate(0 -140.214)"/>
      <path id="Path_2610-2" data-name="Path 2610" d="M95.31,97.041c-.112,0-.224,0-.337-.011a5.151,5.151,0,0,1,.337-10.291c.111,0,.224,0,.337.011a5.151,5.151,0,0,1-.337,10.291Zm0,0" transform="translate(-81.355 -78.268)"/>
      <path id="Path_2611-2" data-name="Path 2611" d="M281,165.689V176.68a13.551,13.551,0,0,1-13.535,13.535H256V167.7l7.887-10.847a3.559,3.559,0,0,1,5.46-.356l8.722,9.19Zm0,0" transform="translate(-231.001 -140.215)"/>
    </g>
    <g id="plus-black-symbol" transform="translate(174.993 132)">
      <path id="Path_2612" data-name="Path 2612" d="M10.781,4.219A.724.724,0,0,0,10.25,4H7V.75A.724.724,0,0,0,6.781.219.723.723,0,0,0,6.25,0H4.75a.723.723,0,0,0-.531.219A.723.723,0,0,0,4,.75V4H.75a.723.723,0,0,0-.531.219A.723.723,0,0,0,0,4.75v1.5a.723.723,0,0,0,.219.531A.723.723,0,0,0,.75,7H4v3.25a.747.747,0,0,0,.75.75h1.5A.747.747,0,0,0,7,10.25V7h3.25A.747.747,0,0,0,11,6.25V4.75A.723.723,0,0,0,10.781,4.219Z" transform="translate(0 0)" fill="#fff"/>
    </g>
  </g>
</svg>
