<svg id="Capa_1" enable-background="new 0 0 512 512" height="512" viewBox="0 0 512 512" width="512" xmlns="http://www.w3.org/2000/svg"><g><g><g><path d="m437.262 167.721v189.327c0 10.04-5.713 19.229-14.745 23.597-23.209 11.216-75.288 29.699-166.517 29.699s-143.308-18.483-166.517-29.699c-9.032-4.368-14.745-13.557-14.745-23.597v-189.327z" fill="#44433f"/><path d="m437.262 167.721v78.812l-170.508 87.701c-6.753 3.476-14.755 3.476-21.508 0l-170.507-87.701v-78.812z" fill="#353433"/><g><path d="m437.262 167.721v189.327c0 10.04-5.713 19.229-14.745 23.597-23.209 11.216-75.288 29.699-166.517 29.699-17.17 0-32.965-.651-47.426-1.786 98.812-13.159 175.034-97.782 175.034-200.196 0-13.925-1.407-27.515-4.096-40.642h57.75z" fill="#353433"/><path d="m437.26 321.427v35.62c0 10.04-5.71 19.23-14.74 23.6-23.21 11.21-75.29 29.7-166.52 29.7s-143.31-18.49-166.52-29.7c-9.03-4.37-14.74-13.56-14.74-23.6v-35.62c0 10.04 5.71 19.23 14.74 23.6 23.21 11.21 75.29 29.7 166.52 29.7s143.31-18.49 166.52-29.7c9.03-4.37 14.74-13.56 14.74-23.6z" fill="#ffaf40"/></g></g><path d="m437.26 321.427v35.62c0 10.04-5.71 19.23-14.74 23.6-23.21 11.21-75.29 29.7-166.52 29.7-17.17 0-32.95-.65-47.41-1.79 33.08-4.41 63.63-16.83 89.64-35.25 65.49-4.521 104.93-18.93 124.29-28.28 9.03-4.37 14.74-13.56 14.74-23.6z" fill="#ff993a"/></g><g><path d="m245.76 41.085-239.686 123.278c-8.099 4.166-8.099 15.744 0 19.91l239.686 123.278c6.427 3.305 14.054 3.305 20.481 0l239.685-123.278c8.099-4.166 8.099-15.744 0-19.91l-239.686-123.278c-6.426-3.305-14.053-3.306-20.48 0z" fill="#706c64"/><g><path d="m287.64 179.536-142.33 72.65c-1.17.6-2.31 1.25-3.42 1.94l-24.45-12.58c4.84-4.57 10.37-8.5 16.51-11.63l142.33-72.65c6.15-3.13 13.67-.69 16.81 5.46 3.14 6.151.7 13.681-5.45 16.81z" fill="#595751"/></g><path d="m505.93 184.269-239.69 123.28c-6.43 3.31-14.05 3.31-20.48 0l-73.16-37.63c18.12 2.56 37.11 3.14 56.57 1.48 101.85-8.67 180.76-75.52 186.21-153.61l90.55 46.57c8.09 4.17 8.09 15.75 0 19.91z" fill="#595751"/><path d="m91.819 158.969c7.628 6.667 18.563 7.975 27.572 3.341 27.496-14.143 86.32-44.39 115.355-59.319 9.989-5.136 15.261-16.352 12.859-27.324-3.531-16.127-21.382-24.532-36.062-16.981l-115.195 59.249c-15.511 7.978-18.158 29.105-5.033 40.593z" fill="#8f8b81"/><path d="m155.554 87.483-23.27 11.968c-13.234 6.807-17.508 23.666-9.122 35.961.095.139.189.277.284.416 7.036 10.317 20.657 13.773 31.762 8.062 7.527-3.871 15.409-7.924 23.286-11.974 13.538-6.961 17.69-24.412 8.638-36.652-.101-.136-.202-.273-.302-.409-7.228-9.787-20.455-12.937-31.276-7.372z" fill="#b5b1a4"/></g><g><path d="m107.868 384.266c-6.903 0-12.5-5.597-12.5-12.5v-99.477c0-26.718 14.785-50.858 38.586-62.999l108.548-55.368c6.15-3.138 13.677-.694 16.815 5.455 3.137 6.149.694 13.678-5.456 16.814l-108.547 55.369c-15.387 7.85-24.946 23.456-24.946 40.729v99.477c0 6.903-5.596 12.5-12.5 12.5z" fill="#ffc751"/></g><g><path d="m259.317 159.377c-3.138-6.149-10.665-8.593-16.815-5.455l-40.561 20.689c-7.076 3.609-8.972 12.86-3.873 18.95.055.066.11.131.165.197 3.708 4.429 9.973 5.722 15.119 3.098l40.51-20.664c6.149-3.137 8.592-10.665 5.455-16.815z" fill="#ffaf40"/></g><g><path d="m161.789 207.528-.134-.197c-3.514-5.163-10.32-6.906-15.884-4.068l-11.816 6.027c-23.68 12.079-38.587 36.417-38.587 63v2.705c0 6.904 5.596 12.5 12.5 12.5 6.904 0 12.5-5.596 12.5-12.5v-2.705c0-17.186 9.637-32.92 24.946-40.73l11.871-6.055c6.634-3.385 8.794-11.821 4.604-17.977z" fill="#ffe059"/></g><g><path d="m121.26 217.59c-7.089 5.811-12.934 12.913-17.265 20.861-3.769 6.918-.211 15.533 7.338 17.786.08.024.16.048.239.072 5.576 1.667 11.565-.802 14.346-5.914 2.817-5.176 6.634-9.789 11.284-13.562 4.481-3.637 5.718-9.966 3.096-15.107l-.123-.241c-3.6-7.059-12.788-8.918-18.915-3.895z" fill="#fff370"/></g><g><ellipse cx="256" cy="164.824" fill="#595751" rx="43.532" ry="27.292"/><path d="m299.535 164.82c0 15.079-19.494 27.291-43.535 27.291-21.936 0-40.094-10.171-43.101-23.41 7.077 3.12 15.706 4.946 25.007 4.946 24.041 0 43.535-12.225 43.535-27.291 0-1.319-.152-2.613-.434-3.881 11.201 4.946 18.528 13.113 18.528 22.345z" fill="#44433f"/></g><g><path d="m92.587 332.622-20.084 93.777c-1.624 7.585 1.281 15.416 7.454 20.113 12.025 9.149 34.198 22.953 62.375 26.788 7.403 1.007 13.193-6.309 10.638-13.33-9.621-26.443-28.478-84.122-27.396-127.347h-32.987z" fill="#ffe059"/><path d="m142.33 473.302c-20.6-2.81-38-10.94-50.56-18.69 16.22-20.93 25.88-47.21 25.88-75.74 0-16.35-3.17-31.96-8.94-46.25h16.87c-1.09 43.22 17.77 100.9 27.39 127.35 2.56 7.02-3.23 14.33-10.64 13.33z" fill="#ffc751"/><circle cx="109.496" cy="319.057" fill="#f97c15" r="23.919"/><path d="m133.42 319.062c0 13.21-10.71 23.91-23.92 23.91-8.92 0-16.7-4.88-20.8-12.12 4.86 2.82 10.8 3.75 16.63 2.11 11.44-3.21 18.11-15.1 14.9-26.54-1.27-4.54-3.91-8.32-7.34-11.04 11.61 1.65 20.53 11.61 20.53 23.68z" fill="#e86300"/></g></g></svg>