<svg xmlns="http://www.w3.org/2000/svg" width="21.329" height="24.11" viewBox="0 0 21.329 24.11">
  <g id="contract" transform="translate(-29.524 0)">
    <g id="Group_1783" data-name="Group 1783" transform="translate(29.524 0)">
      <g id="Group_1779" data-name="Group 1779" transform="translate(0 0)">
        <g id="Group_1769" data-name="Group 1769">
          <g id="Group_1768" data-name="Group 1768">
            <g id="Group_1767" data-name="Group 1767">
              <g id="Group_1766" data-name="Group 1766">
                <g id="Group_1765" data-name="Group 1765">
                  <g id="Group_1764" data-name="Group 1764">
                    <g id="Group_1763" data-name="Group 1763">
                      <g id="Group_1762" data-name="Group 1762">
                        <g id="Group_1761" data-name="Group 1761">
                          <g id="Group_1760" data-name="Group 1760">
                            <path id="Path_2669" data-name="Path 2669" d="M43.763,20.982V4.022a1.524,1.524,0,0,1-1.189-1.486V.269a.18.18,0,0,0-.1-.165,1.135,1.135,0,0,0-.476-.1H31.023a1.5,1.5,0,0,0-1.5,1.5V20.81a1.5,1.5,0,0,0,1.5,1.5H42.986A1.523,1.523,0,0,0,43.763,20.982Z" transform="translate(-29.524 0)" fill="#515c6f"/>
                            <path id="Path_2670" data-name="Path 2670" d="M299.192,87.443a1.5,1.5,0,0,1-.328-.037V104.1a1.5,1.5,0,0,1-1.5,1.5h2.982a1.5,1.5,0,0,0,1.5-1.5V87.913a1.134,1.134,0,0,0-.1-.47Z" transform="translate(-284.752 -83.29)" fill="#64728b"/>
                            <path id="Path_2671" data-name="Path 2671" d="M308.16,5.89,304.673,2.4a1.137,1.137,0,0,0-.333-.23V4.724a1.5,1.5,0,0,0,1.5,1.5h2.551A1.136,1.136,0,0,0,308.16,5.89Z" transform="translate(-291.399 -2.071)" fill="#fc8086"/>
                          </g>
                        </g>
                      </g>
                    </g>
                  </g>
                </g>
              </g>
            </g>
          </g>
        </g>
        <g id="Group_1778" data-name="Group 1778" transform="translate(2.843 12.275)">
          <g id="Group_1776" data-name="Group 1776" transform="translate(0.831 0.976)">
            <g id="Group_1775" data-name="Group 1775">
              <g id="Group_1771" data-name="Group 1771">
                <g id="Group_1770" data-name="Group 1770">
                  <path id="Path_2672" data-name="Path 2672" d="M116.6,283.677l.274-.462-1.083-.641a1.629,1.629,0,0,0-1.694-.237l-.7.272a1.5,1.5,0,0,1-1.3-.108l-1.881-1.109-2.671,4.509,2.408,1.421a1.5,1.5,0,0,1,.422.374l.812,1.052a9.338,9.338,0,0,0,1.967,1.556l.843.5a1,1,0,0,0,.554-1.105.2.2,0,0,1,.3-.209l.339.2a1.019,1.019,0,0,0,1.386-.322,1,1,0,0,0-.055-1.131.04.04,0,0,1,.052-.058l.412.246a1,1,0,0,0,1.33-1.438.046.046,0,0,1,.061-.067l.525.311a1.025,1.025,0,0,0,1.259-.155,1.215,1.215,0,0,0,.262-.469l-3.609-2.137a.578.578,0,0,1-.2-.792Z" transform="translate(-107.542 -281.391)" fill="#ff9680"/>
                </g>
                <path id="Path_2673" data-name="Path 2673" d="M250.324,391.969l-1.845-1.093a.987.987,0,0,1-.247.443,1.02,1.02,0,0,1-1.153.209l-.731-.433a.364.364,0,0,0-.371.626l.562.333a1,1,0,0,1-1.362.674l-.6-.353a.364.364,0,1,0-.371.626l.558.33a1,1,0,0,1-.119.28,1.019,1.019,0,0,1-1.386.322l-.339-.2a.2.2,0,0,0-.3.209,1,1,0,0,1-.587,1.12l2.353,1.394a.879.879,0,0,0,1.206-.3.861.861,0,0,0-.31-1.165l.948.562a.879.879,0,0,0,1.206-.3.86.86,0,0,0-.31-1.165l.626.371a.879.879,0,0,0,1.207-.3.86.86,0,0,0-.31-1.165l.77.456a.879.879,0,0,0,1.206-.3.86.86,0,0,0-.31-1.164Z" transform="translate(-235.708 -385.72)" fill="#ff9680"/>
              </g>
              <path id="Path_2674" data-name="Path 2674" d="M277.954,289.2l-1.235-2.085-1.444.84a1.5,1.5,0,0,1-1.3.108l-.793-.311a1.273,1.273,0,0,0-.778-.049l-1.214.307a1.274,1.274,0,0,0-.961,1.235v1.621a.416.416,0,0,0,.415.416,1.251,1.251,0,0,0,1.251-1.251v-.069l2.368,1.4Z" transform="translate(-262.565 -286.841)" fill="#ffe0c7"/>
              <g id="Group_1772" data-name="Group 1772" transform="translate(11.534 2.214)">
                <path id="Path_2675" data-name="Path 2675" d="M356.256,328.4l-3.771,2.209,2.99,1.771a1.5,1.5,0,0,1,.328-.263l1.972-1.152Z" transform="translate(-352.485 -328.398)" fill="#ffe0c7"/>
              </g>
              <g id="Group_1774" data-name="Group 1774" transform="translate(1.418 5.523)">
                <g id="Group_1773" data-name="Group 1773">
                  <path id="Path_2676" data-name="Path 2676" d="M139.692,400.049l-.487.679a.86.86,0,0,1-1.4-1l.487-.679a.86.86,0,0,1,1.4,1Z" transform="translate(-137.646 -398.687)" fill="#ffe0c7"/>
                  <path id="Path_2677" data-name="Path 2677" d="M169.907,405.448l-1.025,1.428a.86.86,0,0,1-1.4-1l1.025-1.428a.86.86,0,0,1,1.4,1Z" transform="translate(-165.926 -403.832)" fill="#ffe0c7"/>
                  <path id="Path_2678" data-name="Path 2678" d="M199.585,426.754l-1.025,1.428a.86.86,0,1,1-1.4-1l1.025-1.428a.86.86,0,0,1,1.4,1Z" transform="translate(-194.206 -424.134)" fill="#ffe0c7"/>
                </g>
                <path id="Path_2679" data-name="Path 2679" d="M233.434,461.531l-.341.475a.86.86,0,0,1-1.4-1l.341-.475a.86.86,0,0,1,1.4,1Z" transform="translate(-227.113 -457.274)" fill="#ffe0c7"/>
              </g>
            </g>
          </g>
          <g id="Group_1777" data-name="Group 1777">
            <path id="Path_2680" data-name="Path 2680" d="M94.4,261.171l-.753-.446a.436.436,0,0,0-.6.153l-3.1,5.228a.436.436,0,0,0,.153.6l.753.446a1.064,1.064,0,0,0,1.457-.373l2.458-4.149A1.064,1.064,0,0,0,94.4,261.171Z" transform="translate(-89.889 -260.663)" fill="#082233"/>
            <path id="Path_2681" data-name="Path 2681" d="M376.914,260.724l-.753.446a1.063,1.063,0,0,0-.373,1.457l2.458,4.149a1.064,1.064,0,0,0,1.457.373l.753-.446a.436.436,0,0,0,.153-.6l-3.1-5.228A.436.436,0,0,0,376.914,260.724Z" transform="translate(-362.183 -260.663)" fill="#082233"/>
          </g>
        </g>
      </g>
      <g id="Group_1780" data-name="Group 1780" transform="translate(2.233 6.324)">
        <path id="Path_2682" data-name="Path 2682" d="M89.2,135.029H77.3a.364.364,0,0,1,0-.728H89.2a.364.364,0,0,1,0,.728Z" transform="translate(-76.938 -134.301)" fill="#ddeafb"/>
      </g>
      <g id="Group_1781" data-name="Group 1781" transform="translate(2.233 3.789)">
        <path id="Path_2683" data-name="Path 2683" d="M83.252,81.181H77.3a.364.364,0,0,1,0-.728h5.95a.364.364,0,0,1,0,.728Z" transform="translate(-76.938 -80.453)" fill="#ddeafb"/>
      </g>
      <g id="Group_1782" data-name="Group 1782" transform="translate(2.233 8.571)">
        <path id="Path_2684" data-name="Path 2684" d="M89.2,182.742H77.3a.364.364,0,0,1,0-.728H89.2a.364.364,0,0,1,0,.728Z" transform="translate(-76.938 -182.014)" fill="#ddeafb"/>
      </g>
    </g>
  </g>
</svg>
