<svg id="Capa_1" enable-background="new 0 0 512 512" height="512" viewBox="0 0 512 512" width="512" xmlns="http://www.w3.org/2000/svg"><g><path d="m481 158.5v90l-45 52.5-45-7.5v-90l45-52.5z" fill="#6cf"/><path d="m481 248.5v90l-45 52.5-45-7.5v-90z" fill="#e1e6f0"/><g><path d="m481 338.5v107.8l-90 45v-107.8z" fill="#79cc52"/><path d="m481 65.7v92.8l-90 45v-182.8z" fill="#ffbe40"/></g><g id="Book_1_"><g><path d="m421 512h-345c-24.814 0-45-20.186-45-45v-422c0-24.814 20.186-45 45-45h345z" fill="#ff7f40"/></g></g><path d="m226 0h195v512h-195z" fill="#f25a3c"/><g><path d="m274.6 249.699-10.499 10.8c-5.7 5.7-15.601 5.7-21.301 0l-16.8-16.8-4.501-4.499c-5.7-6-5.7-15.3 0-21.301l10.801-10.499-84.9-84.9-10.499 10.499c-41.102 41.1-41.102 107.701 0 148.5l63.6 63.6c7.798 7.8 16.5 14.101 25.499 18.9 39.6 20.7 89.7 14.399 122.999-18.9l10.501-10.499z" fill="#4d6666"/></g><g fill="#3a4d4d"><path d="m226 201.154v12.444l6.226-6.216z"/><path d="m359.5 334.6-10.501 10.499c-33.3 33.3-83.399 39.6-122.999 18.9v-120.3l16.8 16.8c5.7 5.7 15.601 5.7 21.301 0l10.499-10.8z"/></g></g></svg>