<svg xmlns="http://www.w3.org/2000/svg" width="17.845" height="17.749" viewBox="0 0 17.845 17.749"><g transform="translate(0 -0.269)"><path d="M17.333,29.074a.468.468,0,0,0-.468.468v4.153a1.4,1.4,0,0,1-1.4,1.4H2.339a1.4,1.4,0,0,1-1.4-1.4V21.507a1.4,1.4,0,0,1,1.4-1.4H6.491a.468.468,0,1,0,0-.935H2.339A2.341,2.341,0,0,0,0,21.507V33.694a2.341,2.341,0,0,0,2.339,2.339H15.462A2.341,2.341,0,0,0,17.8,33.694V29.542A.468.468,0,0,0,17.333,29.074Zm0,0" transform="translate(0 -18.016)"/><path d="M156.367,39.157l6.829-6.829,2.2,2.2-6.829,6.829Zm0,0" transform="translate(-149.054 -30.56)"/><path d="M132.543,199.653l2.434-.674-1.76-1.76Zm0,0" transform="translate(-126.344 -187.739)"/><path d="M318.677.61a1.171,1.171,0,0,0-1.654,0l-.5.5,2.2,2.2.5-.5a1.17,1.17,0,0,0,0-1.654Zm0,0" transform="translate(-301.723)"/></g></svg>