<svg xmlns="http://www.w3.org/2000/svg" width="23" height="20" viewBox="0 0 23 20">
  <g id="engineering-24px" transform="translate(0 -0.593)">
    <g id="Group_29" data-name="Group 29" transform="translate(0 0.335)">
      <rect id="Rectangle_1485" data-name="Rectangle 1485" width="23" height="20" transform="translate(0 0.258)" fill="none"/>
    </g>
    <g id="Group_31" data-name="Group 31" transform="translate(1 2.335)">
      <g id="Group_30" data-name="Group 30">
        <path id="Path_107" data-name="Path 107" d="M9,15c-2.67,0-8,1.34-8,4v2H17V19C17,16.34,11.67,15,9,15Z" transform="translate(-1 -3.742)" fill="#0019ff"/>
        <path id="Path_108" data-name="Path 108" d="M13.75,8H13a4,4,0,0,0-2-3.45V5.5a.5.5,0,0,1-1,0V4.14A4.091,4.091,0,0,0,9,4a4.091,4.091,0,0,0-1,.14V5.5a.5.5,0,0,1-1,0V4.55A4,4,0,0,0,5,8H4.25V9h9.5Z" transform="translate(-1 -3)" fill="#0019ff"/>
        <path id="Path_109" data-name="Path 109" d="M9,13a4,4,0,0,0,3.86-3H5.14A4,4,0,0,0,9,13Z" transform="translate(-1.253 -3.346)" fill="#0019ff"/>
        <path id="Path_110" data-name="Path 110" d="M21.98,6.23l.93-.83-.75-1.3-1.19.39a1.982,1.982,0,0,0-.47-.27L20.25,3h-1.5L18.5,4.22a2.272,2.272,0,0,0-.48.27L16.84,4.1l-.75,1.3.93.83a2.261,2.261,0,0,0,0,.52l-.93.85.75,1.3,1.2-.38a2.3,2.3,0,0,0,.43.25L18.75,10h1.5l.27-1.22a2.38,2.38,0,0,0,.44-.25l1.19.38.75-1.3-.93-.85A2.37,2.37,0,0,0,21.98,6.23ZM19.5,7.75A1.25,1.25,0,1,1,20.75,6.5,1.25,1.25,0,0,1,19.5,7.75Z" transform="translate(-1.867 -3)" fill="#0019ff"/>
        <path id="Path_111" data-name="Path 111" d="M19.4,10.79l-.85.28a1.35,1.35,0,0,0-.33-.19L18.04,10H16.97l-.18.87a1.863,1.863,0,0,0-.34.19l-.84-.28-.54.93.66.59a2.284,2.284,0,0,0,0,.37l-.66.61.54.93.86-.27a1.924,1.924,0,0,0,.31.18l.18.88h1.07l.19-.87a2.016,2.016,0,0,0,.32-.18l.85.27.54-.93-.66-.61a2.284,2.284,0,0,0,0-.37l.66-.59Zm-1.9,2.6a.89.89,0,1,1,.89-.89A.892.892,0,0,1,17.5,13.39Z" transform="translate(-1.867 -3.4)" fill="#0019ff"/>
      </g>
    </g>
  </g>
</svg>
