<svg id="Capa_1" enable-background="new 0 0 512 512" height="512" viewBox="0 0 512 512" width="512" xmlns="http://www.w3.org/2000/svg"><g><g fill="#bebcdd"><path d="m107 260h-62v30h62c8.284 0 15-6.716 15-15 0-8.284-6.716-15-15-15z"/><path d="m122 135c0-8.284-6.716-15-15-15h-62v30h62c8.284 0 15-6.716 15-15z"/></g><path d="m45 412c-8.284 0-15-6.716-15-15v-322c0-8.284 6.716-15 15-15s15 6.716 15 15v322c0 8.284-6.716 15-15 15z" fill="#f9f1f1"/><g><path d="m45 60v352c8.284 0 15-6.716 15-15v-322c0-8.284-6.716-15-15-15z" fill="#e2dff4"/></g><path d="m75 512h-60c-8.284 0-15-6.716-15-15v-70c0-24.813 20.187-45 45-45s45 20.187 45 45v70c0 8.284-6.716 15-15 15z" fill="#e2dff4"/><g><path d="m45 382v130h30c8.284 0 15-6.716 15-15v-70c0-24.813-20.187-45-45-45z" fill="#bebcdd"/></g><g><path d="m497 390h-240c-8.284 0-15-6.716-15-15v-70c0-3.051.931-6.029 2.667-8.538l90-130c2.802-4.047 7.411-6.462 12.333-6.462h150c5.198 0 10.026 2.691 12.76 7.114 2.733 4.422 2.981 9.944.656 14.594l-46.645 93.292 46.646 93.292c2.325 4.649 2.077 10.172-.656 14.594-2.735 4.423-7.563 7.114-12.761 7.114z" fill="#ff6c6c"/><path d="m463.771 275h-204.246l-14.858 21.462c-1.736 2.509-2.667 5.487-2.667 8.538v70c0 8.284 6.716 15 15 15h240c5.198 0 10.026-2.691 12.76-7.114 2.733-4.422 2.981-9.944.656-14.594z" fill="#f30051"/><path d="m242 375v-103.11h90l30 33.11c0 4.629-2.137 8.998-5.791 11.84l-90 70c-9.853 7.664-24.209.642-24.209-11.84z" fill="#ff6c6c"/><path d="m347 320h-240c-8.284 0-15-6.716-15-15v-200c0-8.284 6.716-15 15-15h240c8.284 0 15 6.716 15 15v200c0 8.284-6.716 15-15 15z" fill="#f30051"/><path d="m92 205v100c0 8.284 6.716 15 15 15h240c8.284 0 15-6.716 15-15v-100z" fill="#be003b"/><path d="m261.601 140c-8.284 0-15 6.716-15 15v33.285h-39.201v-33.285c0-8.284-6.716-15-15-15s-15 6.716-15 15v100c0 8.284 6.716 15 15 15s15-6.716 15-15v-36.715h39.201v36.715c0 8.284 6.716 15 15 15s15-6.716 15-15v-100c0-8.284-6.716-15-15-15z" fill="#f9f1f1"/><path d="m177.399 205v50c0 8.284 6.716 15 15 15s15-6.716 15-15v-36.715h39.201v36.715c0 8.284 6.716 15 15 15s15-6.716 15-15v-50z" fill="#e2dff4"/></g><g><path d="m45 90c-24.813 0-45-20.187-45-45s20.187-45 45-45 45 20.187 45 45-20.187 45-45 45z" fill="#e2dff4"/><circle cx="45" cy="45" fill="#f9f1f1" r="15"/><g><g><path d="m45 0v90c24.813 0 45-20.187 45-45s-20.187-45-45-45z" fill="#bebcdd"/></g><g><path d="m45 30v30c8.271 0 15-6.729 15-15s-6.729-15-15-15z" fill="#e2dff4"/></g></g></g></g></svg>