<svg xmlns="http://www.w3.org/2000/svg" width="18.25" height="19.295" viewBox="0 0 18.25 19.295">
  <path id="Path_2553" data-name="Path 2553" d="M28.485,17.366V8.647a.824.824,0,0,0-.824-.824H23.748V5.451a.618.618,0,0,0-.317-.54L20.254,3.139c-.018-.01-.036-.018-.054-.026V2.1h1.711a.247.247,0,0,0,.247-.247V.606a.247.247,0,0,0-.247-.247H20.2V.247a.247.247,0,1,0-.494,0V3.113c-.018.008-.036.017-.054.026L16.475,4.911a.618.618,0,0,0-.317.54V7.823H12.246a.824.824,0,0,0-.824.824v8.719a1.009,1.009,0,0,0,.416,1.929H28.069a1.009,1.009,0,0,0,.416-1.929ZM25.3,10.7a.48.48,0,0,1,.48-.48h.9a.48.48,0,0,1,.48.48v.9a.48.48,0,0,1-.48.48h-.9a.48.48,0,0,1-.48-.48v-.9Zm0,2.884a.48.48,0,0,1,.48-.48h.9a.48.48,0,0,1,.48.48v.9a.48.48,0,0,1-.48.48h-.9a.48.48,0,0,1-.48-.48v-.9ZM22.416,10.7a.48.48,0,0,1,.48-.48h.9a.48.48,0,0,1,.48.48v.9a.48.48,0,0,1-.48.48h-.9a.48.48,0,0,1-.48-.48Zm0,2.884a.48.48,0,0,1,.48-.48h.9a.48.48,0,0,1,.48.48v.9a.48.48,0,0,1-.48.48h-.9a.48.48,0,0,1-.48-.48ZM19.953,5.453a1.36,1.36,0,1,1-1.36,1.359A1.36,1.36,0,0,1,19.953,5.453Zm-1.361,7.8a.48.48,0,0,1,.48-.48h1.763a.48.48,0,0,1,.48.48v3.781a.477.477,0,0,1-.063.238h-2.6a.477.477,0,0,1-.063-.238V13.257ZM15.633,10.7a.48.48,0,0,1,.48-.48h.9a.48.48,0,0,1,.48.48v.9a.48.48,0,0,1-.48.48h-.9a.48.48,0,0,1-.48-.48Zm0,2.884a.48.48,0,0,1,.48-.48h.9a.48.48,0,0,1,.48.48v.9a.48.48,0,0,1-.48.48h-.9a.48.48,0,0,1-.48-.48ZM12.749,10.7a.48.48,0,0,1,.48-.48h.9a.48.48,0,0,1,.48.48v.9a.48.48,0,0,1-.48.48h-.9a.48.48,0,0,1-.48-.48v-.9Zm0,2.884a.48.48,0,0,1,.48-.48h.9a.48.48,0,0,1,.48.48v.9a.48.48,0,0,1-.48.48h-.9a.48.48,0,0,1-.48-.48v-.9Z" transform="translate(-10.828)"/>
</svg>
