<svg xmlns="http://www.w3.org/2000/svg" width="32.2" height="23.144" viewBox="0 0 32.2 23.144">
  <g id="interview_1_" data-name="interview (1)" transform="translate(0 -72)">
    <path id="Path_2606" data-name="Path 2606" d="M304.968,201.914l-2.062-.589a.5.5,0,0,1-.365-.484V200h-3.019v.841a.5.5,0,0,1-.365.484l-2.062.589A1.509,1.509,0,0,0,296,203.365v6.194h8.05a2.013,2.013,0,0,0,2.012-2.012v-4.182A1.509,1.509,0,0,0,304.968,201.914Z" transform="translate(-277.384 -119.95)" fill="#e6af78"/>
    <path id="Path_2607" data-name="Path 2607" d="M304.968,224.736l-1.338-.382a3.013,3.013,0,0,1-5.2,0l-1.338.382A1.509,1.509,0,0,0,296,226.188v6.194h8.05a2.012,2.012,0,0,0,2.012-2.012v-4.181A1.51,1.51,0,0,0,304.968,224.736Z" transform="translate(-277.384 -142.772)" fill="#707487"/>
    <path id="Path_2608" data-name="Path 2608" d="M351.71,201.509a4.006,4.006,0,0,0,1.63-.347.5.5,0,0,1-.121-.322V200H350.2v.841a.5.5,0,0,1-.121.322A4.006,4.006,0,0,0,351.71,201.509Z" transform="translate(-328.063 -119.95)" fill="#d29b6e"/>
    <path id="Path_2609" data-name="Path 2609" d="M320,89.509v.353a4.026,4.026,0,0,0,.207,1.273l.8,2.4h1.509V88h-1.006A1.509,1.509,0,0,0,320,89.509Z" transform="translate(-299.875 -14.994)" fill="#5a4146"/>
    <path id="Path_2610" data-name="Path 2610" d="M341.883,83.058l-.851,2.98-4.025-3.522A1.006,1.006,0,0,1,336,81.509h0A1.509,1.509,0,0,1,337.509,80h3.522a1.006,1.006,0,0,1,1.006,1.006v.946A4.027,4.027,0,0,1,341.883,83.058Z" transform="translate(-314.869 -7.497)" fill="#694b4b"/>
    <path id="Path_2611" data-name="Path 2611" d="M331.019,125.626h0A3.019,3.019,0,0,1,328,122.607v-.589a1.007,1.007,0,0,1,.295-.712l.912-.912a.994.994,0,0,1,.73-.3,5.851,5.851,0,0,1,3.81,1.155.993.993,0,0,1,.29.713v.641A3.019,3.019,0,0,1,331.019,125.626Z" transform="translate(-307.372 -45.073)" fill="#f0c087"/>
    <path id="Path_2612" data-name="Path 2612" d="M329.509,122.142a1,1,0,0,1,1.067-1,10.613,10.613,0,0,1,3.448.679.973.973,0,0,0-.276-.564,5.852,5.852,0,0,0-3.81-1.155h0a.994.994,0,0,0-.73.3l-.912.912a1.006,1.006,0,0,0-.295.712v.589a3.018,3.018,0,0,0,2.182,2.9,2.994,2.994,0,0,1-.673-1.893Z" transform="translate(-307.372 -45.073)" fill="#e6af78"/>
    <g id="Group_1329" data-name="Group 1329" transform="translate(18.616 82.552)">
      <path id="Path_2613" data-name="Path 2613" d="M298.013,242.146a1.51,1.51,0,0,0-.442-1.067l-1.3-1.3a1.5,1.5,0,0,0-.275.863v6.194h2.013v-4.695Z" transform="translate(-296.001 -239.784)" fill="#5b5d6e"/>
      <path id="Path_2614" data-name="Path 2614" d="M388.254,239.785l-1.3,1.3a1.509,1.509,0,0,0-.442,1.067v2.179a.5.5,0,0,1-.5.5H384v2.012h2.516a2.012,2.012,0,0,0,2.012-2.012v-4.182A1.5,1.5,0,0,0,388.254,239.785Z" transform="translate(-378.467 -239.785)" fill="#5b5d6e"/>
    </g>
    <g id="Group_1330" data-name="Group 1330" transform="translate(0.852 90.112)">
      <rect id="Rectangle_1664" data-name="Rectangle 1664" width="29" height="1" transform="translate(0.348 0.888)" fill="#e6af78"/>
      <path id="Path_2615" data-name="Path 2615" d="M16,360v4.528a.5.5,0,0,0,1.006,0V360Z" transform="translate(-15.846 -360)" fill="#e6af78"/>
      <path id="Path_2616" data-name="Path 2616" d="M480,360v4.528a.5.5,0,0,0,1.006,0V360Z" transform="translate(-450.665 -360)" fill="#e6af78"/>
    </g>
    <g id="Group_1331" data-name="Group 1331" transform="translate(0.852 90.577)">
      <rect id="Rectangle_1665" data-name="Rectangle 1665" width="1" height="1" transform="translate(0.348 0.423)" fill="#d29b6e"/>
      <rect id="Rectangle_1666" data-name="Rectangle 1666" width="1" height="1" transform="translate(29.348 0.423)" fill="#d29b6e"/>
    </g>
    <path id="Path_2617" data-name="Path 2617" d="M31.7,353.006H.5A.5.5,0,1,1,.5,352H31.7a.5.5,0,1,1,0,1.006Z" transform="translate(0 -262.391)" fill="#f0c087"/>
    <path id="Path_2618" data-name="Path 2618" d="M376,336h2.516a.5.5,0,0,1,.5.5h0a.5.5,0,0,1-.5.5H376Z" transform="translate(-352.353 -247.397)" fill="#afb9d2"/>
    <path id="Path_2619" data-name="Path 2619" d="M280.5,272h6.037a.5.5,0,0,1,.5.5v4.025a.5.5,0,0,1-.5.5H280.5a.5.5,0,0,1-.5-.5V272.5A.5.5,0,0,1,280.5,272Z" transform="translate(-262.391 -187.422)" fill="#c7cfe2"/>
    <path id="Path_2620" data-name="Path 2620" d="M328.5,305.006h0a.5.5,0,0,1,0-1.006h0a.5.5,0,1,1,0,1.006Z" transform="translate(-307.372 -217.41)" fill="#fff"/>
    <path id="Path_2621" data-name="Path 2621" d="M80.968,209.7l-1.688-.482a1.006,1.006,0,0,1-.73-.98l0-.238H75.522v.247a1.006,1.006,0,0,1-.73.968l-1.7.485A1.509,1.509,0,0,0,72,211.151v4.4a1.509,1.509,0,0,0,1.509,1.509h7.044a1.509,1.509,0,0,0,1.509-1.509v-4.4A1.509,1.509,0,0,0,80.968,209.7Z" transform="translate(-67.472 -127.447)" fill="#00c3ff"/>
    <g id="Group_1332" data-name="Group 1332" transform="translate(4.528 80.553)">
      <path id="Path_2622" data-name="Path 2622" d="M72.275,244.377a1.5,1.5,0,0,0-.275.863v4.4a1.509,1.509,0,0,0,1.509,1.509h.5v-5.031Z" transform="translate(-72 -242.089)" fill="#00aaf0"/>
      <path id="Path_2623" data-name="Path 2623" d="M201.737,244.377a1.5,1.5,0,0,1,.275.863v4.4a1.509,1.509,0,0,1-1.509,1.509H200v-5.031Z" transform="translate(-191.95 -242.089)" fill="#00aaf0"/>
      <path id="Path_2624" data-name="Path 2624" d="M115.987,209.509a12.638,12.638,0,0,0,2.417-.244l-.168-.048a1.006,1.006,0,0,1-.73-.98l0-.238h-3.031v.247a1.006,1.006,0,0,1-.73.968l-.178.051A12.632,12.632,0,0,0,115.987,209.509Z" transform="translate(-110.957 -208)" fill="#00aaf0"/>
    </g>
    <path id="Path_2625" data-name="Path 2625" d="M86.854,81.056a12.4,12.4,0,0,0,4.04-.717.5.5,0,0,0,.3-.635,18.948,18.948,0,0,1-.821-4.14,3.522,3.522,0,1,0-7.043,0,18.946,18.946,0,0,1-.821,4.14.5.5,0,0,0,.3.635A12.4,12.4,0,0,0,86.854,81.056Z" transform="translate(-77.295)" fill="#694b4b"/>
    <path id="Path_2626" data-name="Path 2626" d="M96.5,395.019h0a.5.5,0,0,1-.5-.5V392h1.006v2.516A.5.5,0,0,1,96.5,395.019Z" transform="translate(-89.963 -299.875)" fill="#7f8499"/>
    <rect id="Rectangle_1667" data-name="Rectangle 1667" width="1" height="2" transform="translate(5.2 92)" fill="#707487"/>
    <path id="Path_2627" data-name="Path 2627" d="M192.5,395.019h0a.5.5,0,0,1-.5-.5V392h1.006v2.516A.5.5,0,0,1,192.5,395.019Z" transform="translate(-179.925 -299.875)" fill="#7f8499"/>
    <rect id="Rectangle_1668" data-name="Rectangle 1668" width="1" height="2" transform="translate(12.2 92)" fill="#707487"/>
    <path id="Path_2628" data-name="Path 2628" d="M101.534,264H97.509A1.509,1.509,0,0,0,96,265.509v6.541a.5.5,0,0,0,.5.5h6.037a.5.5,0,0,0,.5-.5v-6.541A1.509,1.509,0,0,0,101.534,264Z" transform="translate(-89.963 -179.925)" fill="#959cb5"/>
    <path id="Path_2629" data-name="Path 2629" d="M84.868,80.561a26.477,26.477,0,0,0,.709-4.6,4.143,4.143,0,0,1,2.249-3.818,3.365,3.365,0,0,0-.97-.143,3.639,3.639,0,0,0-3.522,3.565,18.948,18.948,0,0,1-.821,4.14.5.5,0,0,0,.3.635,12.8,12.8,0,0,0,2.048.536A.674.674,0,0,1,84.868,80.561Z" transform="translate(-77.296 0)" fill="#5a4146"/>
  </g>
</svg>
