<svg height="512" viewBox="0 0 512 512" width="512" xmlns="http://www.w3.org/2000/svg"><g id="flat"><path d="m344 184a144 144 0 1 0 144 144 144 144 0 0 0 -144-144zm0 256a112 112 0 1 1 112-112 112 112 0 0 1 -112 112z" fill="#ea9d2d"/><path d="m168 112a144 144 0 1 0 144 144 144 144 0 0 0 -144-144zm0 256a112 112 0 1 1 112-112 112 112 0 0 1 -112 112z" fill="#fbb540"/><path d="m376 409.345a8 8 0 0 1 -3.206-15.333 72.235 72.235 0 0 0 7.2-3.64 8 8 0 1 1 8.009 13.851 88 88 0 0 1 -8.8 4.451 7.96 7.96 0 0 1 -3.203.671z" fill="#ffd6db"/><path d="m408 384a8 8 0 0 1 -6.391-12.805 71.369 71.369 0 0 0 14.391-43.195 8 8 0 0 1 16 0 87.255 87.255 0 0 1 -17.6 52.805 7.987 7.987 0 0 1 -6.4 3.195z" fill="#ffd6db"/><path d="m224 72-56 72-56-72 24-32h64z" fill="#0a9acd"/><path d="m112 72h112l-24-32h-64z" fill="#0bafea"/><path d="m192 72-24-32-24 32z" fill="#8feaff"/><path d="m168 144 24-72h-48z" fill="#0bafea"/><path d="m329.586 136a21.146 21.146 0 0 1 14.952 6.193l9.807 9.807 9.806-9.807a21.151 21.151 0 0 1 14.949-6.193 21.144 21.144 0 0 1 20.06 14.459 16.269 16.269 0 0 1 -3.931 16.652l-40.884 40.889-40.889-40.889a16.273 16.273 0 0 1 -3.931-16.652 21.146 21.146 0 0 1 20.061-14.459z" fill="#f16465"/></g></svg>