<svg xmlns="http://www.w3.org/2000/svg" width="91.539" height="91.539" viewBox="0 0 91.539 91.539">
  <g id="school_1_" data-name="school (1)" transform="translate(-16 -16)">
    <path id="Path_2698" data-name="Path 2698" d="M265.154,31.628,256,30.1V24l9.154,1.526Z" transform="translate(-194.231 -6.474)" fill="#ffb632"/>
    <path id="Path_2699" data-name="Path 2699" d="M249.526,34.308A1.526,1.526,0,0,1,248,32.782V17.526a1.526,1.526,0,0,1,3.051,0V32.782A1.526,1.526,0,0,1,249.526,34.308Z" transform="translate(-187.756)" fill="#95573a"/>
    <path id="Path_2700" data-name="Path 2700" d="M201.564,164.282H168V100.205L184.782,88l16.782,12.205Z" transform="translate(-123.013 -58.269)" fill="#ffb632"/>
    <ellipse id="Ellipse_136" data-name="Ellipse 136" cx="7.5" cy="8" rx="7.5" ry="8" transform="translate(54.539 43)" fill="#e9eef2"/>
    <path id="Path_2701" data-name="Path 2701" d="M344,152h24.41v64.077H344Z" transform="translate(-265.449 -110.064)" fill="#f7b030"/>
    <path id="Path_2702" data-name="Path 2702" d="M251.051,182.1h-1.526A1.526,1.526,0,0,1,248,180.577v-3.051a1.526,1.526,0,0,1,3.051,0v1.526a1.526,1.526,0,0,1,0,3.051Z" transform="translate(-187.756 -129.487)" fill="#eb423f"/>
    <path id="Path_2703" data-name="Path 2703" d="M200,272h21.359v6.1H200Z" transform="translate(-148.91 -207.179)" fill="#d13330"/>
    <path id="Path_2704" data-name="Path 2704" d="M217.154,344a9.154,9.154,0,0,1,9.154,9.154v18.308H208V353.154A9.154,9.154,0,0,1,217.154,344Z" transform="translate(-155.385 -265.449)" fill="#eb423f"/>
    <path id="Path_2705" data-name="Path 2705" d="M265.154,353.154v18.308H256V344A9.154,9.154,0,0,1,265.154,353.154Z" transform="translate(-194.231 -265.449)" fill="#d13330"/>
    <path id="Path_2706" data-name="Path 2706" d="M40,152H64.41v64.077H40Z" transform="translate(-19.423 -110.064)" fill="#f7b030"/>
    <path id="Path_2707" data-name="Path 2707" d="M80,192h9.154v12.205H80Z" transform="translate(-51.795 -142.436)" fill="#e9eef2"/>
    <path id="Path_2708" data-name="Path 2708" d="M77.731,251.051H65.526a1.526,1.526,0,1,1,0-3.051H77.731a1.526,1.526,0,0,1,0,3.051Z" transform="translate(-38.846 -187.756)" fill="#95573a"/>
    <path id="Path_2709" data-name="Path 2709" d="M80,288h9.154v12.205H80Z" transform="translate(-51.795 -220.128)" fill="#dadcde"/>
    <path id="Path_2710" data-name="Path 2710" d="M77.731,347.051H65.526a1.526,1.526,0,1,1,0-3.051H77.731a1.526,1.526,0,1,1,0,3.051Z" transform="translate(-38.846 -265.449)" fill="#95573a"/>
    <path id="Path_2711" data-name="Path 2711" d="M80,384h9.154v12.205H80Z" transform="translate(-51.795 -297.82)" fill="#e9eef2"/>
    <path id="Path_2712" data-name="Path 2712" d="M77.731,443.051H65.526a1.526,1.526,0,1,1,0-3.051H77.731a1.526,1.526,0,1,1,0,3.051Z" transform="translate(-38.846 -343.141)" fill="#95573a"/>
    <path id="Path_2713" data-name="Path 2713" d="M384,192h9.154v12.205H384Z" transform="translate(-297.82 -142.436)" fill="#e9eef2"/>
    <path id="Path_2714" data-name="Path 2714" d="M381.731,251.051H369.526a1.526,1.526,0,0,1,0-3.051h12.205a1.526,1.526,0,1,1,0,3.051Z" transform="translate(-284.872 -187.756)" fill="#95573a"/>
    <path id="Path_2715" data-name="Path 2715" d="M384,288h9.154v12.205H384Z" transform="translate(-297.82 -220.128)" fill="#dadcde"/>
    <path id="Path_2716" data-name="Path 2716" d="M381.731,347.051H369.526a1.526,1.526,0,0,1,0-3.051h12.205a1.526,1.526,0,1,1,0,3.051Z" transform="translate(-284.872 -265.449)" fill="#95573a"/>
    <path id="Path_2717" data-name="Path 2717" d="M384,384h9.154v12.205H384Z" transform="translate(-297.82 -297.82)" fill="#e9eef2"/>
    <g id="Group_2235" data-name="Group 2235" transform="translate(16 29.731)">
      <path id="Path_2718" data-name="Path 2718" d="M381.731,443.051H369.526a1.526,1.526,0,0,1,0-3.051h12.205a1.526,1.526,0,1,1,0,3.051Z" transform="translate(-300.872 -372.872)" fill="#95573a"/>
      <path id="Path_2719" data-name="Path 2719" d="M106.013,483.051H17.526a1.526,1.526,0,1,1,0-3.051h88.487a1.526,1.526,0,1,1,0,3.051Z" transform="translate(-16 -405.243)" fill="#95573a"/>
      <path id="Path_2720" data-name="Path 2720" d="M17.526,152a1.526,1.526,0,1,0,0,3.051H44.987V152Z" transform="translate(-16 -139.795)" fill="#95573a"/>
      <path id="Path_2721" data-name="Path 2721" d="M371.462,152H344v3.051h27.462a1.526,1.526,0,0,0,0-3.051Z" transform="translate(-281.449 -139.795)" fill="#95573a"/>
      <path id="Path_2722" data-name="Path 2722" d="M195.088,103.256a1.519,1.519,0,0,1-.9-.292L178.307,91.412l-15.885,11.553a1.526,1.526,0,1,1-1.795-2.468l16.782-12.205a1.526,1.526,0,0,1,1.795,0L195.986,100.5a1.526,1.526,0,0,1-.9,2.76Z" transform="translate(-132.538 -87.999)" fill="#95573a"/>
    </g>
  </g>
</svg>
