<svg id="school" xmlns="http://www.w3.org/2000/svg" width="21.58" height="21.58" viewBox="0 0 21.58 21.58">
  <path id="Path_2681" data-name="Path 2681" d="M304.8,144.723h4.758l-.833-4a.632.632,0,0,0-.619-.5h-7.323Zm0,0" transform="translate(-288.104 -134.309)" fill="#fdff78"/>
  <path id="Path_2682" data-name="Path 2682" d="M11.775,140.215H4.464a.632.632,0,0,0-.619.5l-.833,4H7.723Zm0,0" transform="translate(-2.885 -134.305)" fill="#fdff78"/>
  <path id="Path_2683" data-name="Path 2683" d="M241.632,224.941a.632.632,0,1,0,.632.632A.633.633,0,0,0,241.632,224.941Zm0,0" transform="translate(-230.842 -215.46)" fill="#fdff78"/>
  <path id="Path_2684" data-name="Path 2684" d="M240.434,428.992H241.7v3.5h-1.264Zm0,0" transform="translate(-230.299 -410.91)" fill="#fdff78"/>
  <path id="Path_2685" data-name="Path 2685" d="M16.412,11.678a.632.632,0,0,1-.472-.211L11.422,6.4V3.161H14.3a.421.421,0,0,0,.362-.638L14.1,1.581l.563-.943A.421.421,0,0,0,14.3,0H10.79a.632.632,0,0,0-.632.632v5.76L5.59,11.469a.632.632,0,0,1-.47.209H0v9.269a.632.632,0,0,0,.632.632H8.87v-4.13a.632.632,0,0,1,.632-.632h2.529a.632.632,0,0,1,.632.632v4.13h8.285a.632.632,0,0,0,.632-.632V11.678ZM3.854,18.292a.632.632,0,0,1-1.264,0v-.843a.632.632,0,0,1,1.264,0Zm0-3.372a.632.632,0,0,1-1.264,0v-.843a.632.632,0,0,1,1.264,0Zm2.529,3.372a.632.632,0,0,1-1.264,0v-.843a.632.632,0,0,1,1.264,0Zm0-3.372a.632.632,0,0,1-1.264,0v-.843a.632.632,0,0,1,1.264,0Zm3.744,0a.632.632,0,0,1-1.264,0v-.843a.632.632,0,0,1,1.264,0ZM8.893,10.113a1.9,1.9,0,1,1,1.9,1.9A1.9,1.9,0,0,1,8.893,10.113Zm3.825,4.807a.632.632,0,0,1-1.264,0v-.843a.632.632,0,0,1,1.264,0ZM16.3,18.292a.632.632,0,1,1-1.264,0v-.843a.632.632,0,1,1,1.264,0Zm0-3.372a.632.632,0,0,1-1.264,0v-.843a.632.632,0,0,1,1.264,0Zm2.529,3.372a.632.632,0,0,1-1.264,0v-.843a.632.632,0,0,1,1.264,0Zm0-3.372a.632.632,0,0,1-1.264,0v-.843a.632.632,0,0,1,1.264,0Zm0,0" fill="#fdff78"/>
</svg>
