<svg xmlns="http://www.w3.org/2000/svg" width="15.105" height="15.105" viewBox="0 0 15.105 15.105">
  <g id="Group_1385" data-name="Group 1385" transform="translate(-697.381 -3485.202)">
    <g id="Group_1015" data-name="Group 1015" transform="translate(-4860 2467)">
      <path id="Selection_Control_Radio_On_Enabled" data-name="Selection Control / Radio / On / Enabled" d="M12.553-384A7.555,7.555,0,0,0,5-376.447a7.555,7.555,0,0,0,7.553,7.553,7.555,7.555,0,0,0,7.553-7.553A7.555,7.555,0,0,0,12.553-384Zm0,13.595a6.041,6.041,0,0,1-6.042-6.042,6.041,6.041,0,0,1,6.042-6.042,6.041,6.041,0,0,1,6.042,6.042A6.041,6.041,0,0,1,12.553-370.405Zm0-2.266a3.776,3.776,0,0,0,3.776-3.776,3.776,3.776,0,0,0-3.776-3.776,3.776,3.776,0,0,0-3.776,3.776A3.776,3.776,0,0,0,12.553-372.671Z" transform="translate(5552.381 1402.202)"/>
      <path id="Path_2490" data-name="Path 2490" d="M4-.075A4.065,4.065,0,0,1,8,4,4,4,0,0,1,4,8,4.169,4.169,0,0,1-.031,3.838,3.953,3.953,0,0,1,4-.075Z" transform="translate(5561 1022)" fill="#fff"/>
    </g>
  </g>
</svg>
