<svg xmlns="http://www.w3.org/2000/svg" width="20.9" height="10.652" viewBox="0 0 20.9 10.652">
  <g id="Group_940" data-name="Group 940" transform="translate(-2613 91.923)">
    <rect id="Rectangle_1571" data-name="Rectangle 1571" width="20.9" height="10.652" rx="1" transform="translate(2613 -91.923)" fill="red"/>
    <g id="Group_937" data-name="Group 937" transform="translate(2614.5 -91.188)">
      <rect id="Rectangle_18" data-name="Rectangle 18" width="18" height="8.923" rx="4.461" fill="none"/>
      <path id="Path_8" data-name="Path 8" d="M4.676,15.5h6.373a1,1,0,0,1,1.055.947v.783l2.359-1.33a.679.679,0,0,1,.621-.018.547.547,0,0,1,.331.492V21a.547.547,0,0,1-.331.492.677.677,0,0,1-.621-.018L12.1,20.144v.783a1,1,0,0,1-1.055.947H4.676A1.6,1.6,0,0,1,3,20.363V17.012A1.6,1.6,0,0,1,4.676,15.5Z" transform="translate(0.164 -14.107)" fill="#fff"/>
    </g>
  </g>
</svg>
