<svg xmlns="http://www.w3.org/2000/svg" width="93.123" height="27.592" viewBox="0 0 93.123 27.592">
  <g id="Group_2118" data-name="Group 2118" transform="translate(-8344 -8289.517)">
    <g id="Group_2117" data-name="Group 2117" transform="translate(8344 8289.517)">
      <g id="google-play-badge" transform="translate(0 0)">
        <path id="Path_2693" data-name="Path 2693" d="M89.674,27.592H3.449A3.415,3.415,0,0,1,0,24.143V3.449A3.415,3.415,0,0,1,3.449,0H89.674a3.416,3.416,0,0,1,3.449,3.449V24.143A3.416,3.416,0,0,1,89.674,27.592Z" transform="translate(0 0)"/>
        <path id="Path_2694" data-name="Path 2694" d="M89.674.552a2.915,2.915,0,0,1,2.9,2.9V24.143a2.915,2.915,0,0,1-2.9,2.9H3.449a2.915,2.915,0,0,1-2.9-2.9V3.449a2.915,2.915,0,0,1,2.9-2.9H89.674m0-.552H3.449A3.459,3.459,0,0,0,0,3.449V24.143a3.415,3.415,0,0,0,3.449,3.449H89.674a3.416,3.416,0,0,0,3.449-3.449V3.449A3.459,3.459,0,0,0,89.674,0Z" transform="translate(0 0)" fill="#a6a6a6"/>
      </g>
      <g id="Group_2115" data-name="Group 2115" transform="translate(31.262 3.413)">
        <text id="Available_on" data-name="Available on" transform="translate(23.778 6.398)" fill="#fff" font-size="8" font-family="Play-Bold, Play" font-weight="700" letter-spacing="0.008em"><tspan x="-23.282" y="0">Available on</tspan></text>
        <text id="the_Web" data-name="the Web" transform="translate(26.778 19.398)" fill="#fff" font-size="14" font-family="Play-Bold, Play" font-weight="700" letter-spacing="0.008em"><tspan x="-27.93" y="0">the Web</tspan></text>
      </g>
      <g id="world-wide" transform="translate(5.863 4.545)">
        <path id="Path_2721" data-name="Path 2721" d="M231.816,348.229c1.432-.2,2.687-1.7,3.477-3.905a17,17,0,0,0-3.477-.409Zm0,0" transform="translate(-222.118 -329.54)" fill="#fff"/>
        <path id="Path_2722" data-name="Path 2722" d="M279.789,361c.085-.025.169-.049.253-.076s.14-.047.21-.072.164-.058.246-.089.139-.055.208-.083l.238-.1c.069-.03.137-.062.205-.094s.154-.074.231-.112l.2-.1q.113-.06.224-.123c.067-.038.132-.076.2-.115l.217-.134c.064-.041.128-.082.192-.125s.14-.1.21-.147l.185-.134c.067-.052.136-.105.2-.159s.119-.095.178-.144.131-.113.2-.171.114-.1.17-.152.126-.121.188-.183.108-.106.161-.16l.029-.032a11.242,11.242,0,0,0-2.293-.883,8.305,8.305,0,0,1-2.139,3.473l.081-.02C279.649,361.047,279.719,361.025,279.789,361Zm0,0" transform="translate(-267.803 -342.666)" fill="#fff"/>
        <path id="Path_2723" data-name="Path 2723" d="M340.247,231.684h-4.013a17.359,17.359,0,0,1-.676,4.63,11.64,11.64,0,0,1,2.54,1.011A9.35,9.35,0,0,0,340.247,231.684Zm0,0" transform="translate(-321.52 -222.004)" fill="#fff"/>
        <path id="Path_2724" data-name="Path 2724" d="M231.816,113.407h4.346a16.745,16.745,0,0,0-.659-4.466,17.629,17.629,0,0,1-3.688.44Zm0,0" transform="translate(-222.118 -104.397)" fill="#fff"/>
        <path id="Path_2725" data-name="Path 2725" d="M231.816.316V4.631a17.01,17.01,0,0,0,3.477-.409C234.5,2.014,233.248.52,231.816.316Zm0,0" transform="translate(-222.118 -0.316)" fill="#fff"/>
        <path id="Path_2726" data-name="Path 2726" d="M231.816,235.709a17.642,17.642,0,0,1,3.688.44,16.746,16.746,0,0,0,.659-4.466h-4.346Zm0,0" transform="translate(-222.118 -222.004)" fill="#fff"/>
        <path id="Path_2727" data-name="Path 2727" d="M338.1,80.844a11.64,11.64,0,0,1-2.54,1.011,17.359,17.359,0,0,1,.676,4.63h4.013A9.353,9.353,0,0,0,338.1,80.844Zm0,0" transform="translate(-321.52 -77.475)" fill="#fff"/>
        <path id="Path_2728" data-name="Path 2728" d="M283.892,9.387l-.029-.031c-.053-.055-.108-.107-.162-.16s-.124-.123-.188-.183-.113-.1-.17-.152-.13-.116-.2-.171-.117-.1-.176-.143-.136-.108-.2-.16-.122-.09-.183-.134-.14-.1-.211-.148-.126-.083-.19-.124-.145-.092-.218-.136-.13-.077-.2-.114-.15-.084-.226-.125-.134-.07-.2-.1-.155-.076-.234-.113-.135-.063-.2-.093-.159-.067-.239-.1-.138-.056-.207-.082-.164-.06-.246-.089-.139-.049-.21-.072-.167-.052-.253-.077c-.07-.02-.14-.041-.21-.06l-.082-.02A8.306,8.306,0,0,1,281.6,10.27,11.23,11.23,0,0,0,283.892,9.387Zm0,0" transform="translate(-267.766 -6.526)" fill="#fff"/>
        <path id="Path_2729" data-name="Path 2729" d="M0,86.485H4.013a17.363,17.363,0,0,1,.676-4.63,11.626,11.626,0,0,1-2.54-1.011A9.351,9.351,0,0,0,0,86.485Zm0,0" transform="translate(0 -77.475)" fill="#fff"/>
        <path id="Path_2730" data-name="Path 2730" d="M136.173,348.229v-4.315a17.011,17.011,0,0,0-3.477.409C133.485,346.531,134.741,348.025,136.173,348.229Zm0,0" transform="translate(-127.144 -329.54)" fill="#fff"/>
        <path id="Path_2731" data-name="Path 2731" d="M116.268,231.684h-4.346a16.738,16.738,0,0,0,.659,4.466,17.62,17.62,0,0,1,3.688-.44Zm0,0" transform="translate(-107.24 -222.004)" fill="#fff"/>
        <path id="Path_2732" data-name="Path 2732" d="M136.173.316c-1.432.2-2.688,1.7-3.477,3.905a16.987,16.987,0,0,0,3.477.409Zm0,0" transform="translate(-127.144 -0.316)" fill="#fff"/>
        <path id="Path_2733" data-name="Path 2733" d="M116.268,109.381a17.63,17.63,0,0,1-3.688-.44,16.737,16.737,0,0,0-.659,4.466h4.346Zm0,0" transform="translate(-107.24 -104.397)" fill="#fff"/>
        <path id="Path_2734" data-name="Path 2734" d="M66.623,6.789l-.081.02c-.071.019-.141.04-.211.06s-.167.049-.252.076-.141.048-.211.072-.164.058-.245.088-.139.055-.208.083l-.238.1c-.069.03-.137.062-.205.094s-.154.074-.231.112l-.2.1q-.113.06-.223.124t-.2.115c-.073.044-.145.089-.216.134s-.128.083-.192.126-.14.1-.209.147l-.185.134c-.068.051-.134.105-.2.159s-.119.095-.178.144-.131.112-.2.17-.115.1-.171.153-.126.121-.188.182-.109.106-.162.161l-.029.032a11.236,11.236,0,0,0,2.293.883A8.3,8.3,0,0,1,66.623,6.789Zm0,0" transform="translate(-59.59 -6.518)" fill="#fff"/>
        <path id="Path_2735" data-name="Path 2735" d="M62.418,358.637c.062.061.124.123.188.183s.113.1.17.152.13.116.2.171.117.1.176.143.134.108.2.16.122.089.183.134.141.1.212.149.126.083.19.124.145.092.218.136.13.077.2.114.15.084.226.125.134.07.2.1.155.076.234.113.135.063.2.093.159.067.239.1.138.056.207.082.164.06.246.089.139.049.21.072.167.052.253.077c.07.02.14.041.21.06l.082.02a8.307,8.307,0,0,1-2.139-3.473,11.237,11.237,0,0,0-2.293.883l.029.031C62.31,358.531,62.364,358.583,62.418,358.637Zm0,0" transform="translate(-59.627 -342.617)" fill="#fff"/>
        <path id="Path_2736" data-name="Path 2736" d="M2.149,237.325a11.642,11.642,0,0,1,2.54-1.011,17.363,17.363,0,0,1-.676-4.63H0A9.352,9.352,0,0,0,2.149,237.325Zm0,0" transform="translate(0 -222.004)" fill="#fff"/>
      </g>
    </g>
  </g>
</svg>
