<svg height="512" viewBox="0 0 512 512" width="512" xmlns="http://www.w3.org/2000/svg"><g id="flat"><path d="m305.041 64.559-49.041 49.041-49.041-49.041a23.758 23.758 0 0 1 -6.959-16.8 23.759 23.759 0 0 1 23.759-23.759 23.758 23.758 0 0 1 16.8 6.959l15.441 15.441 15.441-15.441a23.758 23.758 0 0 1 16.8-6.959 23.759 23.759 0 0 1 23.759 23.759 23.758 23.758 0 0 1 -6.959 16.8z" fill="#f16465"/><path d="m174.857 309.3-30.757-8.815-18.733-33.772a90 90 0 0 1 1.491-89.9l37.142-62.026 92.289 26.436-1.329 72.291a90 90 0 0 1 -46.33 77.05z" fill="#eaeae8"/><path d="m255.21 200-.25 13.51a90 90 0 0 1 -46.33 77.05l-33.77 18.74-30.77-8.81-18.73-33.78a89.97 89.97 0 0 1 -1.83-83.83l4.47 1.12a311.689 311.689 0 0 0 98.6 16z" fill="#eaeae8"/><path d="m142.5 422.266 32.357-112.966-30.757-8.815-32.53 113.545a28.944 28.944 0 0 1 -22.51 20.482 28.945 28.945 0 0 0 -22.511 20.481l-1.683 5.876 94.717 27.131 1.518-5.3a28.944 28.944 0 0 0 -8.894-29.865l-.815-.705a28.942 28.942 0 0 1 -8.892-29.864z" fill="#cbcbcb"/><path d="m338.009 309.3 30.763-8.812 18.728-33.775a90 90 0 0 0 -1.49-89.9l-37.148-62.031-92.288 26.436 1.328 72.291a90 90 0 0 0 46.33 77.05z" fill="#eaeae8"/><path d="m387.5 266.71-18.73 33.78-30.76 8.81-33.77-18.74a89.978 89.978 0 0 1 -46.33-77.05l-.25-13.51h27.74a311.689 311.689 0 0 0 98.6-16l5.04-1.68a89.945 89.945 0 0 1 -1.54 84.39z" fill="#eaeae8"/><path d="m370.368 422.266-32.359-112.966 30.763-8.812 32.528 113.542a28.944 28.944 0 0 0 22.511 20.482 28.943 28.943 0 0 1 22.51 20.481l1.679 5.876-94.717 27.131-1.518-5.3a28.944 28.944 0 0 1 8.894-29.865l.815-.705a28.942 28.942 0 0 0 8.894-29.864z" fill="#eaeae8"/><path d="m255.21 200-.25 13.51a90 90 0 0 1 -46.33 77.05l-33.77 18.74-30.77-8.81-18.73-33.78a89.97 89.97 0 0 1 -1.83-83.83l4.47 1.12a311.689 311.689 0 0 0 98.6 16z" fill="#d32b39"/><path d="m387.5 266.71-18.73 33.78-30.76 8.81-33.77-18.74a89.978 89.978 0 0 1 -46.33-77.05l-.25-13.51h27.74a311.689 311.689 0 0 0 98.6-16l5.04-1.68a89.945 89.945 0 0 1 -1.54 84.39z" fill="#d32b39"/><g fill="#fbb540"><path d="m170.533 95.557a8 8 0 0 1 -7.518-10.735l5.466-15.037a8 8 0 0 1 15.038 5.466l-5.467 15.038a8 8 0 0 1 -7.519 5.268z"/><path d="m145.246 94.874a7.974 7.974 0 0 1 -5.809-2.5l-12.3-12.985a8 8 0 0 1 11.615-11.005l12.3 12.986a8 8 0 0 1 -5.8 13.5z"/><path d="m119.264 119.483a8 8 0 0 1 -.908-15.948l17.77-2.053a8 8 0 1 1 1.836 15.895l-17.77 2.052a8.1 8.1 0 0 1 -.928.054z"/><path d="m340.741 95.557a8 8 0 0 1 -7.519-5.268l-5.467-15.038a8 8 0 0 1 15.037-5.466l5.467 15.037a8 8 0 0 1 -7.518 10.735z"/><path d="m366.028 94.874a8 8 0 0 1 -5.805-13.5l12.3-12.986a8 8 0 0 1 11.615 11.005l-12.3 12.985a7.975 7.975 0 0 1 -5.81 2.496z"/><path d="m392.01 119.483a8.1 8.1 0 0 1 -.928-.054l-17.77-2.052a8 8 0 0 1 1.835-15.895l17.771 2.053a8 8 0 0 1 -.908 15.948z"/></g><path d="m176.008 280a8 8 0 0 1 -4.124-14.861l8-4.8a8 8 0 0 1 8.232 13.72l-8 4.8a7.966 7.966 0 0 1 -4.108 1.141z" fill="#ee5e5b"/><path d="m202.288 264.233a8 8 0 0 1 -4.123-14.861 20.363 20.363 0 0 0 9.835-17.372 8 8 0 0 1 16 0 36.443 36.443 0 0 1 -17.6 31.092 7.964 7.964 0 0 1 -4.112 1.141z" fill="#ee5e5b"/><path d="m348.29 279.217a8 8 0 0 1 -6.932-11.982l4.642-8.093a8 8 0 0 1 13.879 7.961l-4.642 8.093a8 8 0 0 1 -6.947 4.021z" fill="#ee5e5b"/><path d="m363.539 252.632a8 8 0 0 1 -6.932-11.982 20.362 20.362 0 0 0 .112-19.962 8 8 0 1 1 13.967-7.806 36.442 36.442 0 0 1 -.2 35.729 8 8 0 0 1 -6.947 4.021z" fill="#ee5e5b"/></g></svg>