<svg xmlns="http://www.w3.org/2000/svg" width="20.804" height="28.819" viewBox="0 0 20.804 28.819">
  <g id="address" transform="translate(-0.145)">
    <path id="Path_2610" data-name="Path 2610" d="M80.735,70.642v5.721h2.08V72.723a.52.52,0,0,1,.52-.52h3.121a.52.52,0,0,1,.52.52v3.641h2.08V70.642a.52.52,0,0,1,.52-.52h.551L84.9,66.1l-5.232,4.024h.551A.52.52,0,0,1,80.735,70.642Zm0,0" transform="translate(-74.35 -61.801)" fill="#fff"/>
    <path id="Path_2611" data-name="Path 2611" d="M144.145,176h2.08v3.121h-2.08Zm0,0" transform="translate(-134.638 -164.558)" fill="#fff"/>
    <path id="Path_2612" data-name="Path 2612" d="M10.546,28.819c1.957-2.444,10.4-13.284,10.4-18.417a10.4,10.4,0,0,0-20.8,0C.145,15.536,8.589,26.376,10.546,28.819ZM3.468,8.431l6.761-5.2a.52.52,0,0,1,.634,0l6.761,5.2a.52.52,0,0,1-.317.93h-1.56v5.721a.52.52,0,0,1-.52.52H5.866a.52.52,0,0,1-.52-.52V9.362H3.785a.52.52,0,0,1-.317-.932Zm0,0" fill="#fff"/>
  </g>
</svg>
