<svg xmlns="http://www.w3.org/2000/svg" xmlns:xlink="http://www.w3.org/1999/xlink" width="52.654" height="52.058" viewBox="0 0 52.654 52.058">
  <defs>
    <linearGradient id="linear-gradient" x1="0.5" y1="1" x2="0.5" gradientUnits="objectBoundingBox">
      <stop offset="0" stop-color="#0097a6"/>
      <stop offset="1" stop-color="#3ef4ec"/>
    </linearGradient>
    <filter id="Path_2621" x="0" y="7" width="52.654" height="45.058" filterUnits="userSpaceOnUse">
      <feOffset dy="3" input="SourceAlpha"/>
      <feGaussianBlur stdDeviation="3" result="blur"/>
      <feFlood flood-opacity="0.161"/>
      <feComposite operator="in" in2="blur"/>
      <feComposite in="SourceGraphic"/>
    </filter>
  </defs>
  <g id="Group_1729" data-name="Group 1729" transform="translate(8412.654 -8520)">
    <path id="Path_2651" data-name="Path 2651" d="M25,0a25,25,0,0,1,9.572,48.1A24.571,24.571,0,0,1,25,50,25,25,0,0,1,25,0Z" transform="translate(-8410 8520)" fill="url(#linear-gradient)"/>
    <g id="shopping-cart" transform="translate(-8403.654 8476.887)">
      <g id="Group_1671" data-name="Group 1671" transform="translate(6.476 56.621)">
        <path id="Path_2615" data-name="Path 2615" d="M397.157,169.031h-4.341a.543.543,0,0,1-.543-.543V160.35a.543.543,0,0,1,.543-.543h4.341a.543.543,0,0,1,.543.543v8.138A.543.543,0,0,1,397.157,169.031Z" transform="translate(-372.199 -153.296)" fill="#ffe07d"/>
        <path id="Path_2616" data-name="Path 2616" d="M269.985,79.347H264.56a.543.543,0,0,1-.543-.543V64.156a.543.543,0,0,1,.543-.543h5.426a.543.543,0,0,1,.543.543V78.8A.543.543,0,0,1,269.985,79.347Z" transform="translate(-252.623 -63.613)" fill="#ccf49f"/>
        <path id="Path_2617" data-name="Path 2617" d="M267.272,77.72a1.628,1.628,0,0,1-1.628-1.628V63.613H264.56a.543.543,0,0,0-.543.543V78.8a.543.543,0,0,0,.543.543h5.426a.543.543,0,0,0,.543-.543V77.72Z" transform="translate(-252.623 -63.613)" fill="#b3e59f"/>
        <path id="Path_2618" data-name="Path 2618" d="M179.094,95.677h-3.255v13.564h3.255a.543.543,0,0,0,.543-.543V96.22A.543.543,0,0,0,179.094,95.677Z" transform="translate(-170.413 -93.507)" fill="#ff8086"/>
        <path id="Path_2619" data-name="Path 2619" d="M171.078,107.613a1.628,1.628,0,0,1-1.628-1.628V95.677h-1.085a.543.543,0,0,0-.543.543V108.7a.543.543,0,0,0,.543.543h3.255a.543.543,0,0,0,.543-.543v-1.085Z" transform="translate(-162.94 -93.507)" fill="#e5646e"/>
        <circle id="Ellipse_78" data-name="Ellipse 78" cx="1.628" cy="1.628" r="1.628" transform="translate(0 22.788)" fill="#fff"/>
        <circle id="Ellipse_79" data-name="Ellipse 79" cx="1.628" cy="1.628" r="1.628" transform="translate(24.415 22.788)" fill="#fff"/>
        <path id="Path_2620" data-name="Path 2620" d="M395.529,167.4a1.628,1.628,0,0,1-1.628-1.628v-5.968h-1.085a.543.543,0,0,0-.543.543v8.138a.543.543,0,0,0,.543.543h4.341a.543.543,0,0,0,.543-.543V167.4h-2.17Z" transform="translate(-372.199 -153.296)" fill="#ffd064"/>
      </g>
      <g id="Group_1672" data-name="Group 1672" transform="translate(0 56.113)">
        <g transform="matrix(1, 0, 0, 1, -9, -13)" filter="url(#Path_2621)">
          <path id="Path_2621-2" data-name="Path 2621" d="M31.976,75.033a2.681,2.681,0,0,0,2.678-2.678V60.961a.508.508,0,0,0-.508-.508H24.888v-3.29a1.051,1.051,0,0,0-1.05-1.05H18.412a1.051,1.051,0,0,0-1.05,1.05v3.29H16.207v-1.12a1.051,1.051,0,0,0-1.05-1.05H11.9a1.051,1.051,0,0,0-1.05,1.05v1.12H5.277L4.754,58.98A2.683,2.683,0,0,0,2.23,57.2H.508a.508.508,0,1,0,0,1.015H2.23A1.666,1.666,0,0,1,3.8,59.32L8.74,73.25a2.683,2.683,0,0,0,1.849,1.7L8.63,78.966a2.135,2.135,0,1,0,1.547,2.577H30.445a2.135,2.135,0,1,0,0-1.015H10.177a2.137,2.137,0,0,0-.651-1.083l2.15-4.413h20.3ZM8.1,82.156a1.12,1.12,0,1,1,1.12-1.12A1.121,1.121,0,0,1,8.1,82.156Zm24.415-2.24a1.12,1.12,0,1,1-1.12,1.12A1.121,1.121,0,0,1,32.519,79.916ZM18.377,57.163a.035.035,0,0,1,.035-.035h5.426a.035.035,0,0,1,.035.035v3.29h-5.5Zm0,4.306h5.5V71.812a.035.035,0,0,1-.035.035H18.412a.035.035,0,0,1-.035-.035Zm-6.511-2.135A.035.035,0,0,1,11.9,59.3h3.255a.035.035,0,0,1,.035.035v1.12H11.866ZM9.7,72.911,5.637,61.469h9.555V71.812a.035.035,0,0,1-.035.035H11.9a.035.035,0,0,1-.035-.035V63.132a.508.508,0,1,0-1.015,0v8.681a1.051,1.051,0,0,0,1.05,1.05h3.255a1.051,1.051,0,0,0,1.05-1.05V61.469h1.155V71.812a1.051,1.051,0,0,0,1.05,1.05h5.426a1.051,1.051,0,0,0,1.05-1.05V61.469h8.751V72.355a1.665,1.665,0,0,1-1.663,1.663H11.264A1.665,1.665,0,0,1,9.7,72.911Z" transform="translate(9 -43.11)"/>
        </g>
        <path id="Path_2622" data-name="Path 2622" d="M385.825,162.545h4.341a1.051,1.051,0,0,0,1.05-1.05V160.41a.508.508,0,0,0-1.015,0v1.085a.035.035,0,0,1-.035.035h-4.341a.035.035,0,0,1-.035-.035v-8.138a.035.035,0,0,1,.035-.035h4.341a.035.035,0,0,1,.035.035v4.883a.508.508,0,0,0,1.015,0v-4.883a1.051,1.051,0,0,0-1.05-1.05h-4.341a1.051,1.051,0,0,0-1.05,1.05v8.138A1.051,1.051,0,0,0,385.825,162.545Z" transform="translate(-358.732 -145.795)"/>
      </g>
    </g>
  </g>
</svg>
