<svg xmlns="http://www.w3.org/2000/svg" xmlns:xlink="http://www.w3.org/1999/xlink" width="50" height="50" viewBox="0 0 50 50">
  <defs>
    <linearGradient id="linear-gradient" x1="0.5" y1="1" x2="0.5" gradientUnits="objectBoundingBox">
      <stop offset="0" stop-color="#005792"/>
      <stop offset="1" stop-color="#4fa4fa"/>
    </linearGradient>
    <linearGradient id="linear-gradient-2" x1="0.5" x2="0.5" y2="1" gradientUnits="objectBoundingBox">
      <stop offset="0" stop-color="#fff"/>
      <stop offset="1" stop-color="#fff" stop-opacity="0.702"/>
    </linearGradient>
    <filter id="Path_2505" x="18.776" y="10.443" width="29.703" height="38.425" filterUnits="userSpaceOnUse">
      <feOffset dy="3" input="SourceAlpha"/>
      <feGaussianBlur stdDeviation="3" result="blur"/>
      <feFlood flood-color="#005792" flood-opacity="0.349"/>
      <feComposite operator="in" in2="blur"/>
      <feComposite in="SourceGraphic"/>
    </filter>
    <filter id="Path_2507" x="1.885" y="10.443" width="29.711" height="38.424" filterUnits="userSpaceOnUse">
      <feOffset dy="3" input="SourceAlpha"/>
      <feGaussianBlur stdDeviation="3" result="blur-2"/>
      <feFlood flood-color="#005792" flood-opacity="0.349"/>
      <feComposite operator="in" in2="blur-2"/>
      <feComposite in="SourceGraphic"/>
    </filter>
  </defs>
  <g id="Group_1734" data-name="Group 1734" transform="translate(-3666 913)">
    <g id="Group_1725" data-name="Group 1725" transform="translate(3666 -913.015)">
      <g id="Group_1568" data-name="Group 1568" transform="translate(0)">
        <circle id="Ellipse_74" data-name="Ellipse 74" cx="25" cy="25" r="25" transform="translate(0 0.015)" fill="url(#linear-gradient)"/>
        <g id="book" transform="translate(10.885 13.44)">
          <path id="Path_2504" data-name="Path 2504" d="M243.233,20.419V0l-.779.065a29.964,29.964,0,0,0-9.083,2.214L232,2.849V23.187l1-.415a31.171,31.171,0,0,1,9.395-2.284Zm0,0" transform="translate(-217.193)" fill="url(#linear-gradient-2)"/>
          <g transform="matrix(1, 0, 0, 1, -10.89, -13.42)" filter="url(#Path_2505)">
            <path id="Path_2505-2" data-name="Path 2505" d="M276.344,47.3h-1.532V65.168a.511.511,0,0,1-.469.511l-1.308.107q-.566.047-1.129.116c-.122.015-.243.034-.363.051-.253.034-.505.068-.757.108-.147.023-.292.051-.438.077-.225.039-.451.079-.675.123-.153.031-.306.065-.463.1-.214.045-.428.092-.64.142-.159.038-.318.078-.476.118-.207.051-.412.106-.618.164-.16.044-.32.09-.479.137-.2.06-.405.122-.607.186l-.473.153q-.3.1-.6.211c-.153.056-.306.111-.463.17l-.209.082h11.7Zm0,0" transform="translate(-236.86 -30.85)" fill="url(#linear-gradient-2)"/>
          </g>
          <path id="Path_2506" data-name="Path 2506" d="M40.779.065,40,0V20.421l.906.077a30.962,30.962,0,0,1,9.385,2.3l.942.392V2.849l-1.37-.569A29.963,29.963,0,0,0,40.779.065Zm0,0" transform="translate(-37.447)" fill="url(#linear-gradient-2)"/>
          <g transform="matrix(1, 0, 0, 1, -10.89, -13.42)" filter="url(#Path_2507)">
            <path id="Path_2507-2" data-name="Path 2507" d="M0,47.3V67.721H11.711c-.063-.025-.126-.051-.189-.075-.146-.056-.293-.109-.441-.162-.207-.075-.415-.149-.624-.219q-.227-.077-.455-.149-.311-.1-.623-.192c-.153-.045-.306-.09-.459-.133-.21-.058-.42-.113-.631-.167-.153-.039-.306-.079-.463-.115-.214-.051-.429-.1-.644-.144-.153-.033-.306-.067-.459-.1-.223-.044-.446-.083-.67-.122l-.44-.077c-.247-.039-.494-.072-.742-.106-.125-.017-.249-.037-.374-.051q-.562-.068-1.123-.116L2,65.678a.511.511,0,0,1-.467-.511V47.3Zm0,0" transform="translate(10.89 -30.85)" fill="url(#linear-gradient-2)"/>
          </g>
        </g>
      </g>
    </g>
  </g>
</svg>
