<svg id="Group_36" data-name="Group 36" xmlns="http://www.w3.org/2000/svg" width="15.148" height="15.148" viewBox="0 0 15.148 15.148">
  <circle id="Ellipse_11" data-name="Ellipse 11" cx="7.574" cy="7.574" r="7.574" fill="#727c8e" opacity="0.2"/>
  <g id="Union_1" data-name="Union 1" transform="translate(3.162 7.574) rotate(-45)" fill="#fff">
    <path d="M 4.207499980926514 4.549000263214111 L 0.8415001034736633 4.549000263214111 C 0.6532001495361328 4.549000263214111 0.5000001192092896 4.395800113677979 0.5000001192092896 4.207499980926514 C 0.5000001192092896 4.019200325012207 0.6532001495361328 3.866000175476074 0.8415001034736633 3.866000175476074 L 3.366000175476074 3.866000175476074 L 3.866000175476074 3.866000175476074 L 3.866000175476074 3.366000175476074 L 3.866000175476074 0.8415001034736633 C 3.866000175476074 0.6532001495361328 4.019200325012207 0.5000001192092896 4.207499980926514 0.5000001192092896 C 4.395800113677979 0.5000001192092896 4.549000263214111 0.6532001495361328 4.549000263214111 0.8415001034736633 L 4.549000263214111 4.207499980926514 C 4.549000263214111 4.395800113677979 4.395800113677979 4.549000263214111 4.207499980926514 4.549000263214111 Z" stroke="none"/>
    <path d="M 4.207499980926514 5.049000263214111 L 0.8415001034736633 5.049000263214111 C 0.3771001398563385 5.049000263214111 1.316070523671442e-07 4.672800064086914 1.316070523671442e-07 4.207499980926514 C 1.316070523671442e-07 3.743100166320801 0.3771001398563385 3.366000175476074 0.8415001034736633 3.366000175476074 L 3.366000175476074 3.366000175476074 L 3.366000175476074 0.8415001034736633 C 3.366000175476074 0.3771001398563385 3.743100166320801 1.316070523671442e-07 4.207499980926514 1.316070523671442e-07 C 4.672800064086914 1.316070523671442e-07 5.049000263214111 0.3771001398563385 5.049000263214111 0.8415001034736633 L 5.049000263214111 4.207499980926514 C 5.049000263214111 4.672800064086914 4.672800064086914 5.049000263214111 4.207499980926514 5.049000263214111 Z" stroke="none" fill="#727c8e"/>
  </g>
</svg>
