<svg xmlns="http://www.w3.org/2000/svg" xmlns:xlink="http://www.w3.org/1999/xlink" width="50" height="50" viewBox="0 0 50 50">
  <defs>
    <linearGradient id="linear-gradient" x1="0.5" y1="1" x2="0.5" gradientUnits="objectBoundingBox">
      <stop offset="0" stop-color="#ff502f"/>
      <stop offset="1" stop-color="#f7a13b"/>
    </linearGradient>
    <linearGradient id="linear-gradient-2" x1="0.5" x2="0.5" y2="1" gradientUnits="objectBoundingBox">
      <stop offset="0" stop-color="#fff"/>
      <stop offset="1" stop-color="#fff" stop-opacity="0.702"/>
    </linearGradient>
    <filter id="Path_2492" x="1.41" y="6.103" width="31.744" height="43.663" filterUnits="userSpaceOnUse">
      <feOffset dy="3" input="SourceAlpha"/>
      <feGaussianBlur stdDeviation="3" result="blur"/>
      <feFlood flood-color="#ff7676" flood-opacity="0.349"/>
      <feComposite operator="in" in2="blur"/>
      <feComposite in="SourceGraphic"/>
    </filter>
    <filter id="Path_2493" x="16.865" y="6.103" width="31.744" height="43.663" filterUnits="userSpaceOnUse">
      <feOffset dy="3" input="SourceAlpha"/>
      <feGaussianBlur stdDeviation="3" result="blur-2"/>
      <feFlood flood-color="#ff7676" flood-opacity="0.349"/>
      <feComposite operator="in" in2="blur-2"/>
      <feComposite in="SourceGraphic"/>
    </filter>
  </defs>
  <g id="Group_1730" data-name="Group 1730" transform="translate(7550.267 -10273.907)">
    <circle id="Ellipse_71" data-name="Ellipse 71" cx="25" cy="25" r="25" transform="translate(-7550.267 10273.907)" fill="url(#linear-gradient)"/>
    <g id="shirt" transform="translate(-7539.856 10284.299)">
      <g id="Group_1534" data-name="Group 1534" transform="translate(0 1.711)">
        <g id="Group_1533" data-name="Group 1533">
          <g transform="matrix(1, 0, 0, 1, -10.41, -12.1)" filter="url(#Path_2492)">
            <path id="Path_2492-2" data-name="Path 2492" d="M11.783,54.3a.855.855,0,0,1-1.289-.092L5.361,47.368a.855.855,0,0,1,.079-1.118L5.691,46H4.277A4.282,4.282,0,0,0,0,50.277V69.1a2.569,2.569,0,0,0,2.566,2.566H13.744V52.342Z" transform="translate(10.41 -33.9)" fill="url(#linear-gradient-2)"/>
          </g>
        </g>
      </g>
      <g id="Group_1536" data-name="Group 1536" transform="translate(15.455 1.711)">
        <g id="Group_1535" data-name="Group 1535">
          <g transform="matrix(1, 0, 0, 1, -25.87, -12.1)" filter="url(#Path_2493)">
            <path id="Path_2493-2" data-name="Path 2493" d="M280.467,46h-1.414l.251.251a.855.855,0,0,1,.079,1.118l-5.133,6.844a.855.855,0,0,1-1.289.092L271,52.342V71.664h11.178a2.569,2.569,0,0,0,2.566-2.566V50.277A4.282,4.282,0,0,0,280.467,46Zm-6.9,22.242a.855.855,0,1,1,.855-.855A.855.855,0,0,1,273.566,68.242Zm0-5.133a.855.855,0,1,1,.855-.855A.855.855,0,0,1,273.566,63.109Zm0-5.133a.855.855,0,1,1,.855-.855A.855.855,0,0,1,273.566,57.976Z" transform="translate(-245.13 -33.9)" fill="url(#linear-gradient-2)"/>
          </g>
        </g>
      </g>
      <g id="Group_1538" data-name="Group 1538" transform="translate(11.177 0)">
        <g id="Group_1537" data-name="Group 1537">
          <path id="Path_2494" data-name="Path 2494" d="M195.993,16l3.422,4.563L202.837,16Z" transform="translate(-195.993 -16)" fill="url(#linear-gradient-2)"/>
        </g>
      </g>
      <g id="Group_1540" data-name="Group 1540" transform="translate(15.729 0.447)">
        <g id="Group_1539" data-name="Group 1539">
          <path id="Path_2495" data-name="Path 2495" d="M279.9,23.837,275.8,29.3l2.2,2.2,4.1-5.461Z" transform="translate(-275.805 -23.837)" fill="url(#linear-gradient-2)"/>
        </g>
      </g>
      <g id="Group_1542" data-name="Group 1542" transform="translate(7.175 0.447)">
        <g id="Group_1541" data-name="Group 1541">
          <path id="Path_2496" data-name="Path 2496" d="M128,23.837l-2.2,2.2,4.1,5.461,2.2-2.2Z" transform="translate(-125.805 -23.837)" fill="url(#linear-gradient-2)"/>
        </g>
      </g>
    </g>
  </g>
</svg>
