<svg xmlns="http://www.w3.org/2000/svg" xmlns:xlink="http://www.w3.org/1999/xlink" width="60" height="60" viewBox="0 0 60 60">
  <defs>
    <linearGradient id="linear-gradient" x1="0.5" y1="1" x2="0.5" gradientUnits="objectBoundingBox">
      <stop offset="0" stop-color="#ff502f"/>
      <stop offset="1" stop-color="#f7a13b"/>
    </linearGradient>
    <linearGradient id="linear-gradient-2" x1="0.5" x2="0.5" y2="1" gradientUnits="objectBoundingBox">
      <stop offset="0" stop-color="#fff"/>
      <stop offset="1" stop-color="#fff" stop-opacity="0.702"/>
    </linearGradient>
    <filter id="Path_2492" x="3.535" y="8.51" width="34.478" height="48.768" filterUnits="userSpaceOnUse">
      <feOffset dy="3" input="SourceAlpha"/>
      <feGaussianBlur stdDeviation="3" result="blur"/>
      <feFlood flood-color="#ff7676" flood-opacity="0.349"/>
      <feComposite operator="in" in2="blur"/>
      <feComposite in="SourceGraphic"/>
    </filter>
    <filter id="Path_2493" x="22.064" y="8.51" width="34.478" height="48.768" filterUnits="userSpaceOnUse">
      <feOffset dy="3" input="SourceAlpha"/>
      <feGaussianBlur stdDeviation="3" result="blur-2"/>
      <feFlood flood-color="#ff7676" flood-opacity="0.349"/>
      <feComposite operator="in" in2="blur-2"/>
      <feComposite in="SourceGraphic"/>
    </filter>
  </defs>
  <g id="Group_1551" data-name="Group 1551" transform="translate(7550.313 -10273.907)">
    <circle id="Ellipse_71" data-name="Ellipse 71" cx="30" cy="30" r="30" transform="translate(-7550.313 10273.907)" fill="url(#linear-gradient)"/>
    <g id="shirt" transform="translate(-7537.777 10286.366)">
      <g id="Group_1534" data-name="Group 1534" transform="translate(0 2.051)">
        <g id="Group_1533" data-name="Group 1533">
          <g transform="matrix(1, 0, 0, 1, -12.54, -14.51)" filter="url(#Path_2492)">
            <path id="Path_2492-2" data-name="Path 2492" d="M14.126,55.956a1.025,1.025,0,0,1-1.545-.11l-6.154-8.2a1.025,1.025,0,0,1,.1-1.34l.3-.3H5.128A5.134,5.134,0,0,0,0,51.128V73.691a3.08,3.08,0,0,0,3.077,3.077h13.4V53.6Z" transform="translate(12.54 -31.49)" fill="url(#linear-gradient-2)"/>
          </g>
        </g>
      </g>
      <g id="Group_1536" data-name="Group 1536" transform="translate(18.529 2.051)">
        <g id="Group_1535" data-name="Group 1535">
          <g transform="matrix(1, 0, 0, 1, -31.06, -14.51)" filter="url(#Path_2493)">
            <path id="Path_2493-2" data-name="Path 2493" d="M282.35,46h-1.695l.3.3a1.025,1.025,0,0,1,.1,1.34l-6.154,8.2a1.025,1.025,0,0,1-1.545.11L271,53.6V76.768h13.4a3.08,3.08,0,0,0,3.077-3.077V51.128A5.134,5.134,0,0,0,282.35,46Zm-8.273,26.666A1.026,1.026,0,1,1,275.1,71.64,1.026,1.026,0,0,1,274.077,72.666Zm0-6.154a1.026,1.026,0,1,1,1.026-1.026A1.026,1.026,0,0,1,274.077,66.512Zm0-6.154a1.026,1.026,0,1,1,1.026-1.026A1.026,1.026,0,0,1,274.077,60.358Z" transform="translate(-239.94 -31.49)" fill="url(#linear-gradient-2)"/>
          </g>
        </g>
      </g>
      <g id="Group_1538" data-name="Group 1538" transform="translate(13.401 0)">
        <g id="Group_1537" data-name="Group 1537">
          <path id="Path_2494" data-name="Path 2494" d="M195.993,16l4.1,5.471L204.2,16Z" transform="translate(-195.993 -16)" fill="url(#linear-gradient-2)"/>
        </g>
      </g>
      <g id="Group_1540" data-name="Group 1540" transform="translate(18.858 0.536)">
        <g id="Group_1539" data-name="Group 1539">
          <path id="Path_2495" data-name="Path 2495" d="M280.716,23.837,275.8,30.384l2.637,2.637,4.911-6.547Z" transform="translate(-275.805 -23.837)" fill="url(#linear-gradient-2)"/>
        </g>
      </g>
      <g id="Group_1542" data-name="Group 1542" transform="translate(8.602 0.536)">
        <g id="Group_1541" data-name="Group 1541">
          <path id="Path_2496" data-name="Path 2496" d="M128.442,23.837,125.8,26.474l4.911,6.547,2.637-2.637Z" transform="translate(-125.805 -23.837)" fill="url(#linear-gradient-2)"/>
        </g>
      </g>
    </g>
  </g>
</svg>
