<svg xmlns="http://www.w3.org/2000/svg" xmlns:xlink="http://www.w3.org/1999/xlink" width="60" height="64.828" viewBox="0 0 60 64.828">
  <defs>
    <linearGradient id="linear-gradient" x1="0.5" y1="1" x2="0.5" gradientUnits="objectBoundingBox">
      <stop offset="0" stop-color="#b4670e"/>
      <stop offset="1" stop-color="#fc941b"/>
    </linearGradient>
    <linearGradient id="linear-gradient-2" x1="0.5" x2="0.5" y2="1" gradientUnits="objectBoundingBox">
      <stop offset="0" stop-color="#fff"/>
      <stop offset="1" stop-color="#fff" stop-opacity="0.702"/>
    </linearGradient>
    <filter id="Union_7" x="3.193" y="9.985" width="53.064" height="54.843" filterUnits="userSpaceOnUse">
      <feOffset dy="8" input="SourceAlpha"/>
      <feGaussianBlur stdDeviation="3" result="blur"/>
      <feFlood flood-color="#be7016" flood-opacity="0.349"/>
      <feComposite operator="in" in2="blur"/>
      <feComposite in="SourceGraphic"/>
    </filter>
  </defs>
  <g id="icon" transform="translate(-198.118 -140)">
    <circle id="Ellipse_6" data-name="Ellipse 6" cx="30" cy="30" r="30" transform="translate(198.118 140)" fill="url(#linear-gradient)"/>
    <g transform="matrix(1, 0, 0, 1, 198.12, 140)" filter="url(#Union_7)">
      <path id="Union_7-2" data-name="Union 7" d="M9.461,36.842a3.243,3.243,0,0,1-3.213-2.836L4.984,23.746H27.4l-.809,6.476h1.476a4.318,4.318,0,1,0,0-8.635H4.713l-.388-3.1A1.079,1.079,0,0,1,5.4,17.27H26.984a1.079,1.079,0,0,1,1.071,1.213l-.119.946h.127a6.512,6.512,0,0,1,0,13.025H26.318l-.185,1.553a3.243,3.243,0,0,1-3.213,2.836ZM21.588,15.111v-4.2c.689-.543,1.363-1.044,1.988-1.441a8.417,8.417,0,0,1,2.608-1.2,5.351,5.351,0,0,0,.933,1.311,5.387,5.387,0,0,0,1.3.93,8.4,8.4,0,0,1-1.2,2.605c-.4.624-.9,1.3-1.441,1.988Zm-8.635,0V8.635h6.476v6.476Zm-6.1,0L.316,8.58a1.079,1.079,0,0,1,0-1.526L2.737,4.633a1.08,1.08,0,0,1,1.527,0l6.531,6.531v3.947ZM28.642,8.058h0a3.237,3.237,0,0,1,.9-5.214L33.7,1.674A1.079,1.079,0,0,1,35.024,3l-1.1,3.984a3.232,3.232,0,0,1-5.278,1.071ZM12.953,6.476V5.4a1.08,1.08,0,0,1,.114-.483L15.225.548a1.125,1.125,0,0,1,1.931,0l2.158,4.366a1.08,1.08,0,0,1,.114.483v1.08Z" transform="translate(12.19 10.99)" fill="url(#linear-gradient-2)"/>
    </g>
  </g>
</svg>
