<svg xmlns="http://www.w3.org/2000/svg" xmlns:xlink="http://www.w3.org/1999/xlink" width="60" height="62.571" viewBox="0 0 60 62.571">
  <defs>
    <linearGradient id="linear-gradient" x1="0.5" y1="1" x2="0.5" gradientUnits="objectBoundingBox">
      <stop offset="0" stop-color="#8b5390"/>
      <stop offset="1" stop-color="#f45f92"/>
    </linearGradient>
    <linearGradient id="linear-gradient-2" x1="0.5" x2="0.5" y2="1" gradientUnits="objectBoundingBox">
      <stop offset="0" stop-color="#fff"/>
      <stop offset="1" stop-color="#fff" stop-opacity="0.702"/>
    </linearGradient>
    <filter id="Union_6" x="2.669" y="11.397" width="52.902" height="51.174" filterUnits="userSpaceOnUse">
      <feOffset dy="8" input="SourceAlpha"/>
      <feGaussianBlur stdDeviation="3" result="blur"/>
      <feFlood flood-color="#8b2f61" flood-opacity="0.345"/>
      <feComposite operator="in" in2="blur"/>
      <feComposite in="SourceGraphic"/>
    </filter>
  </defs>
  <g id="icon" transform="translate(-198.414 -140)">
    <circle id="Ellipse_6" data-name="Ellipse 6" cx="30" cy="30" r="30" transform="translate(198.414 140)" fill="url(#linear-gradient)"/>
    <g transform="matrix(1, 0, 0, 1, 198.41, 140)" filter="url(#Union_6)">
      <path id="Union_6-2" data-name="Union 6" d="M21,33.174a1.026,1.026,0,0,1-1.026-1.026v-8.68H14.929v8.68A1.026,1.026,0,0,1,13.9,33.174H5.319a1.026,1.026,0,0,1-1.026-1.026v-14.3h-2.5A1.789,1.789,0,0,1,.586,14.739L16.245.47a1.781,1.781,0,0,1,2.411,0L34.315,14.738a1.789,1.789,0,0,1-1.2,3.113h-2.5v14.3a1.026,1.026,0,0,1-1.026,1.026ZM23.448,2.048h6.894a1.027,1.027,0,0,1,1.026,1.026V9.25Z" transform="translate(11.67 12.4)" fill="url(#linear-gradient-2)"/>
    </g>
  </g>
</svg>
