<svg xmlns="http://www.w3.org/2000/svg" xmlns:xlink="http://www.w3.org/1999/xlink" width="60" height="60" viewBox="0 0 60 60">
  <defs>
    <linearGradient id="linear-gradient" x1="0.5" y1="1" x2="0.5" gradientUnits="objectBoundingBox">
      <stop offset="0" stop-color="#ff4465"/>
      <stop offset="1" stop-color="#f535ac"/>
    </linearGradient>
    <linearGradient id="linear-gradient-2" x1="0.5" x2="0.5" y2="1" gradientUnits="objectBoundingBox">
      <stop offset="0" stop-color="#fff"/>
      <stop offset="1" stop-color="#fff" stop-opacity="0.702"/>
    </linearGradient>
    <filter id="Path_2489" x="7.393" y="8.4" width="35.475" height="39.492" filterUnits="userSpaceOnUse">
      <feOffset dy="3" input="SourceAlpha"/>
      <feGaussianBlur stdDeviation="3" result="blur"/>
      <feFlood flood-color="#fc7ccb" flood-opacity="0.349"/>
      <feComposite operator="in" in2="blur"/>
      <feComposite in="SourceGraphic"/>
    </filter>
    <filter id="Path_2490" x="1.828" y="8.399" width="53.07" height="46.393" filterUnits="userSpaceOnUse">
      <feOffset dy="3" input="SourceAlpha"/>
      <feGaussianBlur stdDeviation="3" result="blur-2"/>
      <feFlood flood-color="#ff4465" flood-opacity="0.349"/>
      <feComposite operator="in" in2="blur-2"/>
      <feComposite in="SourceGraphic"/>
    </filter>
  </defs>
  <g id="Group_1553" data-name="Group 1553" transform="translate(7414 -10273)">
    <circle id="Ellipse_73" data-name="Ellipse 73" cx="30" cy="30" r="30" transform="translate(-7414 10273)" fill="url(#linear-gradient)"/>
    <g id="high-heels" transform="translate(-7403.172 10287.399)">
      <path id="Path_2488" data-name="Path 2488" d="M389.723,339.207c-1.947-1.947-4.052-3.128-5.663-3.183l-.123.046a16.814,16.814,0,0,1,3.733,3.325,10.175,10.175,0,0,1,2.287,4.071h2.667A11.863,11.863,0,0,0,389.723,339.207Z" transform="translate(-353.493 -315.073)" fill="url(#linear-gradient-2)"/>
      <g transform="matrix(1, 0, 0, 1, -10.83, -14.4)" filter="url(#Path_2489)">
        <path id="Path_2489-2" data-name="Path 2489" d="M107.275,109.136,91.365,88.331A2.708,2.708,0,0,0,89.8,89.366l15.643,20.457Z" transform="translate(-73.41 -73.93)" fill="url(#linear-gradient-2)"/>
      </g>
      <g transform="matrix(1, 0, 0, 1, -10.83, -14.4)" filter="url(#Path_2490)">
        <path id="Path_2490-2" data-name="Path 2490" d="M52.548,109.816a5.406,5.406,0,0,0-2.041-.543l-5.293,1.985a.676.676,0,0,1-.775-.223L27.07,88.322c-1.694.3-3.07,2.952-3.07,6.063.009.481.842,14.459,1.314,22.33h.744l.65-15.591a.677.677,0,0,1,.676-.648c.241,0,2.437.1,5.265,3.637,2.667,3.333,5.9,10.342,6.172,10.942a3.594,3.594,0,0,0,3.45,1.661h16.8a10.08,10.08,0,0,0-1.929-3.2,14.086,14.086,0,0,0-4.592-3.7Z" transform="translate(-13.17 -73.92)" fill="url(#linear-gradient-2)"/>
      </g>
      <path id="Path_2491" data-name="Path 2491" d="M80.134,254.153c.491,5.535,1.1,12.314,1.284,14.366h.735V255.814A9.533,9.533,0,0,0,80.134,254.153Z" transform="translate(-75.386 -240.127)" fill="url(#linear-gradient-2)"/>
    </g>
  </g>
</svg>
