<svg xmlns="http://www.w3.org/2000/svg" xmlns:xlink="http://www.w3.org/1999/xlink" width="60" height="60" viewBox="0 0 60 60">
  <defs>
    <linearGradient id="linear-gradient" x1="0.5" y1="1" x2="0.5" gradientUnits="objectBoundingBox">
      <stop offset="0" stop-color="#469cf4"/>
      <stop offset="1" stop-color="#3ef4ec"/>
    </linearGradient>
    <linearGradient id="linear-gradient-2" x1="0.5" x2="0.5" y2="1" gradientUnits="objectBoundingBox">
      <stop offset="0" stop-color="#fff"/>
      <stop offset="1" stop-color="#fff" stop-opacity="0.702"/>
    </linearGradient>
    <filter id="Path_2516" x="25.042" y="35.004" width="27.958" height="21.319" filterUnits="userSpaceOnUse">
      <feOffset dy="3" input="SourceAlpha"/>
      <feGaussianBlur stdDeviation="3" result="blur"/>
      <feFlood flood-color="#469cf4" flood-opacity="0.349"/>
      <feComposite operator="in" in2="blur"/>
      <feComposite in="SourceGraphic"/>
    </filter>
    <filter id="Path_2519" x="13.37" y="31.685" width="28.013" height="21.319" filterUnits="userSpaceOnUse">
      <feOffset dy="3" input="SourceAlpha"/>
      <feGaussianBlur stdDeviation="3" result="blur-2"/>
      <feFlood flood-color="#469cf4" flood-opacity="0.349"/>
      <feComposite operator="in" in2="blur-2"/>
      <feComposite in="SourceGraphic"/>
    </filter>
  </defs>
  <g id="Group_1567" data-name="Group 1567" transform="translate(7661 -11247)">
    <circle id="Ellipse_75" data-name="Ellipse 75" cx="30" cy="30" r="30" transform="translate(-7661 11247)" fill="url(#linear-gradient)"/>
    <g id="responsive" transform="translate(-7645.323 11263)">
      <path id="Path_2514" data-name="Path 2514" d="M339.468,212h-4.979A2.492,2.492,0,0,0,332,214.489v.83h9.957v-.83A2.492,2.492,0,0,0,339.468,212Zm0,0" transform="translate(-313.634 -200.272)" fill="url(#linear-gradient-2)"/>
      <path id="Path_2515" data-name="Path 2515" d="M332,302h9.957v6.638H332Zm0,0" transform="translate(-313.634 -285.294)" fill="url(#linear-gradient-2)"/>
      <g transform="matrix(1, 0, 0, 1, -15.68, -16)" filter="url(#Path_2516)">
        <path id="Path_2516-2" data-name="Path 2516" d="M332,452.83a2.492,2.492,0,0,0,2.489,2.489h4.979a2.492,2.492,0,0,0,2.489-2.489V452H332Zm0,0" transform="translate(-297.96 -411)" fill="url(#linear-gradient-2)"/>
      </g>
      <path id="Path_2517" data-name="Path 2517" d="M16.706,14.217a4.154,4.154,0,0,1,4.149-4.149H25V2.489A2.492,2.492,0,0,0,22.515,0H2.489A2.492,2.492,0,0,0,0,2.489V15.047H16.706Zm0,0" fill="url(#linear-gradient-2)"/>
      <path id="Path_2518" data-name="Path 2518" d="M2.489,305.319H16.706V302H0v.83A2.492,2.492,0,0,0,2.489,305.319Zm0,0" transform="translate(0 -285.294)" fill="url(#linear-gradient-2)"/>
      <g transform="matrix(1, 0, 0, 1, -15.68, -16)" filter="url(#Path_2519)">
        <path id="Path_2519-2" data-name="Path 2519" d="M124.319,392v1.66H121.83a.83.83,0,1,0,0,1.66h9.183v-1.66h-1.66V392Zm0,0" transform="translate(-98.63 -354.32)" fill="url(#linear-gradient-2)"/>
      </g>
    </g>
  </g>
</svg>
