<svg id="_018---Kissing-Star" data-name="018---Kissing-Star" xmlns="http://www.w3.org/2000/svg" width="44.406" height="42.885" viewBox="0 0 44.406 42.885">
  <path id="Shape" d="M23.536,39.9l8.906,3.71A3.439,3.439,0,0,0,37.2,40.188l-.753-9.832a3.414,3.414,0,0,1,.795-2.46L43.6,20.346a3.421,3.421,0,0,0-1.816-5.528L32.33,12.508a3.441,3.441,0,0,1-2.123-1.555L25.153,2.646a3.446,3.446,0,0,0-5.887,0l-5.058,8.307A3.441,3.441,0,0,1,12.084,12.5l-9.46,2.314A3.421,3.421,0,0,0,.808,20.346L7.168,27.9a3.414,3.414,0,0,1,.8,2.46l-.75,9.833a3.439,3.439,0,0,0,4.761,3.419l8.9-3.711a3.452,3.452,0,0,1,2.657,0Z" transform="translate(-0.005 -0.992)" fill="#f3d55b"/>
  <path id="Shape-2" data-name="Shape" d="M50.4,20.35,44.039,27.9a3.409,3.409,0,0,0-.8,2.458l.75,9.832a3.438,3.438,0,0,1-4.755,3.423L30.332,39.9A3.5,3.5,0,0,0,29,39.639V1a3.418,3.418,0,0,1,2.94,1.654L37,10.954a3.4,3.4,0,0,0,2.121,1.554l9.457,2.313A3.423,3.423,0,0,1,50.4,20.35Z" transform="translate(-6.798 -0.994)" fill="#f0c419"/>
  <path id="Shape-3" data-name="Shape" d="M38.9,22.1a.766.766,0,0,1-.541-.224,4.682,4.682,0,0,0-5.1-.985.766.766,0,1,1-.559-1.426,6.19,6.19,0,0,1,6.743,1.328A.766.766,0,0,1,38.9,22.1Z" transform="translate(-7.549 -5.209)" fill="#ff502f"/>
  <path id="Shape-4" data-name="Shape" d="M37.364,27.222A.766.766,0,0,1,36.828,27a2.394,2.394,0,0,0-3.513,0,.766.766,0,0,1-1.083-1.083,3.872,3.872,0,0,1,5.677,0,.766.766,0,0,1-.545,1.306Z" transform="translate(-7.504 -6.54)" fill="#35495e"/>
  <path id="Shape-5" data-name="Shape" d="M16.819,22.1a.766.766,0,0,1-.541-1.307,6.191,6.191,0,0,1,6.743-1.328.766.766,0,1,1-.559,1.426,4.682,4.682,0,0,0-5.1.985A.766.766,0,0,1,16.819,22.1Z" transform="translate(-3.764 -5.209)" fill="#ff502f"/>
  <path id="Shape-6" data-name="Shape" d="M23.363,27.221A.766.766,0,0,1,22.822,27a2.374,2.374,0,0,0-3.512,0,.766.766,0,0,1-1.083-1.083,3.871,3.871,0,0,1,5.677,0,.766.766,0,0,1-.541,1.307Z" transform="translate(-4.223 -6.54)" fill="#35495e"/>
  <path id="Shape-7" data-name="Shape" d="M28.343,41.657a3.859,3.859,0,0,1-1.721-.387.766.766,0,0,1,.689-1.369,2.352,2.352,0,0,0,1.032.225c.935,0,1.531-.453,1.531-.766s-.6-.766-1.531-.766a.766.766,0,1,1,0-1.531c.935,0,1.531-.453,1.531-.766s-.6-.766-1.531-.766a2.352,2.352,0,0,0-1.035.225.766.766,0,0,1-.689-1.369A3.859,3.859,0,0,1,28.343,34c1.718,0,3.063,1.009,3.063,2.3a2,2,0,0,1-.762,1.531,2,2,0,0,1,.762,1.531c0,1.288-1.345,2.3-3.063,2.3Z" transform="translate(-6.141 -8.724)" fill="#700000"/>
  <path id="Shape-8" data-name="Shape" d="M42.606,34.477a3.584,3.584,0,0,0-1.415-3.358,3.247,3.247,0,0,0-4.468,1.276c-1.455,2.206-.358,5.024.807,9.788,4.836-.809,7.858-.914,9.311-3.12a3.247,3.247,0,0,0-.591-4.609A3.585,3.585,0,0,0,42.606,34.477Z" transform="translate(-8.444 -7.941)" fill="#ff502f"/>
  <ellipse id="Oval" cx="1.5" cy="2" rx="1.5" ry="2" transform="translate(29.241 23.609)" fill="#fb7b76"/>
</svg>
