<svg xmlns="http://www.w3.org/2000/svg" width="44.406" height="42.885" viewBox="0 0 44.406 42.885">
  <g id="Page-1" transform="translate(0 0)">
    <g id="_017---Happy-Star" data-name="017---Happy-Star">
      <path id="Shape" d="M23.536,39.9l8.906,3.71A3.439,3.439,0,0,0,37.2,40.188l-.753-9.832a3.414,3.414,0,0,1,.795-2.46L43.6,20.346a3.421,3.421,0,0,0-1.816-5.528L32.33,12.508a3.441,3.441,0,0,1-2.123-1.555L25.153,2.646a3.446,3.446,0,0,0-5.887,0l-5.058,8.307A3.441,3.441,0,0,1,12.084,12.5l-9.46,2.314A3.421,3.421,0,0,0,.808,20.346L7.168,27.9a3.414,3.414,0,0,1,.8,2.46l-.75,9.833a3.439,3.439,0,0,0,4.761,3.419l8.9-3.711a3.452,3.452,0,0,1,2.657,0Z" transform="translate(-0.005 -0.992)" fill="#f3d55b"/>
      <path id="Shape-2" data-name="Shape" d="M50.4,20.35,44.039,27.9a3.409,3.409,0,0,0-.8,2.458l.75,9.832a3.438,3.438,0,0,1-4.755,3.423L30.332,39.9A3.5,3.5,0,0,0,29,39.639V1a3.418,3.418,0,0,1,2.94,1.654L37,10.954a3.4,3.4,0,0,0,2.121,1.554l9.457,2.313A3.423,3.423,0,0,1,50.4,20.35Z" transform="translate(-6.798 -0.994)" fill="#f0c419"/>
      <path id="Shape-3" data-name="Shape" d="M34.991,28.563a3.839,3.839,0,0,1-2.757-1.253.766.766,0,0,1,1.083-1.083,2.374,2.374,0,0,0,3.512,0,.766.766,0,0,1,1.083,1.083,4.331,4.331,0,0,1-2.92,1.253Z" transform="translate(-7.505 -6.853)" fill="#ff502f"/>
      <path id="Shape-4" data-name="Shape" d="M21.141,28.563a4.331,4.331,0,0,1-2.918-1.253A.766.766,0,0,1,19.3,26.225a2.394,2.394,0,0,0,3.513,0A.766.766,0,0,1,23.9,27.308a3.842,3.842,0,0,1-2.759,1.255Z" transform="translate(-4.222 -6.853)" fill="#ff502f"/>
      <path id="Shape-5" data-name="Shape" d="M26.657,40.126c-6.854,0-7.643-5.207-7.65-5.257a.766.766,0,1,1,1.518-.207c.023.153.652,3.932,6.133,3.932,5.533,0,6.126-3.893,6.133-3.932a.766.766,0,1,1,1.518.207C34.3,34.919,33.511,40.126,26.657,40.126Z" transform="translate(-4.455 -8.724)" fill="#ff502f"/>
    </g>
  </g>
</svg>
