<svg id="Page-1" xmlns="http://www.w3.org/2000/svg" width="44.406" height="42.885" viewBox="0 0 44.406 42.885">
  <g id="_015---Heart-Eyed-Star" data-name="015---Heart-Eyed-Star" transform="translate(0)">
    <path id="Shape" d="M23.536,39.9l8.906,3.71A3.439,3.439,0,0,0,37.2,40.188l-.753-9.832a3.414,3.414,0,0,1,.795-2.46L43.6,20.346a3.421,3.421,0,0,0-1.816-5.528L32.33,12.508a3.441,3.441,0,0,1-2.123-1.555L25.153,2.646a3.446,3.446,0,0,0-5.887,0l-5.058,8.307A3.441,3.441,0,0,1,12.084,12.5l-9.46,2.314A3.421,3.421,0,0,0,.808,20.346L7.168,27.9a3.414,3.414,0,0,1,.8,2.46l-.75,9.833a3.439,3.439,0,0,0,4.761,3.419l8.9-3.711a3.452,3.452,0,0,1,2.657,0Z" transform="translate(-0.005 -0.992)" fill="#f3d55b"/>
    <path id="Shape-2" data-name="Shape" d="M50.4,20.35,44.039,27.9a3.409,3.409,0,0,0-.8,2.458l.75,9.832a3.438,3.438,0,0,1-4.755,3.423L30.332,39.9A3.5,3.5,0,0,0,29,39.639V1a3.418,3.418,0,0,1,2.94,1.654L37,10.954a3.4,3.4,0,0,0,2.121,1.554l9.457,2.313A3.423,3.423,0,0,1,50.4,20.35Z" transform="translate(-6.798 -0.994)" fill="#f0c419"/>
    <path id="Shape-3" data-name="Shape" d="M33.137,36.873a6.126,6.126,0,0,1-12.129,0A.766.766,0,0,1,21.773,36h10.6a.773.773,0,0,1,.766.873Z" transform="translate(-4.923 -9.193)" fill="#700000"/>
    <g id="Group_1605" data-name="Group 1605" transform="translate(10.503 12.783)">
      <path id="Shape-4" data-name="Shape" d="M18.07,21.066a3.172,3.172,0,0,1,1.252-2.971,2.873,2.873,0,0,1,3.953,1.128c1.286,1.953.316,4.445-.714,8.659-4.278-.716-6.951-.809-8.238-2.76a2.873,2.873,0,0,1,.523-4.078,3.17,3.17,0,0,1,3.224.022Z" transform="translate(-13.721 -17.685)" fill="#ff502f"/>
      <path id="Shape-5" data-name="Shape" d="M36.819,21.066a3.172,3.172,0,0,0-1.252-2.971,2.873,2.873,0,0,0-3.953,1.128c-1.286,1.953-.316,4.445.714,8.659,4.278-.716,6.951-.809,8.238-2.76a2.873,2.873,0,0,0-.523-4.078,3.17,3.17,0,0,0-3.224.022Z" transform="translate(-17.769 -17.685)" fill="#ff502f"/>
      <path id="Shape-6" data-name="Shape" d="M31.615,41.239a6.092,6.092,0,0,1-7.565.077,3.822,3.822,0,0,1,7.565-.077Z" transform="translate(-16.141 -22.444)" fill="#ff502f"/>
    </g>
    <circle id="Oval" cx="1.5" cy="1.5" r="1.5" transform="translate(11.139 17.609)" fill="#fb7b76"/>
    <ellipse id="Oval-2" data-name="Oval" cx="1.5" cy="2" rx="1.5" ry="2" transform="translate(25.139 13.609)" fill="#fb7b76"/>
  </g>
</svg>
