<svg xmlns="http://www.w3.org/2000/svg" width="22.645" height="17" viewBox="0 0 22.645 17">
  <g id="iconfinder_00-ELASTOFONT-STORE-READY_sliders_2738302" transform="translate(-1 -3.991)">
    <path id="Path_2358" data-name="Path 2358" d="M1.708,7.538h6.3a2.825,2.825,0,0,0,5.477,0h9.449a.708.708,0,0,0,0-1.415H13.488a2.825,2.825,0,0,0-5.477,0h-6.3a.708.708,0,0,0,0,1.415Zm9.042-2.131A1.424,1.424,0,1,1,9.326,6.83,1.425,1.425,0,0,1,10.749,5.406Z" fill="#fff"/>
    <path id="Path_2359" data-name="Path 2359" d="M22.937,12.122H21.421a2.825,2.825,0,0,0-5.477,0H1.708a.708.708,0,1,0,0,1.415H15.944a2.825,2.825,0,0,0,5.477,0h1.515a.708.708,0,1,0,0-1.415Zm-4.254,2.131a1.424,1.424,0,1,1,1.424-1.424A1.425,1.425,0,0,1,18.683,14.254Z" transform="translate(0 -0.339)" fill="#fff"/>
    <path id="Path_2360" data-name="Path 2360" d="M22.937,18.122H9.226a2.825,2.825,0,0,0-5.477,0H1.708a.708.708,0,1,0,0,1.415H3.749a2.825,2.825,0,0,0,5.477,0H22.937a.708.708,0,0,0,0-1.415ZM6.488,20.254A1.424,1.424,0,1,1,7.911,18.83,1.425,1.425,0,0,1,6.488,20.254Z" transform="translate(0 -0.678)" fill="#fff"/>
  </g>
</svg>
