<svg xmlns="http://www.w3.org/2000/svg" xmlns:xlink="http://www.w3.org/1999/xlink" width="50" height="50" viewBox="0 0 50 50">
  <defs>
    <linearGradient id="linear-gradient" x1="0.5" y1="1" x2="0.5" gradientUnits="objectBoundingBox">
      <stop offset="0" stop-color="#ff4465"/>
      <stop offset="1" stop-color="#f535ac"/>
    </linearGradient>
    <linearGradient id="linear-gradient-2" x1="0.5" x2="0.5" y2="1" gradientUnits="objectBoundingBox">
      <stop offset="0" stop-color="#fff"/>
      <stop offset="1" stop-color="#fff" stop-opacity="0.702"/>
    </linearGradient>
    <filter id="Path_2489" x="4.77" y="6.088" width="32.678" height="36.053" filterUnits="userSpaceOnUse">
      <feOffset dy="3" input="SourceAlpha"/>
      <feGaussianBlur stdDeviation="3" result="blur"/>
      <feFlood flood-color="#fc7ccb" flood-opacity="0.349"/>
      <feComposite operator="in" in2="blur"/>
      <feComposite in="SourceGraphic"/>
    </filter>
    <filter id="Path_2490" x="0.095" y="6.088" width="47.458" height="41.849" filterUnits="userSpaceOnUse">
      <feOffset dy="3" input="SourceAlpha"/>
      <feGaussianBlur stdDeviation="3" result="blur-2"/>
      <feFlood flood-color="#ff4465" flood-opacity="0.349"/>
      <feComposite operator="in" in2="blur-2"/>
      <feComposite in="SourceGraphic"/>
    </filter>
  </defs>
  <g id="Group_1731" data-name="Group 1731" transform="translate(0 -0.008)">
    <circle id="Ellipse_73" data-name="Ellipse 73" cx="25" cy="25" r="25" transform="translate(0 0.008)" fill="url(#linear-gradient)"/>
    <g id="high-heels" transform="translate(9.095 12.095)">
      <path id="Path_2488" data-name="Path 2488" d="M388.8,338.7c-1.635-1.635-3.4-2.627-4.757-2.674l-.1.039a14.123,14.123,0,0,1,3.135,2.793,8.547,8.547,0,0,1,1.921,3.419h2.24A9.964,9.964,0,0,0,388.8,338.7Z" transform="translate(-358.365 -318.426)" fill="url(#linear-gradient-2)"/>
      <g transform="matrix(1, 0, 0, 1, -9.09, -12.09)" filter="url(#Path_2489)">
        <path id="Path_2489-2" data-name="Path 2489" d="M104.478,105.807,91.114,88.331A2.275,2.275,0,0,0,89.8,89.2l13.14,17.183Z" transform="translate(-76.03 -76.24)" fill="url(#linear-gradient-2)"/>
      </g>
      <g transform="matrix(1, 0, 0, 1, -9.09, -12.09)" filter="url(#Path_2490)">
        <path id="Path_2490-2" data-name="Path 2490" d="M47.98,106.376a4.541,4.541,0,0,0-1.714-.456l-4.446,1.667a.568.568,0,0,1-.651-.187L26.578,88.322C25.156,88.57,24,90.8,24,93.414c.008.4.707,12.145,1.1,18.756h.625l.546-13.1a.568.568,0,0,1,.568-.545c.2,0,2.047.086,4.422,3.055,2.24,2.8,4.953,8.687,5.184,9.191a3.019,3.019,0,0,0,2.9,1.4H53.458a8.467,8.467,0,0,0-1.621-2.688,11.832,11.832,0,0,0-3.857-3.106Z" transform="translate(-14.91 -76.23)" fill="url(#linear-gradient-2)"/>
      </g>
      <path id="Path_2491" data-name="Path 2491" d="M80.134,254.153c.412,4.649.924,10.344,1.078,12.067h.617V255.548A8.007,8.007,0,0,0,80.134,254.153Z" transform="translate(-76.146 -242.371)" fill="url(#linear-gradient-2)"/>
    </g>
  </g>
</svg>
