<svg xmlns="http://www.w3.org/2000/svg" width="16.176" height="16.176" viewBox="0 0 16.176 16.176">
  <g id="voice_chat" data-name="voice chat" transform="translate(-0.003)">
    <path id="Path_2403" data-name="Path 2403" d="M13.808,2.37A8.088,8.088,0,0,0,2.032,13.447l.084.067A3.853,3.853,0,0,1,.452,15.4a.314.314,0,0,0,.091.592,4.6,4.6,0,0,0,3.439-.938L4,15.064A8.086,8.086,0,0,0,13.808,2.37Zm-3.053,9.178c-.178.182-.366.35-.535.538a1.053,1.053,0,0,1-.9.343,3.724,3.724,0,0,1-1.439-.42,7.821,7.821,0,0,1-2.6-2.034A7.179,7.179,0,0,1,4.012,7.863,2.769,2.769,0,0,1,3.8,6.687a.968.968,0,0,1,.3-.645c.2-.192.39-.39.588-.585a.559.559,0,0,1,.84,0c.161.158.316.316.474.474s.309.306.461.461a.56.56,0,0,1,0,.861c-.192.195-.383.39-.582.578a.12.12,0,0,0-.03.155,3.393,3.393,0,0,0,.524.84,5.979,5.979,0,0,0,1.469,1.335c.121.077.255.131.383.2a.115.115,0,0,0,.161-.03c.192-.2.39-.393.585-.588a.553.553,0,0,1,.837,0c.316.313.629.625.941.941A.566.566,0,0,1,10.756,11.548ZM7.774,6.324l.1-.719a3.216,3.216,0,0,1,2.72,2.636l-.716.124a2.493,2.493,0,0,0-2.1-2.041Zm3.99,1.916a4.6,4.6,0,0,0-3.9-3.779l.1-.719A5.337,5.337,0,0,1,12.48,8.115Z" transform="translate(0)" fill="#ff502f"/>
  </g>
</svg>
