<svg xmlns="http://www.w3.org/2000/svg" width="20.375" height="20.266" viewBox="0 0 20.375 20.266">
  <g id="edit_1_" data-name="edit (1)" transform="translate(0 -0.269)">
    <path id="Path_2662" data-name="Path 2662" d="M19.791,30.479a.534.534,0,0,0-.534.534v4.742a1.6,1.6,0,0,1-1.6,1.6H2.67a1.6,1.6,0,0,1-1.6-1.6V21.838a1.6,1.6,0,0,1,1.6-1.6H7.412a.534.534,0,1,0,0-1.068H2.67A2.673,2.673,0,0,0,0,21.838V35.754a2.673,2.673,0,0,0,2.67,2.67H17.654a2.673,2.673,0,0,0,2.67-2.67V31.013A.534.534,0,0,0,19.791,30.479Zm0,0" transform="translate(0 -17.89)" fill="#ff502f"/>
    <path id="Path_2663" data-name="Path 2663" d="M156.367,40.126l7.8-7.8,2.515,2.515-7.8,7.8Zm0,0" transform="translate(-148.017 -30.347)" fill="#ff502f"/>
    <path id="Path_2664" data-name="Path 2664" d="M132.543,200l2.779-.77-2.009-2.009Zm0,0" transform="translate(-125.465 -186.432)" fill="#ff502f"/>
    <path id="Path_2665" data-name="Path 2665" d="M318.982.659a1.337,1.337,0,0,0-1.888,0l-.566.566,2.515,2.515.566-.566a1.336,1.336,0,0,0,0-1.888Zm0,0" transform="translate(-299.624 0)" fill="#ff502f"/>
  </g>
</svg>
