<svg xmlns="http://www.w3.org/2000/svg" width="21.696" height="19.895" viewBox="0 0 21.696 19.895">
  <g id="Group_3015" data-name="Group 3015" transform="translate(-444.435 -573.715)">
    <path id="Subtraction_2" data-name="Subtraction 2" d="M21.7,13.84H0V1.122A1.124,1.124,0,0,1,1.122,0H20.573A1.124,1.124,0,0,1,21.7,1.122V13.839ZM12.275,9.8h0a2.124,2.124,0,0,0,1.177,1.452,2.685,2.685,0,0,0-1.615.815.06.06,0,0,0-.013.014,2.651,2.651,0,0,0-.578.953h6.167a2.7,2.7,0,0,0-2.206-1.782A2.122,2.122,0,0,0,16.384,9.8a.286.286,0,0,0,.091.015c.214,0,.382-.222.382-.506a.6.6,0,0,0-.109-.356V7.847A2.045,2.045,0,0,0,14.7,5.8h-.087V4.678a2.126,2.126,0,0,0-2.123-2.123H9.2A2.126,2.126,0,0,0,7.078,4.678V5.8H6.99A2.045,2.045,0,0,0,4.947,7.847V8.953a.6.6,0,0,0-.109.356c0,.284.168.506.382.506A.287.287,0,0,0,5.311,9.8a2.122,2.122,0,0,0,1.177,1.453,2.681,2.681,0,0,0-1.615.815.06.06,0,0,0-.013.013,2.681,2.681,0,0,0-.579.954h6.167a2.7,2.7,0,0,0-2.206-1.782A2.121,2.121,0,0,0,9.419,9.8a.28.28,0,0,0,.09.015c.214,0,.382-.222.382-.506a.6.6,0,0,0-.108-.356V7.847A2.045,2.045,0,0,0,7.74,5.8H7.652V4.678A1.551,1.551,0,0,1,9.2,3.129h3.293a1.551,1.551,0,0,1,1.55,1.549V5.8h-.089a2.045,2.045,0,0,0-2.043,2.043V8.953a.6.6,0,0,0-.108.356c0,.284.168.506.382.506a.28.28,0,0,0,.089-.015Z" transform="translate(444.435 573.715)" fill="#fff"/>
    <path id="Path_3285" data-name="Path 3285" d="M20.573,38.992H1.123A1.123,1.123,0,0,1,0,37.87V36H21.7v1.87A1.123,1.123,0,0,1,20.573,38.992Z" transform="translate(444.435 551.181)" fill="#fff"/>
    <path id="Path_3287" data-name="Path 3287" d="M24.474,53.5H14.748a.748.748,0,1,1,0-1.5h9.726a.748.748,0,0,1,0,1.5Z" transform="translate(435.671 540.113)" fill="#fff"/>
  </g>
</svg>
