<svg xmlns="http://www.w3.org/2000/svg" width="22.3" height="19.895" viewBox="0 0 22.3 19.895">
  <path id="shopping-cart" d="M6.446,42.927a.734.734,0,0,1,0-1.468c2.708.009,9.85,0,12.644,0A1.624,1.624,0,0,0,20.68,40.2l1.586-6.87a1.32,1.32,0,0,0-1.281-1.617c-1.124,0-10.664-.043-15.551-.063l-.775-2.874a1.582,1.582,0,0,0-1.524-1.167H.654a.654.654,0,0,0,0,1.307H3.135a.272.272,0,0,1,.262.2L6.372,40.154a2.04,2.04,0,0,0-1.967,2.075,2.051,2.051,0,0,0,2.041,2.006H7.4a2.288,2.288,0,1,0,4.134,0h4.128a2.288,2.288,0,1,0,4.117-.035.653.653,0,0,0-.208-1.273Zm4,2.288a.981.981,0,1,1-.981-.981h0A.982.982,0,0,1,10.447,45.215Zm7.281.98a.98.98,0,0,1-.016-1.961h.032a.98.98,0,0,1-.016,1.961ZM20.99,33.025a.01.01,0,0,1,0,.011l-.668,2.895H18.06l.385-2.921,2.534.01A.01.01,0,0,1,20.99,33.025Zm-6.739,7.132V37.238h2.318l-.385,2.919Zm-3.241,0-.388-2.919h2.322v2.919ZM8,40.157H8a.354.354,0,0,1-.341-.261L6.94,37.238H9.3l.388,2.919Zm2.447-4.226-.393-2.955,2.89.012V35.93Zm3.8,0V32.993L17.128,33l-.386,2.926ZM8.734,32.97l.394,2.96H6.588l-.8-2.972ZM19.09,40.157H17.5l.385-2.919h2.134l-.616,2.668A.323.323,0,0,1,19.09,40.157Z" transform="translate(0 -27.609)" fill="#fff"/>
</svg>
