<svg xmlns="http://www.w3.org/2000/svg" width="17.499" height="17.5" viewBox="0 0 17.499 17.5">
  <g id="Group_2230" data-name="Group 2230" transform="translate(-193.404 -288)">
    <g id="Group_772" data-name="Group 772" transform="translate(193.404 288)">
      <path id="sparks-messenger" d="M0,8.1a7.877,7.877,0,0,0,3.26,6.309V17.5l2.979-1.635a9.42,9.42,0,0,0,2.51.339c4.832,0,8.75-3.627,8.75-8.1S13.582,0,8.75,0,0,3.627,0,8.1ZM7.827,5.833l2.282,2.376L14.4,5.833,9.618,10.909,7.391,8.533,3.043,10.91Z" transform="translate(0 0)" fill="#ff502f"/>
      <rect id="_Elevation" data-name="☁️ Elevation" width="12.407" height="12.407" rx="6.203" transform="translate(2.437 1.994)" fill="#ff502f"/>
    </g>
    <text id="_._." data-name=". ." transform="translate(202.904 297)" fill="#f4f6f6" font-size="8" font-family="Poppins-Bold, Poppins" font-weight="700"><tspan x="-3.104" y="0">. .</tspan></text>
  </g>
</svg>
