<svg xmlns="http://www.w3.org/2000/svg" width="29.548" height="26.873" viewBox="0 0 29.548 26.873">
  <g id="home-run" transform="translate(0 -23.173)">
    <path id="Path_2666" data-name="Path 2666" d="M362.506,23.173h2.282v1.521a6.121,6.121,0,0,0-4.313,1.779,2.255,2.255,0,0,1-.25-1.019A2.282,2.282,0,0,1,362.506,23.173Z" transform="translate(-339.435)" fill="#383856"/>
    <path id="Path_2667" data-name="Path 2667" d="M368.867,50.292a2.276,2.276,0,0,1-4.313,1.019,6.124,6.124,0,0,1,4.313-1.779Z" transform="translate(-343.515 -24.837)" fill="#ffd33f"/>
    <path id="Path_2668" data-name="Path 2668" d="M126.658,247.893l-4.19,3.771a1.3,1.3,0,0,0-.17,1.739h0a1.3,1.3,0,0,0,1.814.259l.043-.033,4.532-3.707,3.042-3.042,4.056,3.042-.811,5.676a1.247,1.247,0,0,0,1.058,1.41,1.264,1.264,0,0,0,.175.013h.031a1.28,1.28,0,0,0,1.264-1.042c.413-2.19,1.325-7.07,1.325-7.07l-4.056-3.549-4.563-2.535Z" transform="translate(-114.996 -206.974)" fill="#ea3836"/>
    <path id="Path_2669" data-name="Path 2669" d="M195.61,91.3l-.944.473-3.042-4.056-3.042-2.028-6.592-1.014-2.845,2.834,1.526,1.743L183,87.21l3.549,1.014L184.018,93.8l4.563,2.535,2.028-5.577,3.549,4.056,2.462-1.089Z" transform="translate(-168.806 -57.953)" fill="#91cece"/>
    <g id="Group_2089" data-name="Group 2089" transform="translate(9.067 29.556)">
      <path id="Path_2670" data-name="Path 2670" d="M467.094,190.962l-.013-.032a1.334,1.334,0,0,0-1.73-.751c-.037.015-.073.03-.108.048l-.8.4,1.01,2.426.963-.425A1.3,1.3,0,0,0,467.094,190.962Z" transform="translate(-446.707 -186.836)" fill="#ffd33f"/>
      <path id="Path_2671" data-name="Path 2671" d="M157.455,134.711a1.115,1.115,0,0,0,1.521,1.631l.941-.82-1.526-1.743Z" transform="translate(-157.12 -133.779)" fill="#ffd33f"/>
    </g>
    <g id="Group_2090" data-name="Group 2090" transform="translate(0 25.708)">
      <rect id="Rectangle_1871" data-name="Rectangle 1871" width="6.592" height="1.014" transform="translate(3.042 0)" fill="#383856"/>
      <rect id="Rectangle_1872" data-name="Rectangle 1872" width="1.014" height="1.014" transform="translate(1.014 0)" fill="#383856"/>
      <rect id="Rectangle_1873" data-name="Rectangle 1873" width="1.014" height="1.014" transform="translate(5.07 4.056)" fill="#383856"/>
      <rect id="Rectangle_1874" data-name="Rectangle 1874" width="4.056" height="1.014" transform="translate(0 4.056)" fill="#383856"/>
      <rect id="Rectangle_1875" data-name="Rectangle 1875" width="5.07" height="1.014" transform="translate(2.535 8.113)" fill="#383856"/>
      <rect id="Rectangle_1876" data-name="Rectangle 1876" width="8.62" height="1.014" transform="translate(1.014 12.169)" fill="#383856"/>
      <rect id="Rectangle_1877" data-name="Rectangle 1877" width="4.056" height="1.014" transform="translate(2.028 16.225)" fill="#383856"/>
      <rect id="Rectangle_1878" data-name="Rectangle 1878" width="1.014" height="1.014" transform="translate(0 16.225)" fill="#383856"/>
      <rect id="Rectangle_1879" data-name="Rectangle 1879" width="3.549" height="1.014" transform="translate(1.014 20.282)" fill="#383856"/>
    </g>
    <path id="Path_2672" data-name="Path 2672" d="M163.945,153.893a1.115,1.115,0,0,0,1.465,0l.939-.819-.585-.668Z" transform="translate(-154.484 -121.775)" fill="#ffac3e"/>
    <g id="Group_2091" data-name="Group 2091" transform="translate(11.279 28.243)">
      <path id="Path_2673" data-name="Path 2673" d="M198.361,111.033l-2.918,2.388.585.668,2.333-2.042,3.549,1.014.507-1.014Z" transform="translate(-195.443 -111.033)" fill="#83b2b7"/>
      <path id="Path_2674" data-name="Path 2674" d="M381.656,176.367l-3.354-3.833-.507,1.014,3.549,4.056,2.462-1.089-.39-.938Z" transform="translate(-367.271 -168.985)" fill="#83b2b7"/>
    </g>
    <path id="Path_2675" data-name="Path 2675" d="M475.187,209.9l.39.938.963-.425a1.293,1.293,0,0,0,.741-1.453Z" transform="translate(-447.764 -175.066)" fill="#ffac3e"/>
    <path id="Path_2676" data-name="Path 2676" d="M302.385,177.835l2.324,1.291,2.028-5.577.507-1.014Z" transform="translate(-284.934 -140.741)" fill="#83b2b7"/>
    <g id="Group_2092" data-name="Group 2092" transform="translate(19.969 48.883)">
      <path id="Path_2677" data-name="Path 2677" d="M348.346,476.95c-.02-.032-.039-.064-.055-.1C348.308,476.884,348.327,476.918,348.346,476.95Z" transform="translate(-348.16 -476.38)" fill="#ea3836"/>
      <path id="Path_2678" data-name="Path 2678" d="M353.366,483.369a1.087,1.087,0,0,1-.1-.085A1.159,1.159,0,0,0,353.366,483.369Z" transform="translate(-352.847 -482.441)" fill="#ea3836"/>
      <path id="Path_2679" data-name="Path 2679" d="M350.575,480.426c-.028-.03-.051-.062-.078-.094A1,1,0,0,0,350.575,480.426Z" transform="translate(-350.239 -479.659)" fill="#ea3836"/>
      <path id="Path_2680" data-name="Path 2680" d="M346.8,473.031c-.012-.032-.024-.064-.033-.1C346.772,472.967,346.785,473,346.8,473.031Z" transform="translate(-346.72 -472.688)" fill="#ea3836"/>
      <path id="Path_2681" data-name="Path 2681" d="M346.037,468.758c0-.028-.01-.056-.012-.085C346.027,468.7,346.033,468.73,346.037,468.758Z" transform="translate(-346.025 -468.673)" fill="#ea3836"/>
      <path id="Path_2682" data-name="Path 2682" d="M356.736,485.735a1.249,1.249,0,0,1-.344-.149A1.221,1.221,0,0,0,356.736,485.735Z" transform="translate(-355.794 -484.61)" fill="#ea3836"/>
    </g>
    <g id="Group_2093" data-name="Group 2093" transform="translate(7.367 37.117)">
      <path id="Path_2683" data-name="Path 2683" d="M347.4,474.741a1.212,1.212,0,0,1-.055-.129A1.212,1.212,0,0,0,347.4,474.741Z" transform="translate(-334.664 -462.503)" fill="#d62121"/>
      <path id="Path_2684" data-name="Path 2684" d="M351.923,482.034c-.028-.025-.056-.051-.082-.077C351.868,481.984,351.895,482.008,351.923,482.034Z" transform="translate(-338.903 -469.424)" fill="#d62121"/>
      <path id="Path_2685" data-name="Path 2685" d="M355.1,484.808c-.026-.016-.054-.029-.079-.048C355.046,484.778,355.074,484.792,355.1,484.808Z" transform="translate(-341.899 -472.065)" fill="#d62121"/>
      <path id="Path_2686" data-name="Path 2686" d="M346.266,470.31a1.232,1.232,0,0,1-.03-.161A1.232,1.232,0,0,0,346.266,470.31Z" transform="translate(-333.621 -458.297)" fill="#d62121"/>
      <path id="Path_2687" data-name="Path 2687" d="M345.969,464.435a1.271,1.271,0,0,1,.008-.26A1.236,1.236,0,0,0,345.969,464.435Z" transform="translate(-333.367 -452.668)" fill="#d62121"/>
      <path id="Path_2688" data-name="Path 2688" d="M349.321,478.676a1.178,1.178,0,0,1-.072-.1C349.274,478.609,349.3,478.643,349.321,478.676Z" transform="translate(-336.46 -466.237)" fill="#d62121"/>
      <path id="Path_2689" data-name="Path 2689" d="M362.35,488.16Z" transform="translate(-348.804 -475.269)" fill="#d62121"/>
      <path id="Path_2690" data-name="Path 2690" d="M305.4,266.054l-2.282-1.268,5.324,5.324-1.771,7.587a1.114,1.114,0,0,0,.165.018h.031a1.28,1.28,0,0,0,1.264-1.042c.413-2.19,1.325-7.07,1.325-7.07Z" transform="translate(-292.988 -264.786)" fill="#d62121"/>
      <path id="Path_2691" data-name="Path 2691" d="M132.96,307.365l-5.309,4.06a1.291,1.291,0,0,0,1.791.155l4.532-3.708,3.042-3.042L136,304.323Z" transform="translate(-127.651 -302.041)" fill="#d62121"/>
    </g>
    <path id="Path_2692" data-name="Path 2692" d="M371.573,49.556v.229a2.282,2.282,0,0,1-2.282,2.282,2.237,2.237,0,0,1-1.328-.439,2.272,2.272,0,0,0,4.117-1.336v-.761C371.91,49.531,371.741,49.542,371.573,49.556Z" transform="translate(-346.728 -24.837)" fill="#ffac3e"/>
    <path id="Path_2693" data-name="Path 2693" d="M431.017,23.173a2.329,2.329,0,0,1-.507,1.546c.168-.014.337-.025.507-.025Z" transform="translate(-405.665)" fill="#202033"/>
  </g>
</svg>
