<svg xmlns="http://www.w3.org/2000/svg" width="20" height="20" viewBox="0 0 20 20">
  <g id="search1" transform="translate(0 -0.003)">
    <path id="Path_2280" data-name="Path 2280" d="M19.556,17.383,15.433,13.26a8.231,8.231,0,0,0,1.491-4.8,8.312,8.312,0,0,0-.667-3.287A8.287,8.287,0,0,0,11.749.67a8.433,8.433,0,0,0-6.575,0A8.286,8.286,0,0,0,.667,5.177a8.433,8.433,0,0,0,0,6.574,8.289,8.289,0,0,0,4.507,4.507,8.315,8.315,0,0,0,3.287.667,8.232,8.232,0,0,0,4.8-1.49l4.123,4.111A1.428,1.428,0,0,0,18.462,20a1.538,1.538,0,0,0,1.094-2.62Zm-7.29-5.114a5.185,5.185,0,0,1-3.8,1.581,5.186,5.186,0,0,1-3.8-1.581,5.185,5.185,0,0,1-1.581-3.8,5.186,5.186,0,0,1,1.581-3.8,5.185,5.185,0,0,1,3.8-1.581,5.187,5.187,0,0,1,3.8,1.581,5.185,5.185,0,0,1,1.581,3.8A5.186,5.186,0,0,1,12.266,12.268Z" transform="translate(0 0)" fill="#7a8fa6"/>
  </g>
</svg>
