<svg xmlns="http://www.w3.org/2000/svg" width="19.848" height="19.895" viewBox="0 0 19.848 19.895">
  <g id="Group_3014" data-name="Group 3014" transform="translate(-443.208 -544.052)">
    <path id="Path_3066" data-name="Path 3066" d="M3.5,2.5a.854.854,0,0,1,1.208,0L7.52,5.312,10.331,2.5a.854.854,0,1,1,1.208,1.208L8.123,7.123a.854.854,0,0,1-1.208,0L3.5,3.708A.854.854,0,0,1,3.5,2.5Z" transform="translate(441.804 541.802)" fill="#fff" fill-rule="evenodd"/>
    <path id="Subtraction_1" data-name="Subtraction 1" d="M17.309,16.155H2.539A2.542,2.542,0,0,1,0,13.616V2.539A2.542,2.542,0,0,1,2.539,0h14.77a2.542,2.542,0,0,1,2.539,2.539V13.616A2.542,2.542,0,0,1,17.309,16.155ZM8.077,3.691a.692.692,0,0,0-.692.693v7.385a.692.692,0,0,0,1.125.54l4.615-3.693a.692.692,0,0,0,0-1.081L8.51,3.843A.7.7,0,0,0,8.077,3.691Z" transform="translate(443.208 547.793)" fill="#fff"/>
  </g>
</svg>
