<svg xmlns="http://www.w3.org/2000/svg" width="26.301" height="23" viewBox="0 0 26.301 23">
  <g id="high-five_3_" data-name="high-five (3)" transform="translate(0.001)">
    <path id="Path_2752" data-name="Path 2752" d="M242.541.771a.771.771,0,0,0-1.541,0v3.3a.771.771,0,0,0,1.541,0Zm0,0" transform="translate(-228.621)" fill="#fff"/>
    <path id="Path_2753" data-name="Path 2753" d="M146.474,51.165a.771.771,0,0,0,1.09-1.09l-1.651-1.651a.771.771,0,1,0-1.09,1.09Zm0,0" transform="translate(-137.171 -45.723)" fill="#fff"/>
    <path id="Path_2754" data-name="Path 2754" d="M306.037,51.391a.768.768,0,0,0,.545-.226l1.651-1.651a.771.771,0,0,0-1.09-1.09l-1.651,1.651a.771.771,0,0,0,.545,1.315Zm0,0" transform="translate(-289.585 -45.723)" fill="#fff"/>
    <path id="Path_2755" data-name="Path 2755" d="M10.921,141.242l-.023.019-3.331,2.856a1.708,1.708,0,0,1-1.11.41H4.07A4.069,4.069,0,0,0,0,148.6v7.429a.771.771,0,0,0,.771.771h6.6a.771.771,0,0,0,.771-.771v-7.074l3.921-3.361a.9.9,0,0,0,.315-.686v-2.958a.9.9,0,0,0-1.459-.707Zm0,0" transform="translate(0 -133.798)" fill="#fff"/>
    <path id="Path_2756" data-name="Path 2756" d="M279.309,144.527h-2.386a1.707,1.707,0,0,1-1.11-.411l-3.331-2.856-.023-.019a.9.9,0,0,0-1.459.707v2.958a.9.9,0,0,0,.315.686l3.921,3.361v7.073a.77.77,0,0,0,.771.771h6.6a.77.77,0,0,0,.771-.771V148.6a4.069,4.069,0,0,0-4.071-4.071Zm0,0" transform="translate(-257.079 -133.797)" fill="#fff"/>
    <path id="Path_2757" data-name="Path 2757" d="M22.56,85.711a3.246,3.246,0,1,0-3.246,3.247A3.25,3.25,0,0,0,22.56,85.711Zm0,0" transform="translate(-15.242 -78.229)" fill="#fff"/>
    <path id="Path_2758" data-name="Path 2758" d="M376.029,85.711a3.246,3.246,0,1,0-3.246,3.247A3.25,3.25,0,0,0,376.029,85.711Zm0,0" transform="translate(-350.553 -78.229)" fill="#fff"/>
  </g>
</svg>
